G04 #@! TF.GenerationSoftware,KiCad,Pcbnew,(5.1.8)-1*
G04 #@! TF.CreationDate,2020-11-08T19:12:23+01:00*
G04 #@! TF.ProjectId,MainBoard,4d61696e-426f-4617-9264-2e6b69636164,rev?*
G04 #@! TF.SameCoordinates,Original*
G04 #@! TF.FileFunction,Copper,L2,Bot*
G04 #@! TF.FilePolarity,Positive*
%FSLAX46Y46*%
G04 Gerber Fmt 4.6, Leading zero omitted, Abs format (unit mm)*
G04 Created by KiCad (PCBNEW (5.1.8)-1) date 2020-11-08 19:12:23*
%MOMM*%
%LPD*%
G01*
G04 APERTURE LIST*
G04 #@! TA.AperFunction,ComponentPad*
%ADD10O,1.700000X1.700000*%
G04 #@! TD*
G04 #@! TA.AperFunction,ComponentPad*
%ADD11R,1.700000X1.700000*%
G04 #@! TD*
G04 #@! TA.AperFunction,ComponentPad*
%ADD12C,0.800000*%
G04 #@! TD*
G04 #@! TA.AperFunction,ComponentPad*
%ADD13C,5.400000*%
G04 #@! TD*
G04 #@! TA.AperFunction,ComponentPad*
%ADD14O,1.000000X1.000000*%
G04 #@! TD*
G04 #@! TA.AperFunction,ComponentPad*
%ADD15R,1.000000X1.000000*%
G04 #@! TD*
G04 #@! TA.AperFunction,ComponentPad*
%ADD16C,1.346200*%
G04 #@! TD*
G04 #@! TA.AperFunction,ComponentPad*
%ADD17C,1.500000*%
G04 #@! TD*
G04 #@! TA.AperFunction,ViaPad*
%ADD18C,0.800000*%
G04 #@! TD*
G04 #@! TA.AperFunction,Conductor*
%ADD19C,0.400000*%
G04 #@! TD*
G04 #@! TA.AperFunction,Conductor*
%ADD20C,0.254000*%
G04 #@! TD*
G04 #@! TA.AperFunction,Conductor*
%ADD21C,0.100000*%
G04 #@! TD*
G04 APERTURE END LIST*
D10*
X57658000Y-51308000D03*
D11*
X55118000Y-51308000D03*
D12*
X118231891Y-55368109D03*
X116800000Y-54775000D03*
X115368109Y-55368109D03*
X114775000Y-56800000D03*
X115368109Y-58231891D03*
X116800000Y-58825000D03*
X118231891Y-58231891D03*
X118825000Y-56800000D03*
D13*
X116800000Y-56800000D03*
D12*
X118231891Y-21768109D03*
X116800000Y-21175000D03*
X115368109Y-21768109D03*
X114775000Y-23200000D03*
X115368109Y-24631891D03*
X116800000Y-25225000D03*
X118231891Y-24631891D03*
X118825000Y-23200000D03*
D13*
X116800000Y-23200000D03*
D12*
X24631891Y-55368109D03*
X23200000Y-54775000D03*
X21768109Y-55368109D03*
X21175000Y-56800000D03*
X21768109Y-58231891D03*
X23200000Y-58825000D03*
X24631891Y-58231891D03*
X25225000Y-56800000D03*
D13*
X23200000Y-56800000D03*
D12*
X24631891Y-21768109D03*
X23200000Y-21175000D03*
X21768109Y-21768109D03*
X21175000Y-23200000D03*
X21768109Y-24631891D03*
X23200000Y-25225000D03*
X24631891Y-24631891D03*
X25225000Y-23200000D03*
D13*
X23200000Y-23200000D03*
D14*
X79502000Y-29464000D03*
X80772000Y-29464000D03*
X82042000Y-29464000D03*
X83312000Y-29464000D03*
X84582000Y-29464000D03*
D15*
X85852000Y-29464000D03*
D11*
X77724000Y-49276000D03*
X62484000Y-44196000D03*
X62484000Y-56896000D03*
X77724000Y-56896000D03*
D10*
X84836000Y-56896000D03*
D11*
X82296000Y-56896000D03*
D10*
X57785000Y-25400000D03*
D11*
X57785000Y-22860000D03*
D10*
X53340000Y-25400000D03*
D11*
X53340000Y-22860000D03*
D16*
X91602450Y-44958554D03*
X93608710Y-43181163D03*
X94559170Y-40675005D03*
X94236091Y-38014213D03*
X92713487Y-35808340D03*
X90340168Y-34562726D03*
X87659832Y-34562726D03*
X85286513Y-35808340D03*
X83763909Y-38014213D03*
X83440830Y-40675005D03*
X84391290Y-43181163D03*
X86397550Y-44958554D03*
X89000000Y-45600000D03*
X31602450Y-44958554D03*
X33608710Y-43181163D03*
X34559170Y-40675005D03*
X34236091Y-38014213D03*
X32713487Y-35808340D03*
X30340168Y-34562726D03*
X27659832Y-34562726D03*
X25286513Y-35808340D03*
X23763909Y-38014213D03*
X23440830Y-40675005D03*
X24391290Y-43181163D03*
X26397550Y-44958554D03*
X29000000Y-45600000D03*
X113602450Y-44958554D03*
X115608710Y-43181163D03*
X116559170Y-40675005D03*
X116236091Y-38014213D03*
X114713487Y-35808340D03*
X112340168Y-34562726D03*
X109659832Y-34562726D03*
X107286513Y-35808340D03*
X105763909Y-38014213D03*
X105440830Y-40675005D03*
X106391290Y-43181163D03*
X108397550Y-44958554D03*
X111000000Y-45600000D03*
X53602450Y-44958554D03*
X55608710Y-43181163D03*
X56559170Y-40675005D03*
X56236091Y-38014213D03*
X54713487Y-35808340D03*
X52340168Y-34562726D03*
X49659832Y-34562726D03*
X47286513Y-35808340D03*
X45763909Y-38014213D03*
X45440830Y-40675005D03*
X46391290Y-43181163D03*
X48397550Y-44958554D03*
X51000000Y-45600000D03*
D17*
X68730000Y-40000000D03*
X71270000Y-40000000D03*
D18*
X66040000Y-45720000D03*
X67310000Y-54610000D03*
X67310000Y-45720000D03*
X68580000Y-54610000D03*
X66040000Y-54610000D03*
X68580000Y-45720000D03*
X64770000Y-54610000D03*
X64770000Y-45720000D03*
X69850000Y-54610000D03*
X69850000Y-45720000D03*
X90932000Y-23622000D03*
X69215000Y-26035000D03*
X69215000Y-29845000D03*
X61595000Y-31750000D03*
X56515000Y-30480000D03*
X60960000Y-24130000D03*
X49530000Y-24130000D03*
X38100000Y-29845000D03*
X41910000Y-31115000D03*
X98425000Y-30480000D03*
X102870000Y-29210000D03*
X109855000Y-41275000D03*
X86995000Y-40640000D03*
X53340000Y-40640000D03*
X30480000Y-41275000D03*
X39370000Y-46355000D03*
X100965000Y-46355000D03*
X78105000Y-39370000D03*
X99695000Y-21590000D03*
X40640000Y-21590000D03*
X48260000Y-22860000D03*
X97155000Y-21590000D03*
X82804000Y-49530000D03*
X83058000Y-25146000D03*
X77216000Y-25908000D03*
X76708000Y-21844000D03*
X41910000Y-25654000D03*
X43688000Y-27432000D03*
X95758000Y-28194000D03*
X97790000Y-26162000D03*
X80772000Y-33655000D03*
X68800000Y-36000000D03*
X62865000Y-33020000D03*
X71120000Y-32385000D03*
X48514000Y-26924000D03*
X40894000Y-24892000D03*
X71628000Y-26162000D03*
X42672000Y-21844000D03*
X43688000Y-20828000D03*
X72644000Y-25146000D03*
X88900000Y-29210000D03*
X98044000Y-27305000D03*
X77978000Y-30226000D03*
X60960000Y-34798000D03*
X70612000Y-23876000D03*
X71882000Y-29718000D03*
X76962000Y-27686000D03*
X63246000Y-22860000D03*
X69088000Y-22860000D03*
X59690000Y-38100000D03*
X72390000Y-33655000D03*
X59055000Y-40640000D03*
X59055000Y-46355000D03*
D19*
X41910000Y-25654000D02*
X43688000Y-27432000D01*
X97790000Y-26162000D02*
X95758000Y-28194000D01*
X68800000Y-36000000D02*
X74901252Y-36000000D01*
X74901252Y-36000000D02*
X77246252Y-33655000D01*
X80772000Y-33655000D02*
X77246252Y-33655000D01*
X43279999Y-28282001D02*
X44096001Y-28282001D01*
X40894000Y-24892000D02*
X40894000Y-25896002D01*
X40894000Y-25896002D02*
X43279999Y-28282001D01*
X45454002Y-26924000D02*
X44096001Y-28282001D01*
X48514000Y-26924000D02*
X45454002Y-26924000D01*
X71120000Y-32385000D02*
X69655021Y-33849979D01*
X63694979Y-33849979D02*
X62865000Y-33020000D01*
X69655021Y-33849979D02*
X63694979Y-33849979D01*
X71628000Y-21747252D02*
X71005768Y-21125020D01*
X43930002Y-21844000D02*
X42672000Y-21844000D01*
X44648982Y-21125020D02*
X43930002Y-21844000D01*
X71005768Y-21125020D02*
X44648982Y-21125020D01*
X71628000Y-21747252D02*
X71628000Y-26162000D01*
X72644000Y-21844000D02*
X71275010Y-20475010D01*
X44040990Y-20475010D02*
X43688000Y-20828000D01*
X71275010Y-20475010D02*
X44040990Y-20475010D01*
X72644000Y-21844000D02*
X72644000Y-25146000D01*
X89065999Y-29044001D02*
X88900000Y-29210000D01*
X96177999Y-29044001D02*
X89065999Y-29044001D01*
X74832001Y-35149999D02*
X61311999Y-35149999D01*
X61311999Y-35149999D02*
X60960000Y-34798000D01*
X97905002Y-27305000D02*
X98044000Y-27305000D01*
X96177999Y-29032003D02*
X97905002Y-27305000D01*
X96177999Y-29044001D02*
X96177999Y-29032003D01*
X77978000Y-32004000D02*
X74832001Y-35149999D01*
X77978000Y-30226000D02*
X77978000Y-32004000D01*
X70612000Y-22352000D02*
X70035030Y-21775030D01*
X58869970Y-21775030D02*
X57785000Y-22860000D01*
X70612000Y-23876000D02*
X70612000Y-22352000D01*
X58869970Y-21775030D02*
X70035030Y-21775030D01*
X63246000Y-22860000D02*
X69088000Y-22860000D01*
X74930000Y-29718000D02*
X76962000Y-27686000D01*
X71882000Y-29718000D02*
X74930000Y-29718000D01*
X60109999Y-34389999D02*
X60109999Y-37680001D01*
X60551999Y-33947999D02*
X60109999Y-34389999D01*
X60109999Y-37680001D02*
X59690000Y-38100000D01*
X62230000Y-34499989D02*
X61678010Y-33947999D01*
X71545011Y-34499989D02*
X62230000Y-34499989D01*
X61678010Y-33947999D02*
X60551999Y-33947999D01*
X72390000Y-33655000D02*
X71545011Y-34499989D01*
X59055000Y-41275000D02*
X59055000Y-40640000D01*
X59055000Y-41275000D02*
X59055000Y-46355000D01*
D20*
X42892782Y-20586773D02*
X42861000Y-20746548D01*
X42861000Y-20909452D01*
X42887705Y-21043705D01*
X42753452Y-21017000D01*
X42590548Y-21017000D01*
X42430773Y-21048782D01*
X42280269Y-21111123D01*
X42144819Y-21201628D01*
X42029628Y-21316819D01*
X41939123Y-21452269D01*
X41876782Y-21602773D01*
X41845000Y-21762548D01*
X41845000Y-21925452D01*
X41876782Y-22085227D01*
X41939123Y-22235731D01*
X42029628Y-22371181D01*
X42144819Y-22486372D01*
X42280269Y-22576877D01*
X42430773Y-22639218D01*
X42590548Y-22671000D01*
X42753452Y-22671000D01*
X42913227Y-22639218D01*
X43063731Y-22576877D01*
X43199181Y-22486372D01*
X43214553Y-22471000D01*
X43899208Y-22471000D01*
X43930002Y-22474033D01*
X43960796Y-22471000D01*
X44052915Y-22461927D01*
X44171105Y-22426075D01*
X44280030Y-22367853D01*
X44375503Y-22289501D01*
X44395140Y-22265573D01*
X44908694Y-21752020D01*
X52149334Y-21752020D01*
X52133245Y-21771624D01*
X52093595Y-21845804D01*
X52069178Y-21926293D01*
X52060934Y-22010000D01*
X52060934Y-23710000D01*
X52069178Y-23793707D01*
X52093595Y-23874196D01*
X52133245Y-23948376D01*
X52186605Y-24013395D01*
X52251624Y-24066755D01*
X52325804Y-24106405D01*
X52406293Y-24130822D01*
X52490000Y-24139066D01*
X52569035Y-24139066D01*
X52458645Y-24204822D01*
X52242412Y-24399731D01*
X52068359Y-24633080D01*
X51943175Y-24895901D01*
X51898524Y-25043110D01*
X52019845Y-25273000D01*
X53213000Y-25273000D01*
X53213000Y-25253000D01*
X53467000Y-25253000D01*
X53467000Y-25273000D01*
X54660155Y-25273000D01*
X54781476Y-25043110D01*
X54736825Y-24895901D01*
X54611641Y-24633080D01*
X54437588Y-24399731D01*
X54221355Y-24204822D01*
X54110965Y-24139066D01*
X54190000Y-24139066D01*
X54273707Y-24130822D01*
X54354196Y-24106405D01*
X54428376Y-24066755D01*
X54493395Y-24013395D01*
X54546755Y-23948376D01*
X54586405Y-23874196D01*
X54610822Y-23793707D01*
X54619066Y-23710000D01*
X54619066Y-22010000D01*
X54610822Y-21926293D01*
X54586405Y-21845804D01*
X54546755Y-21771624D01*
X54530666Y-21752020D01*
X56594334Y-21752020D01*
X56578245Y-21771624D01*
X56538595Y-21845804D01*
X56514178Y-21926293D01*
X56505934Y-22010000D01*
X56505934Y-23710000D01*
X56514178Y-23793707D01*
X56538595Y-23874196D01*
X56578245Y-23948376D01*
X56631605Y-24013395D01*
X56696624Y-24066755D01*
X56770804Y-24106405D01*
X56851293Y-24130822D01*
X56935000Y-24139066D01*
X57014035Y-24139066D01*
X56903645Y-24204822D01*
X56687412Y-24399731D01*
X56513359Y-24633080D01*
X56388175Y-24895901D01*
X56343524Y-25043110D01*
X56464845Y-25273000D01*
X57658000Y-25273000D01*
X57658000Y-25253000D01*
X57912000Y-25253000D01*
X57912000Y-25273000D01*
X59105155Y-25273000D01*
X59226476Y-25043110D01*
X59181825Y-24895901D01*
X59056641Y-24633080D01*
X58882588Y-24399731D01*
X58666355Y-24204822D01*
X58555965Y-24139066D01*
X58635000Y-24139066D01*
X58718707Y-24130822D01*
X58799196Y-24106405D01*
X58873376Y-24066755D01*
X58938395Y-24013395D01*
X58991755Y-23948376D01*
X59031405Y-23874196D01*
X59055822Y-23793707D01*
X59064066Y-23710000D01*
X59064066Y-22467646D01*
X59129682Y-22402030D01*
X62557383Y-22402030D01*
X62513123Y-22468269D01*
X62450782Y-22618773D01*
X62419000Y-22778548D01*
X62419000Y-22941452D01*
X62450782Y-23101227D01*
X62513123Y-23251731D01*
X62603628Y-23387181D01*
X62718819Y-23502372D01*
X62854269Y-23592877D01*
X63004773Y-23655218D01*
X63164548Y-23687000D01*
X63327452Y-23687000D01*
X63487227Y-23655218D01*
X63637731Y-23592877D01*
X63773181Y-23502372D01*
X63788553Y-23487000D01*
X68545447Y-23487000D01*
X68560819Y-23502372D01*
X68696269Y-23592877D01*
X68846773Y-23655218D01*
X69006548Y-23687000D01*
X69169452Y-23687000D01*
X69329227Y-23655218D01*
X69479731Y-23592877D01*
X69615181Y-23502372D01*
X69730372Y-23387181D01*
X69820877Y-23251731D01*
X69883218Y-23101227D01*
X69915000Y-22941452D01*
X69915000Y-22778548D01*
X69883218Y-22618773D01*
X69820877Y-22468269D01*
X69779233Y-22405944D01*
X69985001Y-22611712D01*
X69985000Y-23333447D01*
X69969628Y-23348819D01*
X69879123Y-23484269D01*
X69816782Y-23634773D01*
X69785000Y-23794548D01*
X69785000Y-23957452D01*
X69816782Y-24117227D01*
X69879123Y-24267731D01*
X69969628Y-24403181D01*
X70084819Y-24518372D01*
X70220269Y-24608877D01*
X70370773Y-24671218D01*
X70530548Y-24703000D01*
X70693452Y-24703000D01*
X70853227Y-24671218D01*
X71001001Y-24610008D01*
X71001001Y-25619446D01*
X70985628Y-25634819D01*
X70895123Y-25770269D01*
X70832782Y-25920773D01*
X70801000Y-26080548D01*
X70801000Y-26243452D01*
X70832782Y-26403227D01*
X70895123Y-26553731D01*
X70985628Y-26689181D01*
X71100819Y-26804372D01*
X71236269Y-26894877D01*
X71386773Y-26957218D01*
X71546548Y-26989000D01*
X71709452Y-26989000D01*
X71869227Y-26957218D01*
X72019731Y-26894877D01*
X72155181Y-26804372D01*
X72270372Y-26689181D01*
X72360877Y-26553731D01*
X72423218Y-26403227D01*
X72455000Y-26243452D01*
X72455000Y-26080548D01*
X72428295Y-25946295D01*
X72562548Y-25973000D01*
X72725452Y-25973000D01*
X72885227Y-25941218D01*
X73035731Y-25878877D01*
X73171181Y-25788372D01*
X73286372Y-25673181D01*
X73376877Y-25537731D01*
X73439218Y-25387227D01*
X73471000Y-25227452D01*
X73471000Y-25064548D01*
X73439218Y-24904773D01*
X73376877Y-24754269D01*
X73286372Y-24618819D01*
X73271000Y-24603447D01*
X73271000Y-23195431D01*
X113448866Y-23195431D01*
X113512366Y-23849293D01*
X113702208Y-24478203D01*
X114011096Y-25057992D01*
X114016172Y-25065589D01*
X114454626Y-25365769D01*
X116620395Y-23200000D01*
X114454626Y-21034231D01*
X114016172Y-21334411D01*
X113705704Y-21913356D01*
X113514148Y-22541746D01*
X113448866Y-23195431D01*
X73271000Y-23195431D01*
X73271000Y-21874793D01*
X73274033Y-21843999D01*
X73261927Y-21721087D01*
X73253983Y-21694898D01*
X73226075Y-21602897D01*
X73167853Y-21493972D01*
X73089501Y-21398499D01*
X73065579Y-21378867D01*
X72138711Y-20452000D01*
X114909882Y-20452000D01*
X114634231Y-20854626D01*
X116800000Y-23020395D01*
X116814143Y-23006253D01*
X116993748Y-23185858D01*
X116979605Y-23200000D01*
X119145374Y-25365769D01*
X119548000Y-25090118D01*
X119548001Y-54909883D01*
X119145374Y-54634231D01*
X116979605Y-56800000D01*
X116993748Y-56814143D01*
X116814143Y-56993748D01*
X116800000Y-56979605D01*
X114634231Y-59145374D01*
X114909882Y-59548000D01*
X25090118Y-59548000D01*
X25365769Y-59145374D01*
X23200000Y-56979605D01*
X23185858Y-56993748D01*
X23006253Y-56814143D01*
X23020395Y-56800000D01*
X23379605Y-56800000D01*
X25545374Y-58965769D01*
X25983828Y-58665589D01*
X26294296Y-58086644D01*
X26485852Y-57458254D01*
X26551134Y-56804569D01*
X26487634Y-56150707D01*
X26456028Y-56046000D01*
X61003967Y-56046000D01*
X61003967Y-57746000D01*
X61016073Y-57868913D01*
X61051925Y-57987103D01*
X61110147Y-58096028D01*
X61188499Y-58191501D01*
X61283972Y-58269853D01*
X61392897Y-58328075D01*
X61511087Y-58363927D01*
X61634000Y-58376033D01*
X63334000Y-58376033D01*
X63456913Y-58363927D01*
X63575103Y-58328075D01*
X63684028Y-58269853D01*
X63779501Y-58191501D01*
X63857853Y-58096028D01*
X63916075Y-57987103D01*
X63951927Y-57868913D01*
X63964033Y-57746000D01*
X63964033Y-56046000D01*
X76444934Y-56046000D01*
X76444934Y-57746000D01*
X76453178Y-57829707D01*
X76477595Y-57910196D01*
X76517245Y-57984376D01*
X76570605Y-58049395D01*
X76635624Y-58102755D01*
X76709804Y-58142405D01*
X76790293Y-58166822D01*
X76874000Y-58175066D01*
X78574000Y-58175066D01*
X78657707Y-58166822D01*
X78738196Y-58142405D01*
X78812376Y-58102755D01*
X78877395Y-58049395D01*
X78930755Y-57984376D01*
X78970405Y-57910196D01*
X78994822Y-57829707D01*
X79003066Y-57746000D01*
X79003066Y-56046000D01*
X81016934Y-56046000D01*
X81016934Y-57746000D01*
X81025178Y-57829707D01*
X81049595Y-57910196D01*
X81089245Y-57984376D01*
X81142605Y-58049395D01*
X81207624Y-58102755D01*
X81281804Y-58142405D01*
X81362293Y-58166822D01*
X81446000Y-58175066D01*
X83146000Y-58175066D01*
X83229707Y-58166822D01*
X83310196Y-58142405D01*
X83384376Y-58102755D01*
X83449395Y-58049395D01*
X83502755Y-57984376D01*
X83542405Y-57910196D01*
X83566822Y-57829707D01*
X83575066Y-57746000D01*
X83575066Y-57666965D01*
X83640822Y-57777355D01*
X83835731Y-57993588D01*
X84069080Y-58167641D01*
X84331901Y-58292825D01*
X84479110Y-58337476D01*
X84709000Y-58216155D01*
X84709000Y-57023000D01*
X84963000Y-57023000D01*
X84963000Y-58216155D01*
X85192890Y-58337476D01*
X85340099Y-58292825D01*
X85602920Y-58167641D01*
X85836269Y-57993588D01*
X86031178Y-57777355D01*
X86180157Y-57527252D01*
X86277481Y-57252891D01*
X86156814Y-57023000D01*
X84963000Y-57023000D01*
X84709000Y-57023000D01*
X84689000Y-57023000D01*
X84689000Y-56795431D01*
X113448866Y-56795431D01*
X113512366Y-57449293D01*
X113702208Y-58078203D01*
X114011096Y-58657992D01*
X114016172Y-58665589D01*
X114454626Y-58965769D01*
X116620395Y-56800000D01*
X114454626Y-54634231D01*
X114016172Y-54934411D01*
X113705704Y-55513356D01*
X113514148Y-56141746D01*
X113448866Y-56795431D01*
X84689000Y-56795431D01*
X84689000Y-56769000D01*
X84709000Y-56769000D01*
X84709000Y-55575845D01*
X84963000Y-55575845D01*
X84963000Y-56769000D01*
X86156814Y-56769000D01*
X86277481Y-56539109D01*
X86180157Y-56264748D01*
X86031178Y-56014645D01*
X85836269Y-55798412D01*
X85602920Y-55624359D01*
X85340099Y-55499175D01*
X85192890Y-55454524D01*
X84963000Y-55575845D01*
X84709000Y-55575845D01*
X84479110Y-55454524D01*
X84331901Y-55499175D01*
X84069080Y-55624359D01*
X83835731Y-55798412D01*
X83640822Y-56014645D01*
X83575066Y-56125035D01*
X83575066Y-56046000D01*
X83566822Y-55962293D01*
X83542405Y-55881804D01*
X83502755Y-55807624D01*
X83449395Y-55742605D01*
X83384376Y-55689245D01*
X83310196Y-55649595D01*
X83229707Y-55625178D01*
X83146000Y-55616934D01*
X81446000Y-55616934D01*
X81362293Y-55625178D01*
X81281804Y-55649595D01*
X81207624Y-55689245D01*
X81142605Y-55742605D01*
X81089245Y-55807624D01*
X81049595Y-55881804D01*
X81025178Y-55962293D01*
X81016934Y-56046000D01*
X79003066Y-56046000D01*
X78994822Y-55962293D01*
X78970405Y-55881804D01*
X78930755Y-55807624D01*
X78877395Y-55742605D01*
X78812376Y-55689245D01*
X78738196Y-55649595D01*
X78657707Y-55625178D01*
X78574000Y-55616934D01*
X76874000Y-55616934D01*
X76790293Y-55625178D01*
X76709804Y-55649595D01*
X76635624Y-55689245D01*
X76570605Y-55742605D01*
X76517245Y-55807624D01*
X76477595Y-55881804D01*
X76453178Y-55962293D01*
X76444934Y-56046000D01*
X63964033Y-56046000D01*
X63951927Y-55923087D01*
X63916075Y-55804897D01*
X63857853Y-55695972D01*
X63779501Y-55600499D01*
X63684028Y-55522147D01*
X63575103Y-55463925D01*
X63456913Y-55428073D01*
X63334000Y-55415967D01*
X61634000Y-55415967D01*
X61511087Y-55428073D01*
X61392897Y-55463925D01*
X61283972Y-55522147D01*
X61188499Y-55600499D01*
X61110147Y-55695972D01*
X61051925Y-55804897D01*
X61016073Y-55923087D01*
X61003967Y-56046000D01*
X26456028Y-56046000D01*
X26297792Y-55521797D01*
X25988904Y-54942008D01*
X25983828Y-54934411D01*
X25545374Y-54634231D01*
X23379605Y-56800000D01*
X23020395Y-56800000D01*
X20854626Y-54634231D01*
X20452000Y-54909882D01*
X20452000Y-54454626D01*
X21034231Y-54454626D01*
X23200000Y-56620395D01*
X25365769Y-54454626D01*
X114634231Y-54454626D01*
X116800000Y-56620395D01*
X118965769Y-54454626D01*
X118665589Y-54016172D01*
X118086644Y-53705704D01*
X117458254Y-53514148D01*
X116804569Y-53448866D01*
X116150707Y-53512366D01*
X115521797Y-53702208D01*
X114942008Y-54011096D01*
X114934411Y-54016172D01*
X114634231Y-54454626D01*
X25365769Y-54454626D01*
X25065589Y-54016172D01*
X24486644Y-53705704D01*
X23858254Y-53514148D01*
X23204569Y-53448866D01*
X22550707Y-53512366D01*
X21921797Y-53702208D01*
X21342008Y-54011096D01*
X21334411Y-54016172D01*
X21034231Y-54454626D01*
X20452000Y-54454626D01*
X20452000Y-50458000D01*
X53838934Y-50458000D01*
X53838934Y-52158000D01*
X53847178Y-52241707D01*
X53871595Y-52322196D01*
X53911245Y-52396376D01*
X53964605Y-52461395D01*
X54029624Y-52514755D01*
X54103804Y-52554405D01*
X54184293Y-52578822D01*
X54268000Y-52587066D01*
X55968000Y-52587066D01*
X56051707Y-52578822D01*
X56132196Y-52554405D01*
X56206376Y-52514755D01*
X56271395Y-52461395D01*
X56324755Y-52396376D01*
X56364405Y-52322196D01*
X56388822Y-52241707D01*
X56397066Y-52158000D01*
X56397066Y-52078965D01*
X56462822Y-52189355D01*
X56657731Y-52405588D01*
X56891080Y-52579641D01*
X57153901Y-52704825D01*
X57301110Y-52749476D01*
X57531000Y-52628155D01*
X57531000Y-51435000D01*
X57785000Y-51435000D01*
X57785000Y-52628155D01*
X58014890Y-52749476D01*
X58162099Y-52704825D01*
X58424920Y-52579641D01*
X58658269Y-52405588D01*
X58853178Y-52189355D01*
X59002157Y-51939252D01*
X59099481Y-51664891D01*
X58978814Y-51435000D01*
X57785000Y-51435000D01*
X57531000Y-51435000D01*
X57511000Y-51435000D01*
X57511000Y-51181000D01*
X57531000Y-51181000D01*
X57531000Y-49987845D01*
X57785000Y-49987845D01*
X57785000Y-51181000D01*
X58978814Y-51181000D01*
X59099481Y-50951109D01*
X59002157Y-50676748D01*
X58853178Y-50426645D01*
X58658269Y-50210412D01*
X58545100Y-50126000D01*
X76235928Y-50126000D01*
X76248188Y-50250482D01*
X76284498Y-50370180D01*
X76343463Y-50480494D01*
X76422815Y-50577185D01*
X76519506Y-50656537D01*
X76629820Y-50715502D01*
X76749518Y-50751812D01*
X76874000Y-50764072D01*
X77438250Y-50761000D01*
X77597000Y-50602250D01*
X77597000Y-49403000D01*
X77851000Y-49403000D01*
X77851000Y-50602250D01*
X78009750Y-50761000D01*
X78574000Y-50764072D01*
X78698482Y-50751812D01*
X78818180Y-50715502D01*
X78928494Y-50656537D01*
X79025185Y-50577185D01*
X79104537Y-50480494D01*
X79163502Y-50370180D01*
X79199812Y-50250482D01*
X79212072Y-50126000D01*
X79209000Y-49561750D01*
X79050250Y-49403000D01*
X77851000Y-49403000D01*
X77597000Y-49403000D01*
X76397750Y-49403000D01*
X76239000Y-49561750D01*
X76235928Y-50126000D01*
X58545100Y-50126000D01*
X58424920Y-50036359D01*
X58162099Y-49911175D01*
X58014890Y-49866524D01*
X57785000Y-49987845D01*
X57531000Y-49987845D01*
X57301110Y-49866524D01*
X57153901Y-49911175D01*
X56891080Y-50036359D01*
X56657731Y-50210412D01*
X56462822Y-50426645D01*
X56397066Y-50537035D01*
X56397066Y-50458000D01*
X56388822Y-50374293D01*
X56364405Y-50293804D01*
X56324755Y-50219624D01*
X56271395Y-50154605D01*
X56206376Y-50101245D01*
X56132196Y-50061595D01*
X56051707Y-50037178D01*
X55968000Y-50028934D01*
X54268000Y-50028934D01*
X54184293Y-50037178D01*
X54103804Y-50061595D01*
X54029624Y-50101245D01*
X53964605Y-50154605D01*
X53911245Y-50219624D01*
X53871595Y-50293804D01*
X53847178Y-50374293D01*
X53838934Y-50458000D01*
X20452000Y-50458000D01*
X20452000Y-48426000D01*
X76235928Y-48426000D01*
X76239000Y-48990250D01*
X76397750Y-49149000D01*
X77597000Y-49149000D01*
X77597000Y-47949750D01*
X77851000Y-47949750D01*
X77851000Y-49149000D01*
X79050250Y-49149000D01*
X79209000Y-48990250D01*
X79212072Y-48426000D01*
X79199812Y-48301518D01*
X79163502Y-48181820D01*
X79104537Y-48071506D01*
X79025185Y-47974815D01*
X78928494Y-47895463D01*
X78818180Y-47836498D01*
X78698482Y-47800188D01*
X78574000Y-47787928D01*
X78009750Y-47791000D01*
X77851000Y-47949750D01*
X77597000Y-47949750D01*
X77438250Y-47791000D01*
X76874000Y-47787928D01*
X76749518Y-47800188D01*
X76629820Y-47836498D01*
X76519506Y-47895463D01*
X76422815Y-47974815D01*
X76343463Y-48071506D01*
X76284498Y-48181820D01*
X76248188Y-48301518D01*
X76235928Y-48426000D01*
X20452000Y-48426000D01*
X20452000Y-44847249D01*
X25267450Y-44847249D01*
X25267450Y-45069859D01*
X25310879Y-45288192D01*
X25396068Y-45493857D01*
X25519744Y-45678951D01*
X25677153Y-45836360D01*
X25862247Y-45960036D01*
X26067912Y-46045225D01*
X26286245Y-46088654D01*
X26508855Y-46088654D01*
X26727188Y-46045225D01*
X26932853Y-45960036D01*
X27117947Y-45836360D01*
X27275356Y-45678951D01*
X27399032Y-45493857D01*
X27408105Y-45471951D01*
X27699900Y-45471951D01*
X27699900Y-45728049D01*
X27749862Y-45979225D01*
X27847866Y-46215828D01*
X27990146Y-46428766D01*
X28171234Y-46609854D01*
X28384172Y-46752134D01*
X28620775Y-46850138D01*
X28871951Y-46900100D01*
X29128049Y-46900100D01*
X29379225Y-46850138D01*
X29615828Y-46752134D01*
X29828766Y-46609854D01*
X30009854Y-46428766D01*
X30152134Y-46215828D01*
X30250138Y-45979225D01*
X30300100Y-45728049D01*
X30300100Y-45471951D01*
X30250138Y-45220775D01*
X30152134Y-44984172D01*
X30060646Y-44847249D01*
X30472350Y-44847249D01*
X30472350Y-45069859D01*
X30515779Y-45288192D01*
X30600968Y-45493857D01*
X30724644Y-45678951D01*
X30882053Y-45836360D01*
X31067147Y-45960036D01*
X31272812Y-46045225D01*
X31491145Y-46088654D01*
X31713755Y-46088654D01*
X31932088Y-46045225D01*
X32137753Y-45960036D01*
X32322847Y-45836360D01*
X32480256Y-45678951D01*
X32603932Y-45493857D01*
X32689121Y-45288192D01*
X32732550Y-45069859D01*
X32732550Y-44847249D01*
X47267450Y-44847249D01*
X47267450Y-45069859D01*
X47310879Y-45288192D01*
X47396068Y-45493857D01*
X47519744Y-45678951D01*
X47677153Y-45836360D01*
X47862247Y-45960036D01*
X48067912Y-46045225D01*
X48286245Y-46088654D01*
X48508855Y-46088654D01*
X48727188Y-46045225D01*
X48932853Y-45960036D01*
X49117947Y-45836360D01*
X49275356Y-45678951D01*
X49399032Y-45493857D01*
X49408105Y-45471951D01*
X49699900Y-45471951D01*
X49699900Y-45728049D01*
X49749862Y-45979225D01*
X49847866Y-46215828D01*
X49990146Y-46428766D01*
X50171234Y-46609854D01*
X50384172Y-46752134D01*
X50620775Y-46850138D01*
X50871951Y-46900100D01*
X51128049Y-46900100D01*
X51379225Y-46850138D01*
X51615828Y-46752134D01*
X51828766Y-46609854D01*
X52009854Y-46428766D01*
X52152134Y-46215828D01*
X52250138Y-45979225D01*
X52300100Y-45728049D01*
X52300100Y-45471951D01*
X52250138Y-45220775D01*
X52152134Y-44984172D01*
X52060646Y-44847249D01*
X52472350Y-44847249D01*
X52472350Y-45069859D01*
X52515779Y-45288192D01*
X52600968Y-45493857D01*
X52724644Y-45678951D01*
X52882053Y-45836360D01*
X53067147Y-45960036D01*
X53272812Y-46045225D01*
X53491145Y-46088654D01*
X53713755Y-46088654D01*
X53932088Y-46045225D01*
X54137753Y-45960036D01*
X54322847Y-45836360D01*
X54480256Y-45678951D01*
X54603932Y-45493857D01*
X54689121Y-45288192D01*
X54732550Y-45069859D01*
X54732550Y-44847249D01*
X54689121Y-44628916D01*
X54603932Y-44423251D01*
X54480256Y-44238157D01*
X54322847Y-44080748D01*
X54137753Y-43957072D01*
X53932088Y-43871883D01*
X53713755Y-43828454D01*
X53491145Y-43828454D01*
X53272812Y-43871883D01*
X53067147Y-43957072D01*
X52882053Y-44080748D01*
X52724644Y-44238157D01*
X52600968Y-44423251D01*
X52515779Y-44628916D01*
X52472350Y-44847249D01*
X52060646Y-44847249D01*
X52009854Y-44771234D01*
X51828766Y-44590146D01*
X51615828Y-44447866D01*
X51379225Y-44349862D01*
X51128049Y-44299900D01*
X50871951Y-44299900D01*
X50620775Y-44349862D01*
X50384172Y-44447866D01*
X50171234Y-44590146D01*
X49990146Y-44771234D01*
X49847866Y-44984172D01*
X49749862Y-45220775D01*
X49699900Y-45471951D01*
X49408105Y-45471951D01*
X49484221Y-45288192D01*
X49527650Y-45069859D01*
X49527650Y-44847249D01*
X49484221Y-44628916D01*
X49399032Y-44423251D01*
X49275356Y-44238157D01*
X49117947Y-44080748D01*
X48932853Y-43957072D01*
X48727188Y-43871883D01*
X48508855Y-43828454D01*
X48286245Y-43828454D01*
X48067912Y-43871883D01*
X47862247Y-43957072D01*
X47677153Y-44080748D01*
X47519744Y-44238157D01*
X47396068Y-44423251D01*
X47310879Y-44628916D01*
X47267450Y-44847249D01*
X32732550Y-44847249D01*
X32689121Y-44628916D01*
X32603932Y-44423251D01*
X32480256Y-44238157D01*
X32322847Y-44080748D01*
X32137753Y-43957072D01*
X31932088Y-43871883D01*
X31713755Y-43828454D01*
X31491145Y-43828454D01*
X31272812Y-43871883D01*
X31067147Y-43957072D01*
X30882053Y-44080748D01*
X30724644Y-44238157D01*
X30600968Y-44423251D01*
X30515779Y-44628916D01*
X30472350Y-44847249D01*
X30060646Y-44847249D01*
X30009854Y-44771234D01*
X29828766Y-44590146D01*
X29615828Y-44447866D01*
X29379225Y-44349862D01*
X29128049Y-44299900D01*
X28871951Y-44299900D01*
X28620775Y-44349862D01*
X28384172Y-44447866D01*
X28171234Y-44590146D01*
X27990146Y-44771234D01*
X27847866Y-44984172D01*
X27749862Y-45220775D01*
X27699900Y-45471951D01*
X27408105Y-45471951D01*
X27484221Y-45288192D01*
X27527650Y-45069859D01*
X27527650Y-44847249D01*
X27484221Y-44628916D01*
X27399032Y-44423251D01*
X27275356Y-44238157D01*
X27117947Y-44080748D01*
X26932853Y-43957072D01*
X26727188Y-43871883D01*
X26508855Y-43828454D01*
X26286245Y-43828454D01*
X26067912Y-43871883D01*
X25862247Y-43957072D01*
X25677153Y-44080748D01*
X25519744Y-44238157D01*
X25396068Y-44423251D01*
X25310879Y-44628916D01*
X25267450Y-44847249D01*
X20452000Y-44847249D01*
X20452000Y-43069858D01*
X23261190Y-43069858D01*
X23261190Y-43292468D01*
X23304619Y-43510801D01*
X23389808Y-43716466D01*
X23513484Y-43901560D01*
X23670893Y-44058969D01*
X23855987Y-44182645D01*
X24061652Y-44267834D01*
X24279985Y-44311263D01*
X24502595Y-44311263D01*
X24720928Y-44267834D01*
X24926593Y-44182645D01*
X25111687Y-44058969D01*
X25269096Y-43901560D01*
X25392772Y-43716466D01*
X25477961Y-43510801D01*
X25521390Y-43292468D01*
X25521390Y-43069858D01*
X32478610Y-43069858D01*
X32478610Y-43292468D01*
X32522039Y-43510801D01*
X32607228Y-43716466D01*
X32730904Y-43901560D01*
X32888313Y-44058969D01*
X33073407Y-44182645D01*
X33279072Y-44267834D01*
X33497405Y-44311263D01*
X33720015Y-44311263D01*
X33938348Y-44267834D01*
X34144013Y-44182645D01*
X34329107Y-44058969D01*
X34486516Y-43901560D01*
X34610192Y-43716466D01*
X34695381Y-43510801D01*
X34738810Y-43292468D01*
X34738810Y-43069858D01*
X45261190Y-43069858D01*
X45261190Y-43292468D01*
X45304619Y-43510801D01*
X45389808Y-43716466D01*
X45513484Y-43901560D01*
X45670893Y-44058969D01*
X45855987Y-44182645D01*
X46061652Y-44267834D01*
X46279985Y-44311263D01*
X46502595Y-44311263D01*
X46720928Y-44267834D01*
X46926593Y-44182645D01*
X47111687Y-44058969D01*
X47269096Y-43901560D01*
X47392772Y-43716466D01*
X47477961Y-43510801D01*
X47521390Y-43292468D01*
X47521390Y-43069858D01*
X54478610Y-43069858D01*
X54478610Y-43292468D01*
X54522039Y-43510801D01*
X54607228Y-43716466D01*
X54730904Y-43901560D01*
X54888313Y-44058969D01*
X55073407Y-44182645D01*
X55279072Y-44267834D01*
X55497405Y-44311263D01*
X55720015Y-44311263D01*
X55938348Y-44267834D01*
X56144013Y-44182645D01*
X56329107Y-44058969D01*
X56486516Y-43901560D01*
X56610192Y-43716466D01*
X56695381Y-43510801D01*
X56738810Y-43292468D01*
X56738810Y-43069858D01*
X56695381Y-42851525D01*
X56610192Y-42645860D01*
X56486516Y-42460766D01*
X56329107Y-42303357D01*
X56144013Y-42179681D01*
X55938348Y-42094492D01*
X55720015Y-42051063D01*
X55497405Y-42051063D01*
X55279072Y-42094492D01*
X55073407Y-42179681D01*
X54888313Y-42303357D01*
X54730904Y-42460766D01*
X54607228Y-42645860D01*
X54522039Y-42851525D01*
X54478610Y-43069858D01*
X47521390Y-43069858D01*
X47477961Y-42851525D01*
X47392772Y-42645860D01*
X47269096Y-42460766D01*
X47111687Y-42303357D01*
X46926593Y-42179681D01*
X46720928Y-42094492D01*
X46502595Y-42051063D01*
X46279985Y-42051063D01*
X46061652Y-42094492D01*
X45855987Y-42179681D01*
X45670893Y-42303357D01*
X45513484Y-42460766D01*
X45389808Y-42645860D01*
X45304619Y-42851525D01*
X45261190Y-43069858D01*
X34738810Y-43069858D01*
X34695381Y-42851525D01*
X34610192Y-42645860D01*
X34486516Y-42460766D01*
X34329107Y-42303357D01*
X34144013Y-42179681D01*
X33938348Y-42094492D01*
X33720015Y-42051063D01*
X33497405Y-42051063D01*
X33279072Y-42094492D01*
X33073407Y-42179681D01*
X32888313Y-42303357D01*
X32730904Y-42460766D01*
X32607228Y-42645860D01*
X32522039Y-42851525D01*
X32478610Y-43069858D01*
X25521390Y-43069858D01*
X25477961Y-42851525D01*
X25392772Y-42645860D01*
X25269096Y-42460766D01*
X25111687Y-42303357D01*
X24926593Y-42179681D01*
X24720928Y-42094492D01*
X24502595Y-42051063D01*
X24279985Y-42051063D01*
X24061652Y-42094492D01*
X23855987Y-42179681D01*
X23670893Y-42303357D01*
X23513484Y-42460766D01*
X23389808Y-42645860D01*
X23304619Y-42851525D01*
X23261190Y-43069858D01*
X20452000Y-43069858D01*
X20452000Y-40563700D01*
X22310730Y-40563700D01*
X22310730Y-40786310D01*
X22354159Y-41004643D01*
X22439348Y-41210308D01*
X22563024Y-41395402D01*
X22720433Y-41552811D01*
X22905527Y-41676487D01*
X23111192Y-41761676D01*
X23329525Y-41805105D01*
X23552135Y-41805105D01*
X23770468Y-41761676D01*
X23976133Y-41676487D01*
X24161227Y-41552811D01*
X24318636Y-41395402D01*
X24442312Y-41210308D01*
X24527501Y-41004643D01*
X24570930Y-40786310D01*
X24570930Y-40563700D01*
X33429070Y-40563700D01*
X33429070Y-40786310D01*
X33472499Y-41004643D01*
X33557688Y-41210308D01*
X33681364Y-41395402D01*
X33838773Y-41552811D01*
X34023867Y-41676487D01*
X34229532Y-41761676D01*
X34447865Y-41805105D01*
X34670475Y-41805105D01*
X34888808Y-41761676D01*
X35094473Y-41676487D01*
X35279567Y-41552811D01*
X35436976Y-41395402D01*
X35560652Y-41210308D01*
X35645841Y-41004643D01*
X35689270Y-40786310D01*
X35689270Y-40563700D01*
X44310730Y-40563700D01*
X44310730Y-40786310D01*
X44354159Y-41004643D01*
X44439348Y-41210308D01*
X44563024Y-41395402D01*
X44720433Y-41552811D01*
X44905527Y-41676487D01*
X45111192Y-41761676D01*
X45329525Y-41805105D01*
X45552135Y-41805105D01*
X45770468Y-41761676D01*
X45976133Y-41676487D01*
X46161227Y-41552811D01*
X46318636Y-41395402D01*
X46442312Y-41210308D01*
X46527501Y-41004643D01*
X46570930Y-40786310D01*
X46570930Y-40563700D01*
X55429070Y-40563700D01*
X55429070Y-40786310D01*
X55472499Y-41004643D01*
X55557688Y-41210308D01*
X55681364Y-41395402D01*
X55838773Y-41552811D01*
X56023867Y-41676487D01*
X56229532Y-41761676D01*
X56447865Y-41805105D01*
X56670475Y-41805105D01*
X56888808Y-41761676D01*
X57094473Y-41676487D01*
X57279567Y-41552811D01*
X57436976Y-41395402D01*
X57560652Y-41210308D01*
X57645841Y-41004643D01*
X57689270Y-40786310D01*
X57689270Y-40563700D01*
X57688246Y-40558548D01*
X58228000Y-40558548D01*
X58228000Y-40721452D01*
X58259782Y-40881227D01*
X58322123Y-41031731D01*
X58412628Y-41167181D01*
X58428000Y-41182553D01*
X58428000Y-41244207D01*
X58428001Y-45812446D01*
X58412628Y-45827819D01*
X58322123Y-45963269D01*
X58259782Y-46113773D01*
X58228000Y-46273548D01*
X58228000Y-46436452D01*
X58259782Y-46596227D01*
X58322123Y-46746731D01*
X58412628Y-46882181D01*
X58527819Y-46997372D01*
X58663269Y-47087877D01*
X58813773Y-47150218D01*
X58973548Y-47182000D01*
X59136452Y-47182000D01*
X59296227Y-47150218D01*
X59446731Y-47087877D01*
X59582181Y-46997372D01*
X59697372Y-46882181D01*
X59787877Y-46746731D01*
X59850218Y-46596227D01*
X59882000Y-46436452D01*
X59882000Y-46273548D01*
X59850218Y-46113773D01*
X59787877Y-45963269D01*
X59697372Y-45827819D01*
X59682000Y-45812447D01*
X59682000Y-45046000D01*
X60995928Y-45046000D01*
X61008188Y-45170482D01*
X61044498Y-45290180D01*
X61103463Y-45400494D01*
X61182815Y-45497185D01*
X61279506Y-45576537D01*
X61389820Y-45635502D01*
X61509518Y-45671812D01*
X61634000Y-45684072D01*
X62198250Y-45681000D01*
X62357000Y-45522250D01*
X62357000Y-44323000D01*
X62611000Y-44323000D01*
X62611000Y-45522250D01*
X62769750Y-45681000D01*
X63334000Y-45684072D01*
X63458482Y-45671812D01*
X63578180Y-45635502D01*
X63688494Y-45576537D01*
X63785185Y-45497185D01*
X63864537Y-45400494D01*
X63923502Y-45290180D01*
X63959812Y-45170482D01*
X63972072Y-45046000D01*
X63970990Y-44847249D01*
X85267450Y-44847249D01*
X85267450Y-45069859D01*
X85310879Y-45288192D01*
X85396068Y-45493857D01*
X85519744Y-45678951D01*
X85677153Y-45836360D01*
X85862247Y-45960036D01*
X86067912Y-46045225D01*
X86286245Y-46088654D01*
X86508855Y-46088654D01*
X86727188Y-46045225D01*
X86932853Y-45960036D01*
X87117947Y-45836360D01*
X87275356Y-45678951D01*
X87399032Y-45493857D01*
X87408105Y-45471951D01*
X87699900Y-45471951D01*
X87699900Y-45728049D01*
X87749862Y-45979225D01*
X87847866Y-46215828D01*
X87990146Y-46428766D01*
X88171234Y-46609854D01*
X88384172Y-46752134D01*
X88620775Y-46850138D01*
X88871951Y-46900100D01*
X89128049Y-46900100D01*
X89379225Y-46850138D01*
X89615828Y-46752134D01*
X89828766Y-46609854D01*
X90009854Y-46428766D01*
X90152134Y-46215828D01*
X90250138Y-45979225D01*
X90300100Y-45728049D01*
X90300100Y-45471951D01*
X90250138Y-45220775D01*
X90152134Y-44984172D01*
X90060646Y-44847249D01*
X90472350Y-44847249D01*
X90472350Y-45069859D01*
X90515779Y-45288192D01*
X90600968Y-45493857D01*
X90724644Y-45678951D01*
X90882053Y-45836360D01*
X91067147Y-45960036D01*
X91272812Y-46045225D01*
X91491145Y-46088654D01*
X91713755Y-46088654D01*
X91932088Y-46045225D01*
X92137753Y-45960036D01*
X92322847Y-45836360D01*
X92480256Y-45678951D01*
X92603932Y-45493857D01*
X92689121Y-45288192D01*
X92732550Y-45069859D01*
X92732550Y-44847249D01*
X107267450Y-44847249D01*
X107267450Y-45069859D01*
X107310879Y-45288192D01*
X107396068Y-45493857D01*
X107519744Y-45678951D01*
X107677153Y-45836360D01*
X107862247Y-45960036D01*
X108067912Y-46045225D01*
X108286245Y-46088654D01*
X108508855Y-46088654D01*
X108727188Y-46045225D01*
X108932853Y-45960036D01*
X109117947Y-45836360D01*
X109275356Y-45678951D01*
X109399032Y-45493857D01*
X109408105Y-45471951D01*
X109699900Y-45471951D01*
X109699900Y-45728049D01*
X109749862Y-45979225D01*
X109847866Y-46215828D01*
X109990146Y-46428766D01*
X110171234Y-46609854D01*
X110384172Y-46752134D01*
X110620775Y-46850138D01*
X110871951Y-46900100D01*
X111128049Y-46900100D01*
X111379225Y-46850138D01*
X111615828Y-46752134D01*
X111828766Y-46609854D01*
X112009854Y-46428766D01*
X112152134Y-46215828D01*
X112250138Y-45979225D01*
X112300100Y-45728049D01*
X112300100Y-45471951D01*
X112250138Y-45220775D01*
X112152134Y-44984172D01*
X112060646Y-44847249D01*
X112472350Y-44847249D01*
X112472350Y-45069859D01*
X112515779Y-45288192D01*
X112600968Y-45493857D01*
X112724644Y-45678951D01*
X112882053Y-45836360D01*
X113067147Y-45960036D01*
X113272812Y-46045225D01*
X113491145Y-46088654D01*
X113713755Y-46088654D01*
X113932088Y-46045225D01*
X114137753Y-45960036D01*
X114322847Y-45836360D01*
X114480256Y-45678951D01*
X114603932Y-45493857D01*
X114689121Y-45288192D01*
X114732550Y-45069859D01*
X114732550Y-44847249D01*
X114689121Y-44628916D01*
X114603932Y-44423251D01*
X114480256Y-44238157D01*
X114322847Y-44080748D01*
X114137753Y-43957072D01*
X113932088Y-43871883D01*
X113713755Y-43828454D01*
X113491145Y-43828454D01*
X113272812Y-43871883D01*
X113067147Y-43957072D01*
X112882053Y-44080748D01*
X112724644Y-44238157D01*
X112600968Y-44423251D01*
X112515779Y-44628916D01*
X112472350Y-44847249D01*
X112060646Y-44847249D01*
X112009854Y-44771234D01*
X111828766Y-44590146D01*
X111615828Y-44447866D01*
X111379225Y-44349862D01*
X111128049Y-44299900D01*
X110871951Y-44299900D01*
X110620775Y-44349862D01*
X110384172Y-44447866D01*
X110171234Y-44590146D01*
X109990146Y-44771234D01*
X109847866Y-44984172D01*
X109749862Y-45220775D01*
X109699900Y-45471951D01*
X109408105Y-45471951D01*
X109484221Y-45288192D01*
X109527650Y-45069859D01*
X109527650Y-44847249D01*
X109484221Y-44628916D01*
X109399032Y-44423251D01*
X109275356Y-44238157D01*
X109117947Y-44080748D01*
X108932853Y-43957072D01*
X108727188Y-43871883D01*
X108508855Y-43828454D01*
X108286245Y-43828454D01*
X108067912Y-43871883D01*
X107862247Y-43957072D01*
X107677153Y-44080748D01*
X107519744Y-44238157D01*
X107396068Y-44423251D01*
X107310879Y-44628916D01*
X107267450Y-44847249D01*
X92732550Y-44847249D01*
X92689121Y-44628916D01*
X92603932Y-44423251D01*
X92480256Y-44238157D01*
X92322847Y-44080748D01*
X92137753Y-43957072D01*
X91932088Y-43871883D01*
X91713755Y-43828454D01*
X91491145Y-43828454D01*
X91272812Y-43871883D01*
X91067147Y-43957072D01*
X90882053Y-44080748D01*
X90724644Y-44238157D01*
X90600968Y-44423251D01*
X90515779Y-44628916D01*
X90472350Y-44847249D01*
X90060646Y-44847249D01*
X90009854Y-44771234D01*
X89828766Y-44590146D01*
X89615828Y-44447866D01*
X89379225Y-44349862D01*
X89128049Y-44299900D01*
X88871951Y-44299900D01*
X88620775Y-44349862D01*
X88384172Y-44447866D01*
X88171234Y-44590146D01*
X87990146Y-44771234D01*
X87847866Y-44984172D01*
X87749862Y-45220775D01*
X87699900Y-45471951D01*
X87408105Y-45471951D01*
X87484221Y-45288192D01*
X87527650Y-45069859D01*
X87527650Y-44847249D01*
X87484221Y-44628916D01*
X87399032Y-44423251D01*
X87275356Y-44238157D01*
X87117947Y-44080748D01*
X86932853Y-43957072D01*
X86727188Y-43871883D01*
X86508855Y-43828454D01*
X86286245Y-43828454D01*
X86067912Y-43871883D01*
X85862247Y-43957072D01*
X85677153Y-44080748D01*
X85519744Y-44238157D01*
X85396068Y-44423251D01*
X85310879Y-44628916D01*
X85267450Y-44847249D01*
X63970990Y-44847249D01*
X63969000Y-44481750D01*
X63810250Y-44323000D01*
X62611000Y-44323000D01*
X62357000Y-44323000D01*
X61157750Y-44323000D01*
X60999000Y-44481750D01*
X60995928Y-45046000D01*
X59682000Y-45046000D01*
X59682000Y-43346000D01*
X60995928Y-43346000D01*
X60999000Y-43910250D01*
X61157750Y-44069000D01*
X62357000Y-44069000D01*
X62357000Y-42869750D01*
X62611000Y-42869750D01*
X62611000Y-44069000D01*
X63810250Y-44069000D01*
X63969000Y-43910250D01*
X63972072Y-43346000D01*
X63959812Y-43221518D01*
X63923502Y-43101820D01*
X63906418Y-43069858D01*
X83261190Y-43069858D01*
X83261190Y-43292468D01*
X83304619Y-43510801D01*
X83389808Y-43716466D01*
X83513484Y-43901560D01*
X83670893Y-44058969D01*
X83855987Y-44182645D01*
X84061652Y-44267834D01*
X84279985Y-44311263D01*
X84502595Y-44311263D01*
X84720928Y-44267834D01*
X84926593Y-44182645D01*
X85111687Y-44058969D01*
X85269096Y-43901560D01*
X85392772Y-43716466D01*
X85477961Y-43510801D01*
X85521390Y-43292468D01*
X85521390Y-43069858D01*
X92478610Y-43069858D01*
X92478610Y-43292468D01*
X92522039Y-43510801D01*
X92607228Y-43716466D01*
X92730904Y-43901560D01*
X92888313Y-44058969D01*
X93073407Y-44182645D01*
X93279072Y-44267834D01*
X93497405Y-44311263D01*
X93720015Y-44311263D01*
X93938348Y-44267834D01*
X94144013Y-44182645D01*
X94329107Y-44058969D01*
X94486516Y-43901560D01*
X94610192Y-43716466D01*
X94695381Y-43510801D01*
X94738810Y-43292468D01*
X94738810Y-43069858D01*
X105261190Y-43069858D01*
X105261190Y-43292468D01*
X105304619Y-43510801D01*
X105389808Y-43716466D01*
X105513484Y-43901560D01*
X105670893Y-44058969D01*
X105855987Y-44182645D01*
X106061652Y-44267834D01*
X106279985Y-44311263D01*
X106502595Y-44311263D01*
X106720928Y-44267834D01*
X106926593Y-44182645D01*
X107111687Y-44058969D01*
X107269096Y-43901560D01*
X107392772Y-43716466D01*
X107477961Y-43510801D01*
X107521390Y-43292468D01*
X107521390Y-43069858D01*
X114478610Y-43069858D01*
X114478610Y-43292468D01*
X114522039Y-43510801D01*
X114607228Y-43716466D01*
X114730904Y-43901560D01*
X114888313Y-44058969D01*
X115073407Y-44182645D01*
X115279072Y-44267834D01*
X115497405Y-44311263D01*
X115720015Y-44311263D01*
X115938348Y-44267834D01*
X116144013Y-44182645D01*
X116329107Y-44058969D01*
X116486516Y-43901560D01*
X116610192Y-43716466D01*
X116695381Y-43510801D01*
X116738810Y-43292468D01*
X116738810Y-43069858D01*
X116695381Y-42851525D01*
X116610192Y-42645860D01*
X116486516Y-42460766D01*
X116329107Y-42303357D01*
X116144013Y-42179681D01*
X115938348Y-42094492D01*
X115720015Y-42051063D01*
X115497405Y-42051063D01*
X115279072Y-42094492D01*
X115073407Y-42179681D01*
X114888313Y-42303357D01*
X114730904Y-42460766D01*
X114607228Y-42645860D01*
X114522039Y-42851525D01*
X114478610Y-43069858D01*
X107521390Y-43069858D01*
X107477961Y-42851525D01*
X107392772Y-42645860D01*
X107269096Y-42460766D01*
X107111687Y-42303357D01*
X106926593Y-42179681D01*
X106720928Y-42094492D01*
X106502595Y-42051063D01*
X106279985Y-42051063D01*
X106061652Y-42094492D01*
X105855987Y-42179681D01*
X105670893Y-42303357D01*
X105513484Y-42460766D01*
X105389808Y-42645860D01*
X105304619Y-42851525D01*
X105261190Y-43069858D01*
X94738810Y-43069858D01*
X94695381Y-42851525D01*
X94610192Y-42645860D01*
X94486516Y-42460766D01*
X94329107Y-42303357D01*
X94144013Y-42179681D01*
X93938348Y-42094492D01*
X93720015Y-42051063D01*
X93497405Y-42051063D01*
X93279072Y-42094492D01*
X93073407Y-42179681D01*
X92888313Y-42303357D01*
X92730904Y-42460766D01*
X92607228Y-42645860D01*
X92522039Y-42851525D01*
X92478610Y-43069858D01*
X85521390Y-43069858D01*
X85477961Y-42851525D01*
X85392772Y-42645860D01*
X85269096Y-42460766D01*
X85111687Y-42303357D01*
X84926593Y-42179681D01*
X84720928Y-42094492D01*
X84502595Y-42051063D01*
X84279985Y-42051063D01*
X84061652Y-42094492D01*
X83855987Y-42179681D01*
X83670893Y-42303357D01*
X83513484Y-42460766D01*
X83389808Y-42645860D01*
X83304619Y-42851525D01*
X83261190Y-43069858D01*
X63906418Y-43069858D01*
X63864537Y-42991506D01*
X63785185Y-42894815D01*
X63688494Y-42815463D01*
X63578180Y-42756498D01*
X63458482Y-42720188D01*
X63334000Y-42707928D01*
X62769750Y-42711000D01*
X62611000Y-42869750D01*
X62357000Y-42869750D01*
X62198250Y-42711000D01*
X61634000Y-42707928D01*
X61509518Y-42720188D01*
X61389820Y-42756498D01*
X61279506Y-42815463D01*
X61182815Y-42894815D01*
X61103463Y-42991506D01*
X61044498Y-43101820D01*
X61008188Y-43221518D01*
X60995928Y-43346000D01*
X59682000Y-43346000D01*
X59682000Y-41182553D01*
X59697372Y-41167181D01*
X59787877Y-41031731D01*
X59850218Y-40881227D01*
X59882000Y-40721452D01*
X59882000Y-40558548D01*
X59850218Y-40398773D01*
X59787877Y-40248269D01*
X59697372Y-40112819D01*
X59582181Y-39997628D01*
X59446731Y-39907123D01*
X59343534Y-39864377D01*
X67353000Y-39864377D01*
X67353000Y-40135623D01*
X67405917Y-40401656D01*
X67509718Y-40652254D01*
X67660414Y-40877787D01*
X67852213Y-41069586D01*
X68077746Y-41220282D01*
X68328344Y-41324083D01*
X68594377Y-41377000D01*
X68865623Y-41377000D01*
X69131656Y-41324083D01*
X69382254Y-41220282D01*
X69607787Y-41069586D01*
X69799586Y-40877787D01*
X69950282Y-40652254D01*
X70054083Y-40401656D01*
X70086665Y-40237853D01*
X70109384Y-40352069D01*
X70200371Y-40571729D01*
X70332462Y-40769418D01*
X70500582Y-40937538D01*
X70698271Y-41069629D01*
X70917931Y-41160616D01*
X71151121Y-41207000D01*
X71388879Y-41207000D01*
X71622069Y-41160616D01*
X71841729Y-41069629D01*
X72039418Y-40937538D01*
X72207538Y-40769418D01*
X72339629Y-40571729D01*
X72342954Y-40563700D01*
X82310730Y-40563700D01*
X82310730Y-40786310D01*
X82354159Y-41004643D01*
X82439348Y-41210308D01*
X82563024Y-41395402D01*
X82720433Y-41552811D01*
X82905527Y-41676487D01*
X83111192Y-41761676D01*
X83329525Y-41805105D01*
X83552135Y-41805105D01*
X83770468Y-41761676D01*
X83976133Y-41676487D01*
X84161227Y-41552811D01*
X84318636Y-41395402D01*
X84442312Y-41210308D01*
X84527501Y-41004643D01*
X84570930Y-40786310D01*
X84570930Y-40563700D01*
X93429070Y-40563700D01*
X93429070Y-40786310D01*
X93472499Y-41004643D01*
X93557688Y-41210308D01*
X93681364Y-41395402D01*
X93838773Y-41552811D01*
X94023867Y-41676487D01*
X94229532Y-41761676D01*
X94447865Y-41805105D01*
X94670475Y-41805105D01*
X94888808Y-41761676D01*
X95094473Y-41676487D01*
X95279567Y-41552811D01*
X95436976Y-41395402D01*
X95560652Y-41210308D01*
X95645841Y-41004643D01*
X95689270Y-40786310D01*
X95689270Y-40563700D01*
X104310730Y-40563700D01*
X104310730Y-40786310D01*
X104354159Y-41004643D01*
X104439348Y-41210308D01*
X104563024Y-41395402D01*
X104720433Y-41552811D01*
X104905527Y-41676487D01*
X105111192Y-41761676D01*
X105329525Y-41805105D01*
X105552135Y-41805105D01*
X105770468Y-41761676D01*
X105976133Y-41676487D01*
X106161227Y-41552811D01*
X106318636Y-41395402D01*
X106442312Y-41210308D01*
X106527501Y-41004643D01*
X106570930Y-40786310D01*
X106570930Y-40563700D01*
X115429070Y-40563700D01*
X115429070Y-40786310D01*
X115472499Y-41004643D01*
X115557688Y-41210308D01*
X115681364Y-41395402D01*
X115838773Y-41552811D01*
X116023867Y-41676487D01*
X116229532Y-41761676D01*
X116447865Y-41805105D01*
X116670475Y-41805105D01*
X116888808Y-41761676D01*
X117094473Y-41676487D01*
X117279567Y-41552811D01*
X117436976Y-41395402D01*
X117560652Y-41210308D01*
X117645841Y-41004643D01*
X117689270Y-40786310D01*
X117689270Y-40563700D01*
X117645841Y-40345367D01*
X117560652Y-40139702D01*
X117436976Y-39954608D01*
X117279567Y-39797199D01*
X117094473Y-39673523D01*
X116888808Y-39588334D01*
X116670475Y-39544905D01*
X116447865Y-39544905D01*
X116229532Y-39588334D01*
X116023867Y-39673523D01*
X115838773Y-39797199D01*
X115681364Y-39954608D01*
X115557688Y-40139702D01*
X115472499Y-40345367D01*
X115429070Y-40563700D01*
X106570930Y-40563700D01*
X106527501Y-40345367D01*
X106442312Y-40139702D01*
X106318636Y-39954608D01*
X106161227Y-39797199D01*
X105976133Y-39673523D01*
X105770468Y-39588334D01*
X105552135Y-39544905D01*
X105329525Y-39544905D01*
X105111192Y-39588334D01*
X104905527Y-39673523D01*
X104720433Y-39797199D01*
X104563024Y-39954608D01*
X104439348Y-40139702D01*
X104354159Y-40345367D01*
X104310730Y-40563700D01*
X95689270Y-40563700D01*
X95645841Y-40345367D01*
X95560652Y-40139702D01*
X95436976Y-39954608D01*
X95279567Y-39797199D01*
X95094473Y-39673523D01*
X94888808Y-39588334D01*
X94670475Y-39544905D01*
X94447865Y-39544905D01*
X94229532Y-39588334D01*
X94023867Y-39673523D01*
X93838773Y-39797199D01*
X93681364Y-39954608D01*
X93557688Y-40139702D01*
X93472499Y-40345367D01*
X93429070Y-40563700D01*
X84570930Y-40563700D01*
X84527501Y-40345367D01*
X84442312Y-40139702D01*
X84318636Y-39954608D01*
X84161227Y-39797199D01*
X83976133Y-39673523D01*
X83770468Y-39588334D01*
X83552135Y-39544905D01*
X83329525Y-39544905D01*
X83111192Y-39588334D01*
X82905527Y-39673523D01*
X82720433Y-39797199D01*
X82563024Y-39954608D01*
X82439348Y-40139702D01*
X82354159Y-40345367D01*
X82310730Y-40563700D01*
X72342954Y-40563700D01*
X72430616Y-40352069D01*
X72477000Y-40118879D01*
X72477000Y-39881121D01*
X72430616Y-39647931D01*
X72339629Y-39428271D01*
X72207538Y-39230582D01*
X72039418Y-39062462D01*
X71841729Y-38930371D01*
X71622069Y-38839384D01*
X71388879Y-38793000D01*
X71151121Y-38793000D01*
X70917931Y-38839384D01*
X70698271Y-38930371D01*
X70500582Y-39062462D01*
X70332462Y-39230582D01*
X70200371Y-39428271D01*
X70109384Y-39647931D01*
X70086665Y-39762147D01*
X70054083Y-39598344D01*
X69950282Y-39347746D01*
X69799586Y-39122213D01*
X69607787Y-38930414D01*
X69382254Y-38779718D01*
X69131656Y-38675917D01*
X68865623Y-38623000D01*
X68594377Y-38623000D01*
X68328344Y-38675917D01*
X68077746Y-38779718D01*
X67852213Y-38930414D01*
X67660414Y-39122213D01*
X67509718Y-39347746D01*
X67405917Y-39598344D01*
X67353000Y-39864377D01*
X59343534Y-39864377D01*
X59296227Y-39844782D01*
X59136452Y-39813000D01*
X58973548Y-39813000D01*
X58813773Y-39844782D01*
X58663269Y-39907123D01*
X58527819Y-39997628D01*
X58412628Y-40112819D01*
X58322123Y-40248269D01*
X58259782Y-40398773D01*
X58228000Y-40558548D01*
X57688246Y-40558548D01*
X57645841Y-40345367D01*
X57560652Y-40139702D01*
X57436976Y-39954608D01*
X57279567Y-39797199D01*
X57094473Y-39673523D01*
X56888808Y-39588334D01*
X56670475Y-39544905D01*
X56447865Y-39544905D01*
X56229532Y-39588334D01*
X56023867Y-39673523D01*
X55838773Y-39797199D01*
X55681364Y-39954608D01*
X55557688Y-40139702D01*
X55472499Y-40345367D01*
X55429070Y-40563700D01*
X46570930Y-40563700D01*
X46527501Y-40345367D01*
X46442312Y-40139702D01*
X46318636Y-39954608D01*
X46161227Y-39797199D01*
X45976133Y-39673523D01*
X45770468Y-39588334D01*
X45552135Y-39544905D01*
X45329525Y-39544905D01*
X45111192Y-39588334D01*
X44905527Y-39673523D01*
X44720433Y-39797199D01*
X44563024Y-39954608D01*
X44439348Y-40139702D01*
X44354159Y-40345367D01*
X44310730Y-40563700D01*
X35689270Y-40563700D01*
X35645841Y-40345367D01*
X35560652Y-40139702D01*
X35436976Y-39954608D01*
X35279567Y-39797199D01*
X35094473Y-39673523D01*
X34888808Y-39588334D01*
X34670475Y-39544905D01*
X34447865Y-39544905D01*
X34229532Y-39588334D01*
X34023867Y-39673523D01*
X33838773Y-39797199D01*
X33681364Y-39954608D01*
X33557688Y-40139702D01*
X33472499Y-40345367D01*
X33429070Y-40563700D01*
X24570930Y-40563700D01*
X24527501Y-40345367D01*
X24442312Y-40139702D01*
X24318636Y-39954608D01*
X24161227Y-39797199D01*
X23976133Y-39673523D01*
X23770468Y-39588334D01*
X23552135Y-39544905D01*
X23329525Y-39544905D01*
X23111192Y-39588334D01*
X22905527Y-39673523D01*
X22720433Y-39797199D01*
X22563024Y-39954608D01*
X22439348Y-40139702D01*
X22354159Y-40345367D01*
X22310730Y-40563700D01*
X20452000Y-40563700D01*
X20452000Y-37902908D01*
X22633809Y-37902908D01*
X22633809Y-38125518D01*
X22677238Y-38343851D01*
X22762427Y-38549516D01*
X22886103Y-38734610D01*
X23043512Y-38892019D01*
X23228606Y-39015695D01*
X23434271Y-39100884D01*
X23652604Y-39144313D01*
X23875214Y-39144313D01*
X24093547Y-39100884D01*
X24299212Y-39015695D01*
X24484306Y-38892019D01*
X24641715Y-38734610D01*
X24765391Y-38549516D01*
X24850580Y-38343851D01*
X24894009Y-38125518D01*
X24894009Y-37902908D01*
X33105991Y-37902908D01*
X33105991Y-38125518D01*
X33149420Y-38343851D01*
X33234609Y-38549516D01*
X33358285Y-38734610D01*
X33515694Y-38892019D01*
X33700788Y-39015695D01*
X33906453Y-39100884D01*
X34124786Y-39144313D01*
X34347396Y-39144313D01*
X34565729Y-39100884D01*
X34771394Y-39015695D01*
X34956488Y-38892019D01*
X35113897Y-38734610D01*
X35237573Y-38549516D01*
X35322762Y-38343851D01*
X35366191Y-38125518D01*
X35366191Y-37902908D01*
X44633809Y-37902908D01*
X44633809Y-38125518D01*
X44677238Y-38343851D01*
X44762427Y-38549516D01*
X44886103Y-38734610D01*
X45043512Y-38892019D01*
X45228606Y-39015695D01*
X45434271Y-39100884D01*
X45652604Y-39144313D01*
X45875214Y-39144313D01*
X46093547Y-39100884D01*
X46299212Y-39015695D01*
X46484306Y-38892019D01*
X46641715Y-38734610D01*
X46765391Y-38549516D01*
X46850580Y-38343851D01*
X46894009Y-38125518D01*
X46894009Y-37902908D01*
X55105991Y-37902908D01*
X55105991Y-38125518D01*
X55149420Y-38343851D01*
X55234609Y-38549516D01*
X55358285Y-38734610D01*
X55515694Y-38892019D01*
X55700788Y-39015695D01*
X55906453Y-39100884D01*
X56124786Y-39144313D01*
X56347396Y-39144313D01*
X56565729Y-39100884D01*
X56771394Y-39015695D01*
X56956488Y-38892019D01*
X57113897Y-38734610D01*
X57237573Y-38549516D01*
X57322762Y-38343851D01*
X57366191Y-38125518D01*
X57366191Y-38018548D01*
X58863000Y-38018548D01*
X58863000Y-38181452D01*
X58894782Y-38341227D01*
X58957123Y-38491731D01*
X59047628Y-38627181D01*
X59162819Y-38742372D01*
X59298269Y-38832877D01*
X59448773Y-38895218D01*
X59608548Y-38927000D01*
X59771452Y-38927000D01*
X59931227Y-38895218D01*
X60081731Y-38832877D01*
X60217181Y-38742372D01*
X60332372Y-38627181D01*
X60422877Y-38491731D01*
X60485218Y-38341227D01*
X60517000Y-38181452D01*
X60517000Y-38159711D01*
X60531572Y-38145139D01*
X60555500Y-38125502D01*
X60633852Y-38030029D01*
X60692074Y-37921104D01*
X60697593Y-37902908D01*
X82633809Y-37902908D01*
X82633809Y-38125518D01*
X82677238Y-38343851D01*
X82762427Y-38549516D01*
X82886103Y-38734610D01*
X83043512Y-38892019D01*
X83228606Y-39015695D01*
X83434271Y-39100884D01*
X83652604Y-39144313D01*
X83875214Y-39144313D01*
X84093547Y-39100884D01*
X84299212Y-39015695D01*
X84484306Y-38892019D01*
X84641715Y-38734610D01*
X84765391Y-38549516D01*
X84850580Y-38343851D01*
X84894009Y-38125518D01*
X84894009Y-37902908D01*
X93105991Y-37902908D01*
X93105991Y-38125518D01*
X93149420Y-38343851D01*
X93234609Y-38549516D01*
X93358285Y-38734610D01*
X93515694Y-38892019D01*
X93700788Y-39015695D01*
X93906453Y-39100884D01*
X94124786Y-39144313D01*
X94347396Y-39144313D01*
X94565729Y-39100884D01*
X94771394Y-39015695D01*
X94956488Y-38892019D01*
X95113897Y-38734610D01*
X95237573Y-38549516D01*
X95322762Y-38343851D01*
X95366191Y-38125518D01*
X95366191Y-37902908D01*
X104633809Y-37902908D01*
X104633809Y-38125518D01*
X104677238Y-38343851D01*
X104762427Y-38549516D01*
X104886103Y-38734610D01*
X105043512Y-38892019D01*
X105228606Y-39015695D01*
X105434271Y-39100884D01*
X105652604Y-39144313D01*
X105875214Y-39144313D01*
X106093547Y-39100884D01*
X106299212Y-39015695D01*
X106484306Y-38892019D01*
X106641715Y-38734610D01*
X106765391Y-38549516D01*
X106850580Y-38343851D01*
X106894009Y-38125518D01*
X106894009Y-37902908D01*
X115105991Y-37902908D01*
X115105991Y-38125518D01*
X115149420Y-38343851D01*
X115234609Y-38549516D01*
X115358285Y-38734610D01*
X115515694Y-38892019D01*
X115700788Y-39015695D01*
X115906453Y-39100884D01*
X116124786Y-39144313D01*
X116347396Y-39144313D01*
X116565729Y-39100884D01*
X116771394Y-39015695D01*
X116956488Y-38892019D01*
X117113897Y-38734610D01*
X117237573Y-38549516D01*
X117322762Y-38343851D01*
X117366191Y-38125518D01*
X117366191Y-37902908D01*
X117322762Y-37684575D01*
X117237573Y-37478910D01*
X117113897Y-37293816D01*
X116956488Y-37136407D01*
X116771394Y-37012731D01*
X116565729Y-36927542D01*
X116347396Y-36884113D01*
X116124786Y-36884113D01*
X115906453Y-36927542D01*
X115700788Y-37012731D01*
X115515694Y-37136407D01*
X115358285Y-37293816D01*
X115234609Y-37478910D01*
X115149420Y-37684575D01*
X115105991Y-37902908D01*
X106894009Y-37902908D01*
X106850580Y-37684575D01*
X106765391Y-37478910D01*
X106641715Y-37293816D01*
X106484306Y-37136407D01*
X106299212Y-37012731D01*
X106093547Y-36927542D01*
X105875214Y-36884113D01*
X105652604Y-36884113D01*
X105434271Y-36927542D01*
X105228606Y-37012731D01*
X105043512Y-37136407D01*
X104886103Y-37293816D01*
X104762427Y-37478910D01*
X104677238Y-37684575D01*
X104633809Y-37902908D01*
X95366191Y-37902908D01*
X95322762Y-37684575D01*
X95237573Y-37478910D01*
X95113897Y-37293816D01*
X94956488Y-37136407D01*
X94771394Y-37012731D01*
X94565729Y-36927542D01*
X94347396Y-36884113D01*
X94124786Y-36884113D01*
X93906453Y-36927542D01*
X93700788Y-37012731D01*
X93515694Y-37136407D01*
X93358285Y-37293816D01*
X93234609Y-37478910D01*
X93149420Y-37684575D01*
X93105991Y-37902908D01*
X84894009Y-37902908D01*
X84850580Y-37684575D01*
X84765391Y-37478910D01*
X84641715Y-37293816D01*
X84484306Y-37136407D01*
X84299212Y-37012731D01*
X84093547Y-36927542D01*
X83875214Y-36884113D01*
X83652604Y-36884113D01*
X83434271Y-36927542D01*
X83228606Y-37012731D01*
X83043512Y-37136407D01*
X82886103Y-37293816D01*
X82762427Y-37478910D01*
X82677238Y-37684575D01*
X82633809Y-37902908D01*
X60697593Y-37902908D01*
X60727926Y-37802914D01*
X60736999Y-37710795D01*
X60736999Y-37710794D01*
X60740032Y-37680002D01*
X60736999Y-37649210D01*
X60736999Y-35596843D01*
X60878548Y-35625000D01*
X60902444Y-35625000D01*
X60961971Y-35673852D01*
X61070896Y-35732074D01*
X61189086Y-35767926D01*
X61311999Y-35780032D01*
X61342793Y-35776999D01*
X68001157Y-35776999D01*
X67973000Y-35918548D01*
X67973000Y-36081452D01*
X68004782Y-36241227D01*
X68067123Y-36391731D01*
X68157628Y-36527181D01*
X68272819Y-36642372D01*
X68408269Y-36732877D01*
X68558773Y-36795218D01*
X68718548Y-36827000D01*
X68881452Y-36827000D01*
X69041227Y-36795218D01*
X69191731Y-36732877D01*
X69327181Y-36642372D01*
X69342553Y-36627000D01*
X74870458Y-36627000D01*
X74901252Y-36630033D01*
X74932046Y-36627000D01*
X75024165Y-36617927D01*
X75142355Y-36582075D01*
X75251280Y-36523853D01*
X75346753Y-36445501D01*
X75366390Y-36421573D01*
X76090928Y-35697035D01*
X84156413Y-35697035D01*
X84156413Y-35919645D01*
X84199842Y-36137978D01*
X84285031Y-36343643D01*
X84408707Y-36528737D01*
X84566116Y-36686146D01*
X84751210Y-36809822D01*
X84956875Y-36895011D01*
X85175208Y-36938440D01*
X85397818Y-36938440D01*
X85616151Y-36895011D01*
X85821816Y-36809822D01*
X86006910Y-36686146D01*
X86164319Y-36528737D01*
X86287995Y-36343643D01*
X86373184Y-36137978D01*
X86416613Y-35919645D01*
X86416613Y-35697035D01*
X91583387Y-35697035D01*
X91583387Y-35919645D01*
X91626816Y-36137978D01*
X91712005Y-36343643D01*
X91835681Y-36528737D01*
X91993090Y-36686146D01*
X92178184Y-36809822D01*
X92383849Y-36895011D01*
X92602182Y-36938440D01*
X92824792Y-36938440D01*
X93043125Y-36895011D01*
X93248790Y-36809822D01*
X93433884Y-36686146D01*
X93591293Y-36528737D01*
X93714969Y-36343643D01*
X93800158Y-36137978D01*
X93843587Y-35919645D01*
X93843587Y-35697035D01*
X106156413Y-35697035D01*
X106156413Y-35919645D01*
X106199842Y-36137978D01*
X106285031Y-36343643D01*
X106408707Y-36528737D01*
X106566116Y-36686146D01*
X106751210Y-36809822D01*
X106956875Y-36895011D01*
X107175208Y-36938440D01*
X107397818Y-36938440D01*
X107616151Y-36895011D01*
X107821816Y-36809822D01*
X108006910Y-36686146D01*
X108164319Y-36528737D01*
X108287995Y-36343643D01*
X108373184Y-36137978D01*
X108416613Y-35919645D01*
X108416613Y-35697035D01*
X113583387Y-35697035D01*
X113583387Y-35919645D01*
X113626816Y-36137978D01*
X113712005Y-36343643D01*
X113835681Y-36528737D01*
X113993090Y-36686146D01*
X114178184Y-36809822D01*
X114383849Y-36895011D01*
X114602182Y-36938440D01*
X114824792Y-36938440D01*
X115043125Y-36895011D01*
X115248790Y-36809822D01*
X115433884Y-36686146D01*
X115591293Y-36528737D01*
X115714969Y-36343643D01*
X115800158Y-36137978D01*
X115843587Y-35919645D01*
X115843587Y-35697035D01*
X115800158Y-35478702D01*
X115714969Y-35273037D01*
X115591293Y-35087943D01*
X115433884Y-34930534D01*
X115248790Y-34806858D01*
X115043125Y-34721669D01*
X114824792Y-34678240D01*
X114602182Y-34678240D01*
X114383849Y-34721669D01*
X114178184Y-34806858D01*
X113993090Y-34930534D01*
X113835681Y-35087943D01*
X113712005Y-35273037D01*
X113626816Y-35478702D01*
X113583387Y-35697035D01*
X108416613Y-35697035D01*
X108373184Y-35478702D01*
X108287995Y-35273037D01*
X108164319Y-35087943D01*
X108006910Y-34930534D01*
X107821816Y-34806858D01*
X107616151Y-34721669D01*
X107397818Y-34678240D01*
X107175208Y-34678240D01*
X106956875Y-34721669D01*
X106751210Y-34806858D01*
X106566116Y-34930534D01*
X106408707Y-35087943D01*
X106285031Y-35273037D01*
X106199842Y-35478702D01*
X106156413Y-35697035D01*
X93843587Y-35697035D01*
X93800158Y-35478702D01*
X93714969Y-35273037D01*
X93591293Y-35087943D01*
X93433884Y-34930534D01*
X93248790Y-34806858D01*
X93043125Y-34721669D01*
X92824792Y-34678240D01*
X92602182Y-34678240D01*
X92383849Y-34721669D01*
X92178184Y-34806858D01*
X91993090Y-34930534D01*
X91835681Y-35087943D01*
X91712005Y-35273037D01*
X91626816Y-35478702D01*
X91583387Y-35697035D01*
X86416613Y-35697035D01*
X86373184Y-35478702D01*
X86287995Y-35273037D01*
X86164319Y-35087943D01*
X86006910Y-34930534D01*
X85821816Y-34806858D01*
X85616151Y-34721669D01*
X85397818Y-34678240D01*
X85175208Y-34678240D01*
X84956875Y-34721669D01*
X84751210Y-34806858D01*
X84566116Y-34930534D01*
X84408707Y-35087943D01*
X84285031Y-35273037D01*
X84199842Y-35478702D01*
X84156413Y-35697035D01*
X76090928Y-35697035D01*
X77505964Y-34282000D01*
X80229447Y-34282000D01*
X80244819Y-34297372D01*
X80380269Y-34387877D01*
X80530773Y-34450218D01*
X80690548Y-34482000D01*
X80853452Y-34482000D01*
X81007179Y-34451421D01*
X86529732Y-34451421D01*
X86529732Y-34674031D01*
X86573161Y-34892364D01*
X86658350Y-35098029D01*
X86782026Y-35283123D01*
X86939435Y-35440532D01*
X87124529Y-35564208D01*
X87330194Y-35649397D01*
X87548527Y-35692826D01*
X87771137Y-35692826D01*
X87989470Y-35649397D01*
X88195135Y-35564208D01*
X88380229Y-35440532D01*
X88537638Y-35283123D01*
X88661314Y-35098029D01*
X88746503Y-34892364D01*
X88789932Y-34674031D01*
X88789932Y-34451421D01*
X89210068Y-34451421D01*
X89210068Y-34674031D01*
X89253497Y-34892364D01*
X89338686Y-35098029D01*
X89462362Y-35283123D01*
X89619771Y-35440532D01*
X89804865Y-35564208D01*
X90010530Y-35649397D01*
X90228863Y-35692826D01*
X90451473Y-35692826D01*
X90669806Y-35649397D01*
X90875471Y-35564208D01*
X91060565Y-35440532D01*
X91217974Y-35283123D01*
X91341650Y-35098029D01*
X91426839Y-34892364D01*
X91470268Y-34674031D01*
X91470268Y-34451421D01*
X108529732Y-34451421D01*
X108529732Y-34674031D01*
X108573161Y-34892364D01*
X108658350Y-35098029D01*
X108782026Y-35283123D01*
X108939435Y-35440532D01*
X109124529Y-35564208D01*
X109330194Y-35649397D01*
X109548527Y-35692826D01*
X109771137Y-35692826D01*
X109989470Y-35649397D01*
X110195135Y-35564208D01*
X110380229Y-35440532D01*
X110537638Y-35283123D01*
X110661314Y-35098029D01*
X110746503Y-34892364D01*
X110789932Y-34674031D01*
X110789932Y-34451421D01*
X111210068Y-34451421D01*
X111210068Y-34674031D01*
X111253497Y-34892364D01*
X111338686Y-35098029D01*
X111462362Y-35283123D01*
X111619771Y-35440532D01*
X111804865Y-35564208D01*
X112010530Y-35649397D01*
X112228863Y-35692826D01*
X112451473Y-35692826D01*
X112669806Y-35649397D01*
X112875471Y-35564208D01*
X113060565Y-35440532D01*
X113217974Y-35283123D01*
X113341650Y-35098029D01*
X113426839Y-34892364D01*
X113470268Y-34674031D01*
X113470268Y-34451421D01*
X113426839Y-34233088D01*
X113341650Y-34027423D01*
X113217974Y-33842329D01*
X113060565Y-33684920D01*
X112875471Y-33561244D01*
X112669806Y-33476055D01*
X112451473Y-33432626D01*
X112228863Y-33432626D01*
X112010530Y-33476055D01*
X111804865Y-33561244D01*
X111619771Y-33684920D01*
X111462362Y-33842329D01*
X111338686Y-34027423D01*
X111253497Y-34233088D01*
X111210068Y-34451421D01*
X110789932Y-34451421D01*
X110746503Y-34233088D01*
X110661314Y-34027423D01*
X110537638Y-33842329D01*
X110380229Y-33684920D01*
X110195135Y-33561244D01*
X109989470Y-33476055D01*
X109771137Y-33432626D01*
X109548527Y-33432626D01*
X109330194Y-33476055D01*
X109124529Y-33561244D01*
X108939435Y-33684920D01*
X108782026Y-33842329D01*
X108658350Y-34027423D01*
X108573161Y-34233088D01*
X108529732Y-34451421D01*
X91470268Y-34451421D01*
X91426839Y-34233088D01*
X91341650Y-34027423D01*
X91217974Y-33842329D01*
X91060565Y-33684920D01*
X90875471Y-33561244D01*
X90669806Y-33476055D01*
X90451473Y-33432626D01*
X90228863Y-33432626D01*
X90010530Y-33476055D01*
X89804865Y-33561244D01*
X89619771Y-33684920D01*
X89462362Y-33842329D01*
X89338686Y-34027423D01*
X89253497Y-34233088D01*
X89210068Y-34451421D01*
X88789932Y-34451421D01*
X88746503Y-34233088D01*
X88661314Y-34027423D01*
X88537638Y-33842329D01*
X88380229Y-33684920D01*
X88195135Y-33561244D01*
X87989470Y-33476055D01*
X87771137Y-33432626D01*
X87548527Y-33432626D01*
X87330194Y-33476055D01*
X87124529Y-33561244D01*
X86939435Y-33684920D01*
X86782026Y-33842329D01*
X86658350Y-34027423D01*
X86573161Y-34233088D01*
X86529732Y-34451421D01*
X81007179Y-34451421D01*
X81013227Y-34450218D01*
X81163731Y-34387877D01*
X81299181Y-34297372D01*
X81414372Y-34182181D01*
X81504877Y-34046731D01*
X81567218Y-33896227D01*
X81599000Y-33736452D01*
X81599000Y-33573548D01*
X81567218Y-33413773D01*
X81504877Y-33263269D01*
X81414372Y-33127819D01*
X81299181Y-33012628D01*
X81163731Y-32922123D01*
X81013227Y-32859782D01*
X80853452Y-32828000D01*
X80690548Y-32828000D01*
X80530773Y-32859782D01*
X80380269Y-32922123D01*
X80244819Y-33012628D01*
X80229447Y-33028000D01*
X77840712Y-33028000D01*
X78399578Y-32469134D01*
X78423501Y-32449501D01*
X78501853Y-32354028D01*
X78560075Y-32245103D01*
X78595927Y-32126913D01*
X78605000Y-32034794D01*
X78605000Y-32034793D01*
X78608033Y-32004001D01*
X78605000Y-31973209D01*
X78605000Y-30768553D01*
X78620372Y-30753181D01*
X78710877Y-30617731D01*
X78773218Y-30467227D01*
X78805000Y-30307452D01*
X78805000Y-30144548D01*
X78788469Y-30061445D01*
X78911072Y-30184048D01*
X79062901Y-30285496D01*
X79231604Y-30355376D01*
X79410699Y-30391000D01*
X79593301Y-30391000D01*
X79772396Y-30355376D01*
X79941099Y-30285496D01*
X79973730Y-30263693D01*
X80029980Y-30322865D01*
X80211794Y-30451123D01*
X80415136Y-30541446D01*
X80470126Y-30558119D01*
X80645000Y-30431954D01*
X80645000Y-29591000D01*
X80625000Y-29591000D01*
X80625000Y-29337000D01*
X80645000Y-29337000D01*
X80645000Y-28496046D01*
X80899000Y-28496046D01*
X80899000Y-29337000D01*
X80919000Y-29337000D01*
X80919000Y-29591000D01*
X80899000Y-29591000D01*
X80899000Y-30431954D01*
X81073874Y-30558119D01*
X81128864Y-30541446D01*
X81332206Y-30451123D01*
X81514020Y-30322865D01*
X81570270Y-30263693D01*
X81602901Y-30285496D01*
X81771604Y-30355376D01*
X81950699Y-30391000D01*
X82133301Y-30391000D01*
X82312396Y-30355376D01*
X82481099Y-30285496D01*
X82632928Y-30184048D01*
X82677000Y-30139976D01*
X82721072Y-30184048D01*
X82872901Y-30285496D01*
X83041604Y-30355376D01*
X83220699Y-30391000D01*
X83403301Y-30391000D01*
X83582396Y-30355376D01*
X83751099Y-30285496D01*
X83902928Y-30184048D01*
X83947000Y-30139976D01*
X83991072Y-30184048D01*
X84142901Y-30285496D01*
X84311604Y-30355376D01*
X84490699Y-30391000D01*
X84673301Y-30391000D01*
X84852396Y-30355376D01*
X85021099Y-30285496D01*
X85048458Y-30267216D01*
X85048605Y-30267395D01*
X85113624Y-30320755D01*
X85187804Y-30360405D01*
X85268293Y-30384822D01*
X85352000Y-30393066D01*
X86352000Y-30393066D01*
X86435707Y-30384822D01*
X86516196Y-30360405D01*
X86590376Y-30320755D01*
X86655395Y-30267395D01*
X86708755Y-30202376D01*
X86748405Y-30128196D01*
X86772822Y-30047707D01*
X86781066Y-29964000D01*
X86781066Y-29128548D01*
X88073000Y-29128548D01*
X88073000Y-29291452D01*
X88104782Y-29451227D01*
X88167123Y-29601731D01*
X88257628Y-29737181D01*
X88372819Y-29852372D01*
X88508269Y-29942877D01*
X88658773Y-30005218D01*
X88818548Y-30037000D01*
X88981452Y-30037000D01*
X89141227Y-30005218D01*
X89291731Y-29942877D01*
X89427181Y-29852372D01*
X89542372Y-29737181D01*
X89586592Y-29671001D01*
X96147205Y-29671001D01*
X96177999Y-29674034D01*
X96208793Y-29671001D01*
X96300912Y-29661928D01*
X96419102Y-29626076D01*
X96528027Y-29567854D01*
X96623500Y-29489502D01*
X96698044Y-29398669D01*
X97964714Y-28132000D01*
X98125452Y-28132000D01*
X98285227Y-28100218D01*
X98435731Y-28037877D01*
X98571181Y-27947372D01*
X98686372Y-27832181D01*
X98776877Y-27696731D01*
X98839218Y-27546227D01*
X98871000Y-27386452D01*
X98871000Y-27223548D01*
X98839218Y-27063773D01*
X98776877Y-26913269D01*
X98686372Y-26777819D01*
X98571181Y-26662628D01*
X98487483Y-26606702D01*
X98522877Y-26553731D01*
X98585218Y-26403227D01*
X98617000Y-26243452D01*
X98617000Y-26080548D01*
X98585218Y-25920773D01*
X98522877Y-25770269D01*
X98432372Y-25634819D01*
X98342927Y-25545374D01*
X114634231Y-25545374D01*
X114934411Y-25983828D01*
X115513356Y-26294296D01*
X116141746Y-26485852D01*
X116795431Y-26551134D01*
X117449293Y-26487634D01*
X118078203Y-26297792D01*
X118657992Y-25988904D01*
X118665589Y-25983828D01*
X118965769Y-25545374D01*
X116800000Y-23379605D01*
X114634231Y-25545374D01*
X98342927Y-25545374D01*
X98317181Y-25519628D01*
X98181731Y-25429123D01*
X98031227Y-25366782D01*
X97871452Y-25335000D01*
X97708548Y-25335000D01*
X97548773Y-25366782D01*
X97398269Y-25429123D01*
X97262819Y-25519628D01*
X97147628Y-25634819D01*
X97057123Y-25770269D01*
X96994782Y-25920773D01*
X96963000Y-26080548D01*
X96963000Y-26102288D01*
X95698289Y-27367000D01*
X95676548Y-27367000D01*
X95516773Y-27398782D01*
X95366269Y-27461123D01*
X95230819Y-27551628D01*
X95115628Y-27666819D01*
X95025123Y-27802269D01*
X94962782Y-27952773D01*
X94931000Y-28112548D01*
X94931000Y-28275452D01*
X94959157Y-28417001D01*
X89146584Y-28417001D01*
X89141227Y-28414782D01*
X88981452Y-28383000D01*
X88818548Y-28383000D01*
X88658773Y-28414782D01*
X88508269Y-28477123D01*
X88372819Y-28567628D01*
X88257628Y-28682819D01*
X88167123Y-28818269D01*
X88104782Y-28968773D01*
X88073000Y-29128548D01*
X86781066Y-29128548D01*
X86781066Y-28964000D01*
X86772822Y-28880293D01*
X86748405Y-28799804D01*
X86708755Y-28725624D01*
X86655395Y-28660605D01*
X86590376Y-28607245D01*
X86516196Y-28567595D01*
X86435707Y-28543178D01*
X86352000Y-28534934D01*
X85352000Y-28534934D01*
X85268293Y-28543178D01*
X85187804Y-28567595D01*
X85113624Y-28607245D01*
X85048605Y-28660605D01*
X85048458Y-28660784D01*
X85021099Y-28642504D01*
X84852396Y-28572624D01*
X84673301Y-28537000D01*
X84490699Y-28537000D01*
X84311604Y-28572624D01*
X84142901Y-28642504D01*
X83991072Y-28743952D01*
X83947000Y-28788024D01*
X83902928Y-28743952D01*
X83751099Y-28642504D01*
X83582396Y-28572624D01*
X83403301Y-28537000D01*
X83220699Y-28537000D01*
X83041604Y-28572624D01*
X82872901Y-28642504D01*
X82721072Y-28743952D01*
X82677000Y-28788024D01*
X82632928Y-28743952D01*
X82481099Y-28642504D01*
X82312396Y-28572624D01*
X82133301Y-28537000D01*
X81950699Y-28537000D01*
X81771604Y-28572624D01*
X81602901Y-28642504D01*
X81570270Y-28664307D01*
X81514020Y-28605135D01*
X81332206Y-28476877D01*
X81128864Y-28386554D01*
X81073874Y-28369881D01*
X80899000Y-28496046D01*
X80645000Y-28496046D01*
X80470126Y-28369881D01*
X80415136Y-28386554D01*
X80211794Y-28476877D01*
X80029980Y-28605135D01*
X79973730Y-28664307D01*
X79941099Y-28642504D01*
X79772396Y-28572624D01*
X79593301Y-28537000D01*
X79410699Y-28537000D01*
X79231604Y-28572624D01*
X79062901Y-28642504D01*
X78911072Y-28743952D01*
X78781952Y-28873072D01*
X78680504Y-29024901D01*
X78610624Y-29193604D01*
X78575000Y-29372699D01*
X78575000Y-29555301D01*
X78599370Y-29677817D01*
X78505181Y-29583628D01*
X78369731Y-29493123D01*
X78219227Y-29430782D01*
X78059452Y-29399000D01*
X77896548Y-29399000D01*
X77736773Y-29430782D01*
X77586269Y-29493123D01*
X77450819Y-29583628D01*
X77335628Y-29698819D01*
X77245123Y-29834269D01*
X77182782Y-29984773D01*
X77151000Y-30144548D01*
X77151000Y-30307452D01*
X77182782Y-30467227D01*
X77245123Y-30617731D01*
X77335628Y-30753181D01*
X77351000Y-30768553D01*
X77351001Y-31744287D01*
X74572290Y-34522999D01*
X72408712Y-34522999D01*
X72449712Y-34482000D01*
X72471452Y-34482000D01*
X72631227Y-34450218D01*
X72781731Y-34387877D01*
X72917181Y-34297372D01*
X73032372Y-34182181D01*
X73122877Y-34046731D01*
X73185218Y-33896227D01*
X73217000Y-33736452D01*
X73217000Y-33573548D01*
X73185218Y-33413773D01*
X73122877Y-33263269D01*
X73032372Y-33127819D01*
X72917181Y-33012628D01*
X72781731Y-32922123D01*
X72631227Y-32859782D01*
X72471452Y-32828000D01*
X72308548Y-32828000D01*
X72148773Y-32859782D01*
X71998269Y-32922123D01*
X71862819Y-33012628D01*
X71747628Y-33127819D01*
X71657123Y-33263269D01*
X71594782Y-33413773D01*
X71563000Y-33573548D01*
X71563000Y-33595288D01*
X71285300Y-33872989D01*
X70518722Y-33872989D01*
X71179712Y-33212000D01*
X71201452Y-33212000D01*
X71361227Y-33180218D01*
X71511731Y-33117877D01*
X71647181Y-33027372D01*
X71762372Y-32912181D01*
X71852877Y-32776731D01*
X71915218Y-32626227D01*
X71947000Y-32466452D01*
X71947000Y-32303548D01*
X71915218Y-32143773D01*
X71852877Y-31993269D01*
X71762372Y-31857819D01*
X71647181Y-31742628D01*
X71511731Y-31652123D01*
X71361227Y-31589782D01*
X71201452Y-31558000D01*
X71038548Y-31558000D01*
X70878773Y-31589782D01*
X70728269Y-31652123D01*
X70592819Y-31742628D01*
X70477628Y-31857819D01*
X70387123Y-31993269D01*
X70324782Y-32143773D01*
X70293000Y-32303548D01*
X70293000Y-32325288D01*
X69395310Y-33222979D01*
X63954690Y-33222979D01*
X63692000Y-32960289D01*
X63692000Y-32938548D01*
X63660218Y-32778773D01*
X63597877Y-32628269D01*
X63507372Y-32492819D01*
X63392181Y-32377628D01*
X63256731Y-32287123D01*
X63106227Y-32224782D01*
X62946452Y-32193000D01*
X62783548Y-32193000D01*
X62623773Y-32224782D01*
X62473269Y-32287123D01*
X62337819Y-32377628D01*
X62222628Y-32492819D01*
X62132123Y-32628269D01*
X62069782Y-32778773D01*
X62038000Y-32938548D01*
X62038000Y-33101452D01*
X62069782Y-33261227D01*
X62132123Y-33411731D01*
X62222628Y-33547181D01*
X62337819Y-33662372D01*
X62473269Y-33752877D01*
X62623773Y-33815218D01*
X62783548Y-33847000D01*
X62805289Y-33847000D01*
X62831278Y-33872989D01*
X62489712Y-33872989D01*
X62143148Y-33526426D01*
X62123511Y-33502498D01*
X62028038Y-33424146D01*
X61919113Y-33365924D01*
X61800923Y-33330072D01*
X61708804Y-33320999D01*
X61678010Y-33317966D01*
X61647216Y-33320999D01*
X60582790Y-33320999D01*
X60551998Y-33317966D01*
X60521206Y-33320999D01*
X60521205Y-33320999D01*
X60429086Y-33330072D01*
X60310896Y-33365924D01*
X60201971Y-33424146D01*
X60106498Y-33502498D01*
X60086865Y-33526421D01*
X59688426Y-33924861D01*
X59664498Y-33944498D01*
X59586146Y-34039972D01*
X59527924Y-34148897D01*
X59501176Y-34237075D01*
X59492072Y-34267087D01*
X59479966Y-34389999D01*
X59482999Y-34420793D01*
X59483000Y-37297974D01*
X59448773Y-37304782D01*
X59298269Y-37367123D01*
X59162819Y-37457628D01*
X59047628Y-37572819D01*
X58957123Y-37708269D01*
X58894782Y-37858773D01*
X58863000Y-38018548D01*
X57366191Y-38018548D01*
X57366191Y-37902908D01*
X57322762Y-37684575D01*
X57237573Y-37478910D01*
X57113897Y-37293816D01*
X56956488Y-37136407D01*
X56771394Y-37012731D01*
X56565729Y-36927542D01*
X56347396Y-36884113D01*
X56124786Y-36884113D01*
X55906453Y-36927542D01*
X55700788Y-37012731D01*
X55515694Y-37136407D01*
X55358285Y-37293816D01*
X55234609Y-37478910D01*
X55149420Y-37684575D01*
X55105991Y-37902908D01*
X46894009Y-37902908D01*
X46850580Y-37684575D01*
X46765391Y-37478910D01*
X46641715Y-37293816D01*
X46484306Y-37136407D01*
X46299212Y-37012731D01*
X46093547Y-36927542D01*
X45875214Y-36884113D01*
X45652604Y-36884113D01*
X45434271Y-36927542D01*
X45228606Y-37012731D01*
X45043512Y-37136407D01*
X44886103Y-37293816D01*
X44762427Y-37478910D01*
X44677238Y-37684575D01*
X44633809Y-37902908D01*
X35366191Y-37902908D01*
X35322762Y-37684575D01*
X35237573Y-37478910D01*
X35113897Y-37293816D01*
X34956488Y-37136407D01*
X34771394Y-37012731D01*
X34565729Y-36927542D01*
X34347396Y-36884113D01*
X34124786Y-36884113D01*
X33906453Y-36927542D01*
X33700788Y-37012731D01*
X33515694Y-37136407D01*
X33358285Y-37293816D01*
X33234609Y-37478910D01*
X33149420Y-37684575D01*
X33105991Y-37902908D01*
X24894009Y-37902908D01*
X24850580Y-37684575D01*
X24765391Y-37478910D01*
X24641715Y-37293816D01*
X24484306Y-37136407D01*
X24299212Y-37012731D01*
X24093547Y-36927542D01*
X23875214Y-36884113D01*
X23652604Y-36884113D01*
X23434271Y-36927542D01*
X23228606Y-37012731D01*
X23043512Y-37136407D01*
X22886103Y-37293816D01*
X22762427Y-37478910D01*
X22677238Y-37684575D01*
X22633809Y-37902908D01*
X20452000Y-37902908D01*
X20452000Y-35697035D01*
X24156413Y-35697035D01*
X24156413Y-35919645D01*
X24199842Y-36137978D01*
X24285031Y-36343643D01*
X24408707Y-36528737D01*
X24566116Y-36686146D01*
X24751210Y-36809822D01*
X24956875Y-36895011D01*
X25175208Y-36938440D01*
X25397818Y-36938440D01*
X25616151Y-36895011D01*
X25821816Y-36809822D01*
X26006910Y-36686146D01*
X26164319Y-36528737D01*
X26287995Y-36343643D01*
X26373184Y-36137978D01*
X26416613Y-35919645D01*
X26416613Y-35697035D01*
X31583387Y-35697035D01*
X31583387Y-35919645D01*
X31626816Y-36137978D01*
X31712005Y-36343643D01*
X31835681Y-36528737D01*
X31993090Y-36686146D01*
X32178184Y-36809822D01*
X32383849Y-36895011D01*
X32602182Y-36938440D01*
X32824792Y-36938440D01*
X33043125Y-36895011D01*
X33248790Y-36809822D01*
X33433884Y-36686146D01*
X33591293Y-36528737D01*
X33714969Y-36343643D01*
X33800158Y-36137978D01*
X33843587Y-35919645D01*
X33843587Y-35697035D01*
X46156413Y-35697035D01*
X46156413Y-35919645D01*
X46199842Y-36137978D01*
X46285031Y-36343643D01*
X46408707Y-36528737D01*
X46566116Y-36686146D01*
X46751210Y-36809822D01*
X46956875Y-36895011D01*
X47175208Y-36938440D01*
X47397818Y-36938440D01*
X47616151Y-36895011D01*
X47821816Y-36809822D01*
X48006910Y-36686146D01*
X48164319Y-36528737D01*
X48287995Y-36343643D01*
X48373184Y-36137978D01*
X48416613Y-35919645D01*
X48416613Y-35697035D01*
X53583387Y-35697035D01*
X53583387Y-35919645D01*
X53626816Y-36137978D01*
X53712005Y-36343643D01*
X53835681Y-36528737D01*
X53993090Y-36686146D01*
X54178184Y-36809822D01*
X54383849Y-36895011D01*
X54602182Y-36938440D01*
X54824792Y-36938440D01*
X55043125Y-36895011D01*
X55248790Y-36809822D01*
X55433884Y-36686146D01*
X55591293Y-36528737D01*
X55714969Y-36343643D01*
X55800158Y-36137978D01*
X55843587Y-35919645D01*
X55843587Y-35697035D01*
X55800158Y-35478702D01*
X55714969Y-35273037D01*
X55591293Y-35087943D01*
X55433884Y-34930534D01*
X55248790Y-34806858D01*
X55043125Y-34721669D01*
X54824792Y-34678240D01*
X54602182Y-34678240D01*
X54383849Y-34721669D01*
X54178184Y-34806858D01*
X53993090Y-34930534D01*
X53835681Y-35087943D01*
X53712005Y-35273037D01*
X53626816Y-35478702D01*
X53583387Y-35697035D01*
X48416613Y-35697035D01*
X48373184Y-35478702D01*
X48287995Y-35273037D01*
X48164319Y-35087943D01*
X48006910Y-34930534D01*
X47821816Y-34806858D01*
X47616151Y-34721669D01*
X47397818Y-34678240D01*
X47175208Y-34678240D01*
X46956875Y-34721669D01*
X46751210Y-34806858D01*
X46566116Y-34930534D01*
X46408707Y-35087943D01*
X46285031Y-35273037D01*
X46199842Y-35478702D01*
X46156413Y-35697035D01*
X33843587Y-35697035D01*
X33800158Y-35478702D01*
X33714969Y-35273037D01*
X33591293Y-35087943D01*
X33433884Y-34930534D01*
X33248790Y-34806858D01*
X33043125Y-34721669D01*
X32824792Y-34678240D01*
X32602182Y-34678240D01*
X32383849Y-34721669D01*
X32178184Y-34806858D01*
X31993090Y-34930534D01*
X31835681Y-35087943D01*
X31712005Y-35273037D01*
X31626816Y-35478702D01*
X31583387Y-35697035D01*
X26416613Y-35697035D01*
X26373184Y-35478702D01*
X26287995Y-35273037D01*
X26164319Y-35087943D01*
X26006910Y-34930534D01*
X25821816Y-34806858D01*
X25616151Y-34721669D01*
X25397818Y-34678240D01*
X25175208Y-34678240D01*
X24956875Y-34721669D01*
X24751210Y-34806858D01*
X24566116Y-34930534D01*
X24408707Y-35087943D01*
X24285031Y-35273037D01*
X24199842Y-35478702D01*
X24156413Y-35697035D01*
X20452000Y-35697035D01*
X20452000Y-34451421D01*
X26529732Y-34451421D01*
X26529732Y-34674031D01*
X26573161Y-34892364D01*
X26658350Y-35098029D01*
X26782026Y-35283123D01*
X26939435Y-35440532D01*
X27124529Y-35564208D01*
X27330194Y-35649397D01*
X27548527Y-35692826D01*
X27771137Y-35692826D01*
X27989470Y-35649397D01*
X28195135Y-35564208D01*
X28380229Y-35440532D01*
X28537638Y-35283123D01*
X28661314Y-35098029D01*
X28746503Y-34892364D01*
X28789932Y-34674031D01*
X28789932Y-34451421D01*
X29210068Y-34451421D01*
X29210068Y-34674031D01*
X29253497Y-34892364D01*
X29338686Y-35098029D01*
X29462362Y-35283123D01*
X29619771Y-35440532D01*
X29804865Y-35564208D01*
X30010530Y-35649397D01*
X30228863Y-35692826D01*
X30451473Y-35692826D01*
X30669806Y-35649397D01*
X30875471Y-35564208D01*
X31060565Y-35440532D01*
X31217974Y-35283123D01*
X31341650Y-35098029D01*
X31426839Y-34892364D01*
X31470268Y-34674031D01*
X31470268Y-34451421D01*
X48529732Y-34451421D01*
X48529732Y-34674031D01*
X48573161Y-34892364D01*
X48658350Y-35098029D01*
X48782026Y-35283123D01*
X48939435Y-35440532D01*
X49124529Y-35564208D01*
X49330194Y-35649397D01*
X49548527Y-35692826D01*
X49771137Y-35692826D01*
X49989470Y-35649397D01*
X50195135Y-35564208D01*
X50380229Y-35440532D01*
X50537638Y-35283123D01*
X50661314Y-35098029D01*
X50746503Y-34892364D01*
X50789932Y-34674031D01*
X50789932Y-34451421D01*
X51210068Y-34451421D01*
X51210068Y-34674031D01*
X51253497Y-34892364D01*
X51338686Y-35098029D01*
X51462362Y-35283123D01*
X51619771Y-35440532D01*
X51804865Y-35564208D01*
X52010530Y-35649397D01*
X52228863Y-35692826D01*
X52451473Y-35692826D01*
X52669806Y-35649397D01*
X52875471Y-35564208D01*
X53060565Y-35440532D01*
X53217974Y-35283123D01*
X53341650Y-35098029D01*
X53426839Y-34892364D01*
X53470268Y-34674031D01*
X53470268Y-34451421D01*
X53426839Y-34233088D01*
X53341650Y-34027423D01*
X53217974Y-33842329D01*
X53060565Y-33684920D01*
X52875471Y-33561244D01*
X52669806Y-33476055D01*
X52451473Y-33432626D01*
X52228863Y-33432626D01*
X52010530Y-33476055D01*
X51804865Y-33561244D01*
X51619771Y-33684920D01*
X51462362Y-33842329D01*
X51338686Y-34027423D01*
X51253497Y-34233088D01*
X51210068Y-34451421D01*
X50789932Y-34451421D01*
X50746503Y-34233088D01*
X50661314Y-34027423D01*
X50537638Y-33842329D01*
X50380229Y-33684920D01*
X50195135Y-33561244D01*
X49989470Y-33476055D01*
X49771137Y-33432626D01*
X49548527Y-33432626D01*
X49330194Y-33476055D01*
X49124529Y-33561244D01*
X48939435Y-33684920D01*
X48782026Y-33842329D01*
X48658350Y-34027423D01*
X48573161Y-34233088D01*
X48529732Y-34451421D01*
X31470268Y-34451421D01*
X31426839Y-34233088D01*
X31341650Y-34027423D01*
X31217974Y-33842329D01*
X31060565Y-33684920D01*
X30875471Y-33561244D01*
X30669806Y-33476055D01*
X30451473Y-33432626D01*
X30228863Y-33432626D01*
X30010530Y-33476055D01*
X29804865Y-33561244D01*
X29619771Y-33684920D01*
X29462362Y-33842329D01*
X29338686Y-34027423D01*
X29253497Y-34233088D01*
X29210068Y-34451421D01*
X28789932Y-34451421D01*
X28746503Y-34233088D01*
X28661314Y-34027423D01*
X28537638Y-33842329D01*
X28380229Y-33684920D01*
X28195135Y-33561244D01*
X27989470Y-33476055D01*
X27771137Y-33432626D01*
X27548527Y-33432626D01*
X27330194Y-33476055D01*
X27124529Y-33561244D01*
X26939435Y-33684920D01*
X26782026Y-33842329D01*
X26658350Y-34027423D01*
X26573161Y-34233088D01*
X26529732Y-34451421D01*
X20452000Y-34451421D01*
X20452000Y-29636548D01*
X71055000Y-29636548D01*
X71055000Y-29799452D01*
X71086782Y-29959227D01*
X71149123Y-30109731D01*
X71239628Y-30245181D01*
X71354819Y-30360372D01*
X71490269Y-30450877D01*
X71640773Y-30513218D01*
X71800548Y-30545000D01*
X71963452Y-30545000D01*
X72123227Y-30513218D01*
X72273731Y-30450877D01*
X72409181Y-30360372D01*
X72424553Y-30345000D01*
X74899206Y-30345000D01*
X74930000Y-30348033D01*
X74960794Y-30345000D01*
X75052913Y-30335927D01*
X75171103Y-30300075D01*
X75280028Y-30241853D01*
X75375501Y-30163501D01*
X75395138Y-30139573D01*
X77021712Y-28513000D01*
X77043452Y-28513000D01*
X77203227Y-28481218D01*
X77353731Y-28418877D01*
X77489181Y-28328372D01*
X77604372Y-28213181D01*
X77694877Y-28077731D01*
X77757218Y-27927227D01*
X77789000Y-27767452D01*
X77789000Y-27604548D01*
X77757218Y-27444773D01*
X77694877Y-27294269D01*
X77604372Y-27158819D01*
X77489181Y-27043628D01*
X77353731Y-26953123D01*
X77203227Y-26890782D01*
X77043452Y-26859000D01*
X76880548Y-26859000D01*
X76720773Y-26890782D01*
X76570269Y-26953123D01*
X76434819Y-27043628D01*
X76319628Y-27158819D01*
X76229123Y-27294269D01*
X76166782Y-27444773D01*
X76135000Y-27604548D01*
X76135000Y-27626288D01*
X74670289Y-29091000D01*
X72424553Y-29091000D01*
X72409181Y-29075628D01*
X72273731Y-28985123D01*
X72123227Y-28922782D01*
X71963452Y-28891000D01*
X71800548Y-28891000D01*
X71640773Y-28922782D01*
X71490269Y-28985123D01*
X71354819Y-29075628D01*
X71239628Y-29190819D01*
X71149123Y-29326269D01*
X71086782Y-29476773D01*
X71055000Y-29636548D01*
X20452000Y-29636548D01*
X20452000Y-25545374D01*
X21034231Y-25545374D01*
X21334411Y-25983828D01*
X21913356Y-26294296D01*
X22541746Y-26485852D01*
X23195431Y-26551134D01*
X23849293Y-26487634D01*
X24478203Y-26297792D01*
X25057992Y-25988904D01*
X25065589Y-25983828D01*
X25365769Y-25545374D01*
X23200000Y-23379605D01*
X21034231Y-25545374D01*
X20452000Y-25545374D01*
X20452000Y-25090118D01*
X20854626Y-25365769D01*
X23020395Y-23200000D01*
X23379605Y-23200000D01*
X25545374Y-25365769D01*
X25983828Y-25065589D01*
X26120597Y-24810548D01*
X40067000Y-24810548D01*
X40067000Y-24973452D01*
X40098782Y-25133227D01*
X40161123Y-25283731D01*
X40251628Y-25419181D01*
X40267001Y-25434554D01*
X40267001Y-25865198D01*
X40263967Y-25896002D01*
X40276073Y-26018914D01*
X40282193Y-26039088D01*
X40311926Y-26137105D01*
X40370148Y-26246030D01*
X40448500Y-26341503D01*
X40472423Y-26361136D01*
X42814865Y-28703579D01*
X42834498Y-28727502D01*
X42929971Y-28805854D01*
X43038896Y-28864076D01*
X43127654Y-28891000D01*
X43157086Y-28899928D01*
X43279998Y-28912034D01*
X43310792Y-28909001D01*
X44065207Y-28909001D01*
X44096001Y-28912034D01*
X44126795Y-28909001D01*
X44218914Y-28899928D01*
X44337104Y-28864076D01*
X44446029Y-28805854D01*
X44541502Y-28727502D01*
X44561139Y-28703574D01*
X45713714Y-27551000D01*
X47971447Y-27551000D01*
X47986819Y-27566372D01*
X48122269Y-27656877D01*
X48272773Y-27719218D01*
X48432548Y-27751000D01*
X48595452Y-27751000D01*
X48755227Y-27719218D01*
X48905731Y-27656877D01*
X49041181Y-27566372D01*
X49156372Y-27451181D01*
X49246877Y-27315731D01*
X49309218Y-27165227D01*
X49341000Y-27005452D01*
X49341000Y-26842548D01*
X49309218Y-26682773D01*
X49246877Y-26532269D01*
X49156372Y-26396819D01*
X49041181Y-26281628D01*
X48905731Y-26191123D01*
X48755227Y-26128782D01*
X48595452Y-26097000D01*
X48432548Y-26097000D01*
X48272773Y-26128782D01*
X48122269Y-26191123D01*
X47986819Y-26281628D01*
X47971447Y-26297000D01*
X45484793Y-26297000D01*
X45454001Y-26293967D01*
X45423209Y-26297000D01*
X45423208Y-26297000D01*
X45331089Y-26306073D01*
X45212899Y-26341925D01*
X45103974Y-26400147D01*
X45008501Y-26478499D01*
X44988868Y-26502422D01*
X44429706Y-27061584D01*
X44420877Y-27040269D01*
X44330372Y-26904819D01*
X44215181Y-26789628D01*
X44079731Y-26699123D01*
X43929227Y-26636782D01*
X43769452Y-26605000D01*
X43747712Y-26605000D01*
X42899602Y-25756890D01*
X51898524Y-25756890D01*
X51943175Y-25904099D01*
X52068359Y-26166920D01*
X52242412Y-26400269D01*
X52458645Y-26595178D01*
X52708748Y-26744157D01*
X52983109Y-26841481D01*
X53213000Y-26720814D01*
X53213000Y-25527000D01*
X53467000Y-25527000D01*
X53467000Y-26720814D01*
X53696891Y-26841481D01*
X53971252Y-26744157D01*
X54221355Y-26595178D01*
X54437588Y-26400269D01*
X54611641Y-26166920D01*
X54736825Y-25904099D01*
X54781476Y-25756890D01*
X56343524Y-25756890D01*
X56388175Y-25904099D01*
X56513359Y-26166920D01*
X56687412Y-26400269D01*
X56903645Y-26595178D01*
X57153748Y-26744157D01*
X57428109Y-26841481D01*
X57658000Y-26720814D01*
X57658000Y-25527000D01*
X57912000Y-25527000D01*
X57912000Y-26720814D01*
X58141891Y-26841481D01*
X58416252Y-26744157D01*
X58666355Y-26595178D01*
X58882588Y-26400269D01*
X59056641Y-26166920D01*
X59181825Y-25904099D01*
X59226476Y-25756890D01*
X59105155Y-25527000D01*
X57912000Y-25527000D01*
X57658000Y-25527000D01*
X56464845Y-25527000D01*
X56343524Y-25756890D01*
X54781476Y-25756890D01*
X54660155Y-25527000D01*
X53467000Y-25527000D01*
X53213000Y-25527000D01*
X52019845Y-25527000D01*
X51898524Y-25756890D01*
X42899602Y-25756890D01*
X42737000Y-25594289D01*
X42737000Y-25572548D01*
X42705218Y-25412773D01*
X42642877Y-25262269D01*
X42552372Y-25126819D01*
X42437181Y-25011628D01*
X42301731Y-24921123D01*
X42151227Y-24858782D01*
X41991452Y-24827000D01*
X41828548Y-24827000D01*
X41721000Y-24848393D01*
X41721000Y-24810548D01*
X41689218Y-24650773D01*
X41626877Y-24500269D01*
X41536372Y-24364819D01*
X41421181Y-24249628D01*
X41285731Y-24159123D01*
X41135227Y-24096782D01*
X40975452Y-24065000D01*
X40812548Y-24065000D01*
X40652773Y-24096782D01*
X40502269Y-24159123D01*
X40366819Y-24249628D01*
X40251628Y-24364819D01*
X40161123Y-24500269D01*
X40098782Y-24650773D01*
X40067000Y-24810548D01*
X26120597Y-24810548D01*
X26294296Y-24486644D01*
X26485852Y-23858254D01*
X26551134Y-23204569D01*
X26487634Y-22550707D01*
X26297792Y-21921797D01*
X25988904Y-21342008D01*
X25983828Y-21334411D01*
X25545374Y-21034231D01*
X23379605Y-23200000D01*
X23020395Y-23200000D01*
X23006253Y-23185858D01*
X23185858Y-23006253D01*
X23200000Y-23020395D01*
X25365769Y-20854626D01*
X25090118Y-20452000D01*
X42948607Y-20452000D01*
X42892782Y-20586773D01*
G04 #@! TA.AperFunction,Conductor*
D21*
G36*
X42892782Y-20586773D02*
G01*
X42861000Y-20746548D01*
X42861000Y-20909452D01*
X42887705Y-21043705D01*
X42753452Y-21017000D01*
X42590548Y-21017000D01*
X42430773Y-21048782D01*
X42280269Y-21111123D01*
X42144819Y-21201628D01*
X42029628Y-21316819D01*
X41939123Y-21452269D01*
X41876782Y-21602773D01*
X41845000Y-21762548D01*
X41845000Y-21925452D01*
X41876782Y-22085227D01*
X41939123Y-22235731D01*
X42029628Y-22371181D01*
X42144819Y-22486372D01*
X42280269Y-22576877D01*
X42430773Y-22639218D01*
X42590548Y-22671000D01*
X42753452Y-22671000D01*
X42913227Y-22639218D01*
X43063731Y-22576877D01*
X43199181Y-22486372D01*
X43214553Y-22471000D01*
X43899208Y-22471000D01*
X43930002Y-22474033D01*
X43960796Y-22471000D01*
X44052915Y-22461927D01*
X44171105Y-22426075D01*
X44280030Y-22367853D01*
X44375503Y-22289501D01*
X44395140Y-22265573D01*
X44908694Y-21752020D01*
X52149334Y-21752020D01*
X52133245Y-21771624D01*
X52093595Y-21845804D01*
X52069178Y-21926293D01*
X52060934Y-22010000D01*
X52060934Y-23710000D01*
X52069178Y-23793707D01*
X52093595Y-23874196D01*
X52133245Y-23948376D01*
X52186605Y-24013395D01*
X52251624Y-24066755D01*
X52325804Y-24106405D01*
X52406293Y-24130822D01*
X52490000Y-24139066D01*
X52569035Y-24139066D01*
X52458645Y-24204822D01*
X52242412Y-24399731D01*
X52068359Y-24633080D01*
X51943175Y-24895901D01*
X51898524Y-25043110D01*
X52019845Y-25273000D01*
X53213000Y-25273000D01*
X53213000Y-25253000D01*
X53467000Y-25253000D01*
X53467000Y-25273000D01*
X54660155Y-25273000D01*
X54781476Y-25043110D01*
X54736825Y-24895901D01*
X54611641Y-24633080D01*
X54437588Y-24399731D01*
X54221355Y-24204822D01*
X54110965Y-24139066D01*
X54190000Y-24139066D01*
X54273707Y-24130822D01*
X54354196Y-24106405D01*
X54428376Y-24066755D01*
X54493395Y-24013395D01*
X54546755Y-23948376D01*
X54586405Y-23874196D01*
X54610822Y-23793707D01*
X54619066Y-23710000D01*
X54619066Y-22010000D01*
X54610822Y-21926293D01*
X54586405Y-21845804D01*
X54546755Y-21771624D01*
X54530666Y-21752020D01*
X56594334Y-21752020D01*
X56578245Y-21771624D01*
X56538595Y-21845804D01*
X56514178Y-21926293D01*
X56505934Y-22010000D01*
X56505934Y-23710000D01*
X56514178Y-23793707D01*
X56538595Y-23874196D01*
X56578245Y-23948376D01*
X56631605Y-24013395D01*
X56696624Y-24066755D01*
X56770804Y-24106405D01*
X56851293Y-24130822D01*
X56935000Y-24139066D01*
X57014035Y-24139066D01*
X56903645Y-24204822D01*
X56687412Y-24399731D01*
X56513359Y-24633080D01*
X56388175Y-24895901D01*
X56343524Y-25043110D01*
X56464845Y-25273000D01*
X57658000Y-25273000D01*
X57658000Y-25253000D01*
X57912000Y-25253000D01*
X57912000Y-25273000D01*
X59105155Y-25273000D01*
X59226476Y-25043110D01*
X59181825Y-24895901D01*
X59056641Y-24633080D01*
X58882588Y-24399731D01*
X58666355Y-24204822D01*
X58555965Y-24139066D01*
X58635000Y-24139066D01*
X58718707Y-24130822D01*
X58799196Y-24106405D01*
X58873376Y-24066755D01*
X58938395Y-24013395D01*
X58991755Y-23948376D01*
X59031405Y-23874196D01*
X59055822Y-23793707D01*
X59064066Y-23710000D01*
X59064066Y-22467646D01*
X59129682Y-22402030D01*
X62557383Y-22402030D01*
X62513123Y-22468269D01*
X62450782Y-22618773D01*
X62419000Y-22778548D01*
X62419000Y-22941452D01*
X62450782Y-23101227D01*
X62513123Y-23251731D01*
X62603628Y-23387181D01*
X62718819Y-23502372D01*
X62854269Y-23592877D01*
X63004773Y-23655218D01*
X63164548Y-23687000D01*
X63327452Y-23687000D01*
X63487227Y-23655218D01*
X63637731Y-23592877D01*
X63773181Y-23502372D01*
X63788553Y-23487000D01*
X68545447Y-23487000D01*
X68560819Y-23502372D01*
X68696269Y-23592877D01*
X68846773Y-23655218D01*
X69006548Y-23687000D01*
X69169452Y-23687000D01*
X69329227Y-23655218D01*
X69479731Y-23592877D01*
X69615181Y-23502372D01*
X69730372Y-23387181D01*
X69820877Y-23251731D01*
X69883218Y-23101227D01*
X69915000Y-22941452D01*
X69915000Y-22778548D01*
X69883218Y-22618773D01*
X69820877Y-22468269D01*
X69779233Y-22405944D01*
X69985001Y-22611712D01*
X69985000Y-23333447D01*
X69969628Y-23348819D01*
X69879123Y-23484269D01*
X69816782Y-23634773D01*
X69785000Y-23794548D01*
X69785000Y-23957452D01*
X69816782Y-24117227D01*
X69879123Y-24267731D01*
X69969628Y-24403181D01*
X70084819Y-24518372D01*
X70220269Y-24608877D01*
X70370773Y-24671218D01*
X70530548Y-24703000D01*
X70693452Y-24703000D01*
X70853227Y-24671218D01*
X71001001Y-24610008D01*
X71001001Y-25619446D01*
X70985628Y-25634819D01*
X70895123Y-25770269D01*
X70832782Y-25920773D01*
X70801000Y-26080548D01*
X70801000Y-26243452D01*
X70832782Y-26403227D01*
X70895123Y-26553731D01*
X70985628Y-26689181D01*
X71100819Y-26804372D01*
X71236269Y-26894877D01*
X71386773Y-26957218D01*
X71546548Y-26989000D01*
X71709452Y-26989000D01*
X71869227Y-26957218D01*
X72019731Y-26894877D01*
X72155181Y-26804372D01*
X72270372Y-26689181D01*
X72360877Y-26553731D01*
X72423218Y-26403227D01*
X72455000Y-26243452D01*
X72455000Y-26080548D01*
X72428295Y-25946295D01*
X72562548Y-25973000D01*
X72725452Y-25973000D01*
X72885227Y-25941218D01*
X73035731Y-25878877D01*
X73171181Y-25788372D01*
X73286372Y-25673181D01*
X73376877Y-25537731D01*
X73439218Y-25387227D01*
X73471000Y-25227452D01*
X73471000Y-25064548D01*
X73439218Y-24904773D01*
X73376877Y-24754269D01*
X73286372Y-24618819D01*
X73271000Y-24603447D01*
X73271000Y-23195431D01*
X113448866Y-23195431D01*
X113512366Y-23849293D01*
X113702208Y-24478203D01*
X114011096Y-25057992D01*
X114016172Y-25065589D01*
X114454626Y-25365769D01*
X116620395Y-23200000D01*
X114454626Y-21034231D01*
X114016172Y-21334411D01*
X113705704Y-21913356D01*
X113514148Y-22541746D01*
X113448866Y-23195431D01*
X73271000Y-23195431D01*
X73271000Y-21874793D01*
X73274033Y-21843999D01*
X73261927Y-21721087D01*
X73253983Y-21694898D01*
X73226075Y-21602897D01*
X73167853Y-21493972D01*
X73089501Y-21398499D01*
X73065579Y-21378867D01*
X72138711Y-20452000D01*
X114909882Y-20452000D01*
X114634231Y-20854626D01*
X116800000Y-23020395D01*
X116814143Y-23006253D01*
X116993748Y-23185858D01*
X116979605Y-23200000D01*
X119145374Y-25365769D01*
X119548000Y-25090118D01*
X119548001Y-54909883D01*
X119145374Y-54634231D01*
X116979605Y-56800000D01*
X116993748Y-56814143D01*
X116814143Y-56993748D01*
X116800000Y-56979605D01*
X114634231Y-59145374D01*
X114909882Y-59548000D01*
X25090118Y-59548000D01*
X25365769Y-59145374D01*
X23200000Y-56979605D01*
X23185858Y-56993748D01*
X23006253Y-56814143D01*
X23020395Y-56800000D01*
X23379605Y-56800000D01*
X25545374Y-58965769D01*
X25983828Y-58665589D01*
X26294296Y-58086644D01*
X26485852Y-57458254D01*
X26551134Y-56804569D01*
X26487634Y-56150707D01*
X26456028Y-56046000D01*
X61003967Y-56046000D01*
X61003967Y-57746000D01*
X61016073Y-57868913D01*
X61051925Y-57987103D01*
X61110147Y-58096028D01*
X61188499Y-58191501D01*
X61283972Y-58269853D01*
X61392897Y-58328075D01*
X61511087Y-58363927D01*
X61634000Y-58376033D01*
X63334000Y-58376033D01*
X63456913Y-58363927D01*
X63575103Y-58328075D01*
X63684028Y-58269853D01*
X63779501Y-58191501D01*
X63857853Y-58096028D01*
X63916075Y-57987103D01*
X63951927Y-57868913D01*
X63964033Y-57746000D01*
X63964033Y-56046000D01*
X76444934Y-56046000D01*
X76444934Y-57746000D01*
X76453178Y-57829707D01*
X76477595Y-57910196D01*
X76517245Y-57984376D01*
X76570605Y-58049395D01*
X76635624Y-58102755D01*
X76709804Y-58142405D01*
X76790293Y-58166822D01*
X76874000Y-58175066D01*
X78574000Y-58175066D01*
X78657707Y-58166822D01*
X78738196Y-58142405D01*
X78812376Y-58102755D01*
X78877395Y-58049395D01*
X78930755Y-57984376D01*
X78970405Y-57910196D01*
X78994822Y-57829707D01*
X79003066Y-57746000D01*
X79003066Y-56046000D01*
X81016934Y-56046000D01*
X81016934Y-57746000D01*
X81025178Y-57829707D01*
X81049595Y-57910196D01*
X81089245Y-57984376D01*
X81142605Y-58049395D01*
X81207624Y-58102755D01*
X81281804Y-58142405D01*
X81362293Y-58166822D01*
X81446000Y-58175066D01*
X83146000Y-58175066D01*
X83229707Y-58166822D01*
X83310196Y-58142405D01*
X83384376Y-58102755D01*
X83449395Y-58049395D01*
X83502755Y-57984376D01*
X83542405Y-57910196D01*
X83566822Y-57829707D01*
X83575066Y-57746000D01*
X83575066Y-57666965D01*
X83640822Y-57777355D01*
X83835731Y-57993588D01*
X84069080Y-58167641D01*
X84331901Y-58292825D01*
X84479110Y-58337476D01*
X84709000Y-58216155D01*
X84709000Y-57023000D01*
X84963000Y-57023000D01*
X84963000Y-58216155D01*
X85192890Y-58337476D01*
X85340099Y-58292825D01*
X85602920Y-58167641D01*
X85836269Y-57993588D01*
X86031178Y-57777355D01*
X86180157Y-57527252D01*
X86277481Y-57252891D01*
X86156814Y-57023000D01*
X84963000Y-57023000D01*
X84709000Y-57023000D01*
X84689000Y-57023000D01*
X84689000Y-56795431D01*
X113448866Y-56795431D01*
X113512366Y-57449293D01*
X113702208Y-58078203D01*
X114011096Y-58657992D01*
X114016172Y-58665589D01*
X114454626Y-58965769D01*
X116620395Y-56800000D01*
X114454626Y-54634231D01*
X114016172Y-54934411D01*
X113705704Y-55513356D01*
X113514148Y-56141746D01*
X113448866Y-56795431D01*
X84689000Y-56795431D01*
X84689000Y-56769000D01*
X84709000Y-56769000D01*
X84709000Y-55575845D01*
X84963000Y-55575845D01*
X84963000Y-56769000D01*
X86156814Y-56769000D01*
X86277481Y-56539109D01*
X86180157Y-56264748D01*
X86031178Y-56014645D01*
X85836269Y-55798412D01*
X85602920Y-55624359D01*
X85340099Y-55499175D01*
X85192890Y-55454524D01*
X84963000Y-55575845D01*
X84709000Y-55575845D01*
X84479110Y-55454524D01*
X84331901Y-55499175D01*
X84069080Y-55624359D01*
X83835731Y-55798412D01*
X83640822Y-56014645D01*
X83575066Y-56125035D01*
X83575066Y-56046000D01*
X83566822Y-55962293D01*
X83542405Y-55881804D01*
X83502755Y-55807624D01*
X83449395Y-55742605D01*
X83384376Y-55689245D01*
X83310196Y-55649595D01*
X83229707Y-55625178D01*
X83146000Y-55616934D01*
X81446000Y-55616934D01*
X81362293Y-55625178D01*
X81281804Y-55649595D01*
X81207624Y-55689245D01*
X81142605Y-55742605D01*
X81089245Y-55807624D01*
X81049595Y-55881804D01*
X81025178Y-55962293D01*
X81016934Y-56046000D01*
X79003066Y-56046000D01*
X78994822Y-55962293D01*
X78970405Y-55881804D01*
X78930755Y-55807624D01*
X78877395Y-55742605D01*
X78812376Y-55689245D01*
X78738196Y-55649595D01*
X78657707Y-55625178D01*
X78574000Y-55616934D01*
X76874000Y-55616934D01*
X76790293Y-55625178D01*
X76709804Y-55649595D01*
X76635624Y-55689245D01*
X76570605Y-55742605D01*
X76517245Y-55807624D01*
X76477595Y-55881804D01*
X76453178Y-55962293D01*
X76444934Y-56046000D01*
X63964033Y-56046000D01*
X63951927Y-55923087D01*
X63916075Y-55804897D01*
X63857853Y-55695972D01*
X63779501Y-55600499D01*
X63684028Y-55522147D01*
X63575103Y-55463925D01*
X63456913Y-55428073D01*
X63334000Y-55415967D01*
X61634000Y-55415967D01*
X61511087Y-55428073D01*
X61392897Y-55463925D01*
X61283972Y-55522147D01*
X61188499Y-55600499D01*
X61110147Y-55695972D01*
X61051925Y-55804897D01*
X61016073Y-55923087D01*
X61003967Y-56046000D01*
X26456028Y-56046000D01*
X26297792Y-55521797D01*
X25988904Y-54942008D01*
X25983828Y-54934411D01*
X25545374Y-54634231D01*
X23379605Y-56800000D01*
X23020395Y-56800000D01*
X20854626Y-54634231D01*
X20452000Y-54909882D01*
X20452000Y-54454626D01*
X21034231Y-54454626D01*
X23200000Y-56620395D01*
X25365769Y-54454626D01*
X114634231Y-54454626D01*
X116800000Y-56620395D01*
X118965769Y-54454626D01*
X118665589Y-54016172D01*
X118086644Y-53705704D01*
X117458254Y-53514148D01*
X116804569Y-53448866D01*
X116150707Y-53512366D01*
X115521797Y-53702208D01*
X114942008Y-54011096D01*
X114934411Y-54016172D01*
X114634231Y-54454626D01*
X25365769Y-54454626D01*
X25065589Y-54016172D01*
X24486644Y-53705704D01*
X23858254Y-53514148D01*
X23204569Y-53448866D01*
X22550707Y-53512366D01*
X21921797Y-53702208D01*
X21342008Y-54011096D01*
X21334411Y-54016172D01*
X21034231Y-54454626D01*
X20452000Y-54454626D01*
X20452000Y-50458000D01*
X53838934Y-50458000D01*
X53838934Y-52158000D01*
X53847178Y-52241707D01*
X53871595Y-52322196D01*
X53911245Y-52396376D01*
X53964605Y-52461395D01*
X54029624Y-52514755D01*
X54103804Y-52554405D01*
X54184293Y-52578822D01*
X54268000Y-52587066D01*
X55968000Y-52587066D01*
X56051707Y-52578822D01*
X56132196Y-52554405D01*
X56206376Y-52514755D01*
X56271395Y-52461395D01*
X56324755Y-52396376D01*
X56364405Y-52322196D01*
X56388822Y-52241707D01*
X56397066Y-52158000D01*
X56397066Y-52078965D01*
X56462822Y-52189355D01*
X56657731Y-52405588D01*
X56891080Y-52579641D01*
X57153901Y-52704825D01*
X57301110Y-52749476D01*
X57531000Y-52628155D01*
X57531000Y-51435000D01*
X57785000Y-51435000D01*
X57785000Y-52628155D01*
X58014890Y-52749476D01*
X58162099Y-52704825D01*
X58424920Y-52579641D01*
X58658269Y-52405588D01*
X58853178Y-52189355D01*
X59002157Y-51939252D01*
X59099481Y-51664891D01*
X58978814Y-51435000D01*
X57785000Y-51435000D01*
X57531000Y-51435000D01*
X57511000Y-51435000D01*
X57511000Y-51181000D01*
X57531000Y-51181000D01*
X57531000Y-49987845D01*
X57785000Y-49987845D01*
X57785000Y-51181000D01*
X58978814Y-51181000D01*
X59099481Y-50951109D01*
X59002157Y-50676748D01*
X58853178Y-50426645D01*
X58658269Y-50210412D01*
X58545100Y-50126000D01*
X76235928Y-50126000D01*
X76248188Y-50250482D01*
X76284498Y-50370180D01*
X76343463Y-50480494D01*
X76422815Y-50577185D01*
X76519506Y-50656537D01*
X76629820Y-50715502D01*
X76749518Y-50751812D01*
X76874000Y-50764072D01*
X77438250Y-50761000D01*
X77597000Y-50602250D01*
X77597000Y-49403000D01*
X77851000Y-49403000D01*
X77851000Y-50602250D01*
X78009750Y-50761000D01*
X78574000Y-50764072D01*
X78698482Y-50751812D01*
X78818180Y-50715502D01*
X78928494Y-50656537D01*
X79025185Y-50577185D01*
X79104537Y-50480494D01*
X79163502Y-50370180D01*
X79199812Y-50250482D01*
X79212072Y-50126000D01*
X79209000Y-49561750D01*
X79050250Y-49403000D01*
X77851000Y-49403000D01*
X77597000Y-49403000D01*
X76397750Y-49403000D01*
X76239000Y-49561750D01*
X76235928Y-50126000D01*
X58545100Y-50126000D01*
X58424920Y-50036359D01*
X58162099Y-49911175D01*
X58014890Y-49866524D01*
X57785000Y-49987845D01*
X57531000Y-49987845D01*
X57301110Y-49866524D01*
X57153901Y-49911175D01*
X56891080Y-50036359D01*
X56657731Y-50210412D01*
X56462822Y-50426645D01*
X56397066Y-50537035D01*
X56397066Y-50458000D01*
X56388822Y-50374293D01*
X56364405Y-50293804D01*
X56324755Y-50219624D01*
X56271395Y-50154605D01*
X56206376Y-50101245D01*
X56132196Y-50061595D01*
X56051707Y-50037178D01*
X55968000Y-50028934D01*
X54268000Y-50028934D01*
X54184293Y-50037178D01*
X54103804Y-50061595D01*
X54029624Y-50101245D01*
X53964605Y-50154605D01*
X53911245Y-50219624D01*
X53871595Y-50293804D01*
X53847178Y-50374293D01*
X53838934Y-50458000D01*
X20452000Y-50458000D01*
X20452000Y-48426000D01*
X76235928Y-48426000D01*
X76239000Y-48990250D01*
X76397750Y-49149000D01*
X77597000Y-49149000D01*
X77597000Y-47949750D01*
X77851000Y-47949750D01*
X77851000Y-49149000D01*
X79050250Y-49149000D01*
X79209000Y-48990250D01*
X79212072Y-48426000D01*
X79199812Y-48301518D01*
X79163502Y-48181820D01*
X79104537Y-48071506D01*
X79025185Y-47974815D01*
X78928494Y-47895463D01*
X78818180Y-47836498D01*
X78698482Y-47800188D01*
X78574000Y-47787928D01*
X78009750Y-47791000D01*
X77851000Y-47949750D01*
X77597000Y-47949750D01*
X77438250Y-47791000D01*
X76874000Y-47787928D01*
X76749518Y-47800188D01*
X76629820Y-47836498D01*
X76519506Y-47895463D01*
X76422815Y-47974815D01*
X76343463Y-48071506D01*
X76284498Y-48181820D01*
X76248188Y-48301518D01*
X76235928Y-48426000D01*
X20452000Y-48426000D01*
X20452000Y-44847249D01*
X25267450Y-44847249D01*
X25267450Y-45069859D01*
X25310879Y-45288192D01*
X25396068Y-45493857D01*
X25519744Y-45678951D01*
X25677153Y-45836360D01*
X25862247Y-45960036D01*
X26067912Y-46045225D01*
X26286245Y-46088654D01*
X26508855Y-46088654D01*
X26727188Y-46045225D01*
X26932853Y-45960036D01*
X27117947Y-45836360D01*
X27275356Y-45678951D01*
X27399032Y-45493857D01*
X27408105Y-45471951D01*
X27699900Y-45471951D01*
X27699900Y-45728049D01*
X27749862Y-45979225D01*
X27847866Y-46215828D01*
X27990146Y-46428766D01*
X28171234Y-46609854D01*
X28384172Y-46752134D01*
X28620775Y-46850138D01*
X28871951Y-46900100D01*
X29128049Y-46900100D01*
X29379225Y-46850138D01*
X29615828Y-46752134D01*
X29828766Y-46609854D01*
X30009854Y-46428766D01*
X30152134Y-46215828D01*
X30250138Y-45979225D01*
X30300100Y-45728049D01*
X30300100Y-45471951D01*
X30250138Y-45220775D01*
X30152134Y-44984172D01*
X30060646Y-44847249D01*
X30472350Y-44847249D01*
X30472350Y-45069859D01*
X30515779Y-45288192D01*
X30600968Y-45493857D01*
X30724644Y-45678951D01*
X30882053Y-45836360D01*
X31067147Y-45960036D01*
X31272812Y-46045225D01*
X31491145Y-46088654D01*
X31713755Y-46088654D01*
X31932088Y-46045225D01*
X32137753Y-45960036D01*
X32322847Y-45836360D01*
X32480256Y-45678951D01*
X32603932Y-45493857D01*
X32689121Y-45288192D01*
X32732550Y-45069859D01*
X32732550Y-44847249D01*
X47267450Y-44847249D01*
X47267450Y-45069859D01*
X47310879Y-45288192D01*
X47396068Y-45493857D01*
X47519744Y-45678951D01*
X47677153Y-45836360D01*
X47862247Y-45960036D01*
X48067912Y-46045225D01*
X48286245Y-46088654D01*
X48508855Y-46088654D01*
X48727188Y-46045225D01*
X48932853Y-45960036D01*
X49117947Y-45836360D01*
X49275356Y-45678951D01*
X49399032Y-45493857D01*
X49408105Y-45471951D01*
X49699900Y-45471951D01*
X49699900Y-45728049D01*
X49749862Y-45979225D01*
X49847866Y-46215828D01*
X49990146Y-46428766D01*
X50171234Y-46609854D01*
X50384172Y-46752134D01*
X50620775Y-46850138D01*
X50871951Y-46900100D01*
X51128049Y-46900100D01*
X51379225Y-46850138D01*
X51615828Y-46752134D01*
X51828766Y-46609854D01*
X52009854Y-46428766D01*
X52152134Y-46215828D01*
X52250138Y-45979225D01*
X52300100Y-45728049D01*
X52300100Y-45471951D01*
X52250138Y-45220775D01*
X52152134Y-44984172D01*
X52060646Y-44847249D01*
X52472350Y-44847249D01*
X52472350Y-45069859D01*
X52515779Y-45288192D01*
X52600968Y-45493857D01*
X52724644Y-45678951D01*
X52882053Y-45836360D01*
X53067147Y-45960036D01*
X53272812Y-46045225D01*
X53491145Y-46088654D01*
X53713755Y-46088654D01*
X53932088Y-46045225D01*
X54137753Y-45960036D01*
X54322847Y-45836360D01*
X54480256Y-45678951D01*
X54603932Y-45493857D01*
X54689121Y-45288192D01*
X54732550Y-45069859D01*
X54732550Y-44847249D01*
X54689121Y-44628916D01*
X54603932Y-44423251D01*
X54480256Y-44238157D01*
X54322847Y-44080748D01*
X54137753Y-43957072D01*
X53932088Y-43871883D01*
X53713755Y-43828454D01*
X53491145Y-43828454D01*
X53272812Y-43871883D01*
X53067147Y-43957072D01*
X52882053Y-44080748D01*
X52724644Y-44238157D01*
X52600968Y-44423251D01*
X52515779Y-44628916D01*
X52472350Y-44847249D01*
X52060646Y-44847249D01*
X52009854Y-44771234D01*
X51828766Y-44590146D01*
X51615828Y-44447866D01*
X51379225Y-44349862D01*
X51128049Y-44299900D01*
X50871951Y-44299900D01*
X50620775Y-44349862D01*
X50384172Y-44447866D01*
X50171234Y-44590146D01*
X49990146Y-44771234D01*
X49847866Y-44984172D01*
X49749862Y-45220775D01*
X49699900Y-45471951D01*
X49408105Y-45471951D01*
X49484221Y-45288192D01*
X49527650Y-45069859D01*
X49527650Y-44847249D01*
X49484221Y-44628916D01*
X49399032Y-44423251D01*
X49275356Y-44238157D01*
X49117947Y-44080748D01*
X48932853Y-43957072D01*
X48727188Y-43871883D01*
X48508855Y-43828454D01*
X48286245Y-43828454D01*
X48067912Y-43871883D01*
X47862247Y-43957072D01*
X47677153Y-44080748D01*
X47519744Y-44238157D01*
X47396068Y-44423251D01*
X47310879Y-44628916D01*
X47267450Y-44847249D01*
X32732550Y-44847249D01*
X32689121Y-44628916D01*
X32603932Y-44423251D01*
X32480256Y-44238157D01*
X32322847Y-44080748D01*
X32137753Y-43957072D01*
X31932088Y-43871883D01*
X31713755Y-43828454D01*
X31491145Y-43828454D01*
X31272812Y-43871883D01*
X31067147Y-43957072D01*
X30882053Y-44080748D01*
X30724644Y-44238157D01*
X30600968Y-44423251D01*
X30515779Y-44628916D01*
X30472350Y-44847249D01*
X30060646Y-44847249D01*
X30009854Y-44771234D01*
X29828766Y-44590146D01*
X29615828Y-44447866D01*
X29379225Y-44349862D01*
X29128049Y-44299900D01*
X28871951Y-44299900D01*
X28620775Y-44349862D01*
X28384172Y-44447866D01*
X28171234Y-44590146D01*
X27990146Y-44771234D01*
X27847866Y-44984172D01*
X27749862Y-45220775D01*
X27699900Y-45471951D01*
X27408105Y-45471951D01*
X27484221Y-45288192D01*
X27527650Y-45069859D01*
X27527650Y-44847249D01*
X27484221Y-44628916D01*
X27399032Y-44423251D01*
X27275356Y-44238157D01*
X27117947Y-44080748D01*
X26932853Y-43957072D01*
X26727188Y-43871883D01*
X26508855Y-43828454D01*
X26286245Y-43828454D01*
X26067912Y-43871883D01*
X25862247Y-43957072D01*
X25677153Y-44080748D01*
X25519744Y-44238157D01*
X25396068Y-44423251D01*
X25310879Y-44628916D01*
X25267450Y-44847249D01*
X20452000Y-44847249D01*
X20452000Y-43069858D01*
X23261190Y-43069858D01*
X23261190Y-43292468D01*
X23304619Y-43510801D01*
X23389808Y-43716466D01*
X23513484Y-43901560D01*
X23670893Y-44058969D01*
X23855987Y-44182645D01*
X24061652Y-44267834D01*
X24279985Y-44311263D01*
X24502595Y-44311263D01*
X24720928Y-44267834D01*
X24926593Y-44182645D01*
X25111687Y-44058969D01*
X25269096Y-43901560D01*
X25392772Y-43716466D01*
X25477961Y-43510801D01*
X25521390Y-43292468D01*
X25521390Y-43069858D01*
X32478610Y-43069858D01*
X32478610Y-43292468D01*
X32522039Y-43510801D01*
X32607228Y-43716466D01*
X32730904Y-43901560D01*
X32888313Y-44058969D01*
X33073407Y-44182645D01*
X33279072Y-44267834D01*
X33497405Y-44311263D01*
X33720015Y-44311263D01*
X33938348Y-44267834D01*
X34144013Y-44182645D01*
X34329107Y-44058969D01*
X34486516Y-43901560D01*
X34610192Y-43716466D01*
X34695381Y-43510801D01*
X34738810Y-43292468D01*
X34738810Y-43069858D01*
X45261190Y-43069858D01*
X45261190Y-43292468D01*
X45304619Y-43510801D01*
X45389808Y-43716466D01*
X45513484Y-43901560D01*
X45670893Y-44058969D01*
X45855987Y-44182645D01*
X46061652Y-44267834D01*
X46279985Y-44311263D01*
X46502595Y-44311263D01*
X46720928Y-44267834D01*
X46926593Y-44182645D01*
X47111687Y-44058969D01*
X47269096Y-43901560D01*
X47392772Y-43716466D01*
X47477961Y-43510801D01*
X47521390Y-43292468D01*
X47521390Y-43069858D01*
X54478610Y-43069858D01*
X54478610Y-43292468D01*
X54522039Y-43510801D01*
X54607228Y-43716466D01*
X54730904Y-43901560D01*
X54888313Y-44058969D01*
X55073407Y-44182645D01*
X55279072Y-44267834D01*
X55497405Y-44311263D01*
X55720015Y-44311263D01*
X55938348Y-44267834D01*
X56144013Y-44182645D01*
X56329107Y-44058969D01*
X56486516Y-43901560D01*
X56610192Y-43716466D01*
X56695381Y-43510801D01*
X56738810Y-43292468D01*
X56738810Y-43069858D01*
X56695381Y-42851525D01*
X56610192Y-42645860D01*
X56486516Y-42460766D01*
X56329107Y-42303357D01*
X56144013Y-42179681D01*
X55938348Y-42094492D01*
X55720015Y-42051063D01*
X55497405Y-42051063D01*
X55279072Y-42094492D01*
X55073407Y-42179681D01*
X54888313Y-42303357D01*
X54730904Y-42460766D01*
X54607228Y-42645860D01*
X54522039Y-42851525D01*
X54478610Y-43069858D01*
X47521390Y-43069858D01*
X47477961Y-42851525D01*
X47392772Y-42645860D01*
X47269096Y-42460766D01*
X47111687Y-42303357D01*
X46926593Y-42179681D01*
X46720928Y-42094492D01*
X46502595Y-42051063D01*
X46279985Y-42051063D01*
X46061652Y-42094492D01*
X45855987Y-42179681D01*
X45670893Y-42303357D01*
X45513484Y-42460766D01*
X45389808Y-42645860D01*
X45304619Y-42851525D01*
X45261190Y-43069858D01*
X34738810Y-43069858D01*
X34695381Y-42851525D01*
X34610192Y-42645860D01*
X34486516Y-42460766D01*
X34329107Y-42303357D01*
X34144013Y-42179681D01*
X33938348Y-42094492D01*
X33720015Y-42051063D01*
X33497405Y-42051063D01*
X33279072Y-42094492D01*
X33073407Y-42179681D01*
X32888313Y-42303357D01*
X32730904Y-42460766D01*
X32607228Y-42645860D01*
X32522039Y-42851525D01*
X32478610Y-43069858D01*
X25521390Y-43069858D01*
X25477961Y-42851525D01*
X25392772Y-42645860D01*
X25269096Y-42460766D01*
X25111687Y-42303357D01*
X24926593Y-42179681D01*
X24720928Y-42094492D01*
X24502595Y-42051063D01*
X24279985Y-42051063D01*
X24061652Y-42094492D01*
X23855987Y-42179681D01*
X23670893Y-42303357D01*
X23513484Y-42460766D01*
X23389808Y-42645860D01*
X23304619Y-42851525D01*
X23261190Y-43069858D01*
X20452000Y-43069858D01*
X20452000Y-40563700D01*
X22310730Y-40563700D01*
X22310730Y-40786310D01*
X22354159Y-41004643D01*
X22439348Y-41210308D01*
X22563024Y-41395402D01*
X22720433Y-41552811D01*
X22905527Y-41676487D01*
X23111192Y-41761676D01*
X23329525Y-41805105D01*
X23552135Y-41805105D01*
X23770468Y-41761676D01*
X23976133Y-41676487D01*
X24161227Y-41552811D01*
X24318636Y-41395402D01*
X24442312Y-41210308D01*
X24527501Y-41004643D01*
X24570930Y-40786310D01*
X24570930Y-40563700D01*
X33429070Y-40563700D01*
X33429070Y-40786310D01*
X33472499Y-41004643D01*
X33557688Y-41210308D01*
X33681364Y-41395402D01*
X33838773Y-41552811D01*
X34023867Y-41676487D01*
X34229532Y-41761676D01*
X34447865Y-41805105D01*
X34670475Y-41805105D01*
X34888808Y-41761676D01*
X35094473Y-41676487D01*
X35279567Y-41552811D01*
X35436976Y-41395402D01*
X35560652Y-41210308D01*
X35645841Y-41004643D01*
X35689270Y-40786310D01*
X35689270Y-40563700D01*
X44310730Y-40563700D01*
X44310730Y-40786310D01*
X44354159Y-41004643D01*
X44439348Y-41210308D01*
X44563024Y-41395402D01*
X44720433Y-41552811D01*
X44905527Y-41676487D01*
X45111192Y-41761676D01*
X45329525Y-41805105D01*
X45552135Y-41805105D01*
X45770468Y-41761676D01*
X45976133Y-41676487D01*
X46161227Y-41552811D01*
X46318636Y-41395402D01*
X46442312Y-41210308D01*
X46527501Y-41004643D01*
X46570930Y-40786310D01*
X46570930Y-40563700D01*
X55429070Y-40563700D01*
X55429070Y-40786310D01*
X55472499Y-41004643D01*
X55557688Y-41210308D01*
X55681364Y-41395402D01*
X55838773Y-41552811D01*
X56023867Y-41676487D01*
X56229532Y-41761676D01*
X56447865Y-41805105D01*
X56670475Y-41805105D01*
X56888808Y-41761676D01*
X57094473Y-41676487D01*
X57279567Y-41552811D01*
X57436976Y-41395402D01*
X57560652Y-41210308D01*
X57645841Y-41004643D01*
X57689270Y-40786310D01*
X57689270Y-40563700D01*
X57688246Y-40558548D01*
X58228000Y-40558548D01*
X58228000Y-40721452D01*
X58259782Y-40881227D01*
X58322123Y-41031731D01*
X58412628Y-41167181D01*
X58428000Y-41182553D01*
X58428000Y-41244207D01*
X58428001Y-45812446D01*
X58412628Y-45827819D01*
X58322123Y-45963269D01*
X58259782Y-46113773D01*
X58228000Y-46273548D01*
X58228000Y-46436452D01*
X58259782Y-46596227D01*
X58322123Y-46746731D01*
X58412628Y-46882181D01*
X58527819Y-46997372D01*
X58663269Y-47087877D01*
X58813773Y-47150218D01*
X58973548Y-47182000D01*
X59136452Y-47182000D01*
X59296227Y-47150218D01*
X59446731Y-47087877D01*
X59582181Y-46997372D01*
X59697372Y-46882181D01*
X59787877Y-46746731D01*
X59850218Y-46596227D01*
X59882000Y-46436452D01*
X59882000Y-46273548D01*
X59850218Y-46113773D01*
X59787877Y-45963269D01*
X59697372Y-45827819D01*
X59682000Y-45812447D01*
X59682000Y-45046000D01*
X60995928Y-45046000D01*
X61008188Y-45170482D01*
X61044498Y-45290180D01*
X61103463Y-45400494D01*
X61182815Y-45497185D01*
X61279506Y-45576537D01*
X61389820Y-45635502D01*
X61509518Y-45671812D01*
X61634000Y-45684072D01*
X62198250Y-45681000D01*
X62357000Y-45522250D01*
X62357000Y-44323000D01*
X62611000Y-44323000D01*
X62611000Y-45522250D01*
X62769750Y-45681000D01*
X63334000Y-45684072D01*
X63458482Y-45671812D01*
X63578180Y-45635502D01*
X63688494Y-45576537D01*
X63785185Y-45497185D01*
X63864537Y-45400494D01*
X63923502Y-45290180D01*
X63959812Y-45170482D01*
X63972072Y-45046000D01*
X63970990Y-44847249D01*
X85267450Y-44847249D01*
X85267450Y-45069859D01*
X85310879Y-45288192D01*
X85396068Y-45493857D01*
X85519744Y-45678951D01*
X85677153Y-45836360D01*
X85862247Y-45960036D01*
X86067912Y-46045225D01*
X86286245Y-46088654D01*
X86508855Y-46088654D01*
X86727188Y-46045225D01*
X86932853Y-45960036D01*
X87117947Y-45836360D01*
X87275356Y-45678951D01*
X87399032Y-45493857D01*
X87408105Y-45471951D01*
X87699900Y-45471951D01*
X87699900Y-45728049D01*
X87749862Y-45979225D01*
X87847866Y-46215828D01*
X87990146Y-46428766D01*
X88171234Y-46609854D01*
X88384172Y-46752134D01*
X88620775Y-46850138D01*
X88871951Y-46900100D01*
X89128049Y-46900100D01*
X89379225Y-46850138D01*
X89615828Y-46752134D01*
X89828766Y-46609854D01*
X90009854Y-46428766D01*
X90152134Y-46215828D01*
X90250138Y-45979225D01*
X90300100Y-45728049D01*
X90300100Y-45471951D01*
X90250138Y-45220775D01*
X90152134Y-44984172D01*
X90060646Y-44847249D01*
X90472350Y-44847249D01*
X90472350Y-45069859D01*
X90515779Y-45288192D01*
X90600968Y-45493857D01*
X90724644Y-45678951D01*
X90882053Y-45836360D01*
X91067147Y-45960036D01*
X91272812Y-46045225D01*
X91491145Y-46088654D01*
X91713755Y-46088654D01*
X91932088Y-46045225D01*
X92137753Y-45960036D01*
X92322847Y-45836360D01*
X92480256Y-45678951D01*
X92603932Y-45493857D01*
X92689121Y-45288192D01*
X92732550Y-45069859D01*
X92732550Y-44847249D01*
X107267450Y-44847249D01*
X107267450Y-45069859D01*
X107310879Y-45288192D01*
X107396068Y-45493857D01*
X107519744Y-45678951D01*
X107677153Y-45836360D01*
X107862247Y-45960036D01*
X108067912Y-46045225D01*
X108286245Y-46088654D01*
X108508855Y-46088654D01*
X108727188Y-46045225D01*
X108932853Y-45960036D01*
X109117947Y-45836360D01*
X109275356Y-45678951D01*
X109399032Y-45493857D01*
X109408105Y-45471951D01*
X109699900Y-45471951D01*
X109699900Y-45728049D01*
X109749862Y-45979225D01*
X109847866Y-46215828D01*
X109990146Y-46428766D01*
X110171234Y-46609854D01*
X110384172Y-46752134D01*
X110620775Y-46850138D01*
X110871951Y-46900100D01*
X111128049Y-46900100D01*
X111379225Y-46850138D01*
X111615828Y-46752134D01*
X111828766Y-46609854D01*
X112009854Y-46428766D01*
X112152134Y-46215828D01*
X112250138Y-45979225D01*
X112300100Y-45728049D01*
X112300100Y-45471951D01*
X112250138Y-45220775D01*
X112152134Y-44984172D01*
X112060646Y-44847249D01*
X112472350Y-44847249D01*
X112472350Y-45069859D01*
X112515779Y-45288192D01*
X112600968Y-45493857D01*
X112724644Y-45678951D01*
X112882053Y-45836360D01*
X113067147Y-45960036D01*
X113272812Y-46045225D01*
X113491145Y-46088654D01*
X113713755Y-46088654D01*
X113932088Y-46045225D01*
X114137753Y-45960036D01*
X114322847Y-45836360D01*
X114480256Y-45678951D01*
X114603932Y-45493857D01*
X114689121Y-45288192D01*
X114732550Y-45069859D01*
X114732550Y-44847249D01*
X114689121Y-44628916D01*
X114603932Y-44423251D01*
X114480256Y-44238157D01*
X114322847Y-44080748D01*
X114137753Y-43957072D01*
X113932088Y-43871883D01*
X113713755Y-43828454D01*
X113491145Y-43828454D01*
X113272812Y-43871883D01*
X113067147Y-43957072D01*
X112882053Y-44080748D01*
X112724644Y-44238157D01*
X112600968Y-44423251D01*
X112515779Y-44628916D01*
X112472350Y-44847249D01*
X112060646Y-44847249D01*
X112009854Y-44771234D01*
X111828766Y-44590146D01*
X111615828Y-44447866D01*
X111379225Y-44349862D01*
X111128049Y-44299900D01*
X110871951Y-44299900D01*
X110620775Y-44349862D01*
X110384172Y-44447866D01*
X110171234Y-44590146D01*
X109990146Y-44771234D01*
X109847866Y-44984172D01*
X109749862Y-45220775D01*
X109699900Y-45471951D01*
X109408105Y-45471951D01*
X109484221Y-45288192D01*
X109527650Y-45069859D01*
X109527650Y-44847249D01*
X109484221Y-44628916D01*
X109399032Y-44423251D01*
X109275356Y-44238157D01*
X109117947Y-44080748D01*
X108932853Y-43957072D01*
X108727188Y-43871883D01*
X108508855Y-43828454D01*
X108286245Y-43828454D01*
X108067912Y-43871883D01*
X107862247Y-43957072D01*
X107677153Y-44080748D01*
X107519744Y-44238157D01*
X107396068Y-44423251D01*
X107310879Y-44628916D01*
X107267450Y-44847249D01*
X92732550Y-44847249D01*
X92689121Y-44628916D01*
X92603932Y-44423251D01*
X92480256Y-44238157D01*
X92322847Y-44080748D01*
X92137753Y-43957072D01*
X91932088Y-43871883D01*
X91713755Y-43828454D01*
X91491145Y-43828454D01*
X91272812Y-43871883D01*
X91067147Y-43957072D01*
X90882053Y-44080748D01*
X90724644Y-44238157D01*
X90600968Y-44423251D01*
X90515779Y-44628916D01*
X90472350Y-44847249D01*
X90060646Y-44847249D01*
X90009854Y-44771234D01*
X89828766Y-44590146D01*
X89615828Y-44447866D01*
X89379225Y-44349862D01*
X89128049Y-44299900D01*
X88871951Y-44299900D01*
X88620775Y-44349862D01*
X88384172Y-44447866D01*
X88171234Y-44590146D01*
X87990146Y-44771234D01*
X87847866Y-44984172D01*
X87749862Y-45220775D01*
X87699900Y-45471951D01*
X87408105Y-45471951D01*
X87484221Y-45288192D01*
X87527650Y-45069859D01*
X87527650Y-44847249D01*
X87484221Y-44628916D01*
X87399032Y-44423251D01*
X87275356Y-44238157D01*
X87117947Y-44080748D01*
X86932853Y-43957072D01*
X86727188Y-43871883D01*
X86508855Y-43828454D01*
X86286245Y-43828454D01*
X86067912Y-43871883D01*
X85862247Y-43957072D01*
X85677153Y-44080748D01*
X85519744Y-44238157D01*
X85396068Y-44423251D01*
X85310879Y-44628916D01*
X85267450Y-44847249D01*
X63970990Y-44847249D01*
X63969000Y-44481750D01*
X63810250Y-44323000D01*
X62611000Y-44323000D01*
X62357000Y-44323000D01*
X61157750Y-44323000D01*
X60999000Y-44481750D01*
X60995928Y-45046000D01*
X59682000Y-45046000D01*
X59682000Y-43346000D01*
X60995928Y-43346000D01*
X60999000Y-43910250D01*
X61157750Y-44069000D01*
X62357000Y-44069000D01*
X62357000Y-42869750D01*
X62611000Y-42869750D01*
X62611000Y-44069000D01*
X63810250Y-44069000D01*
X63969000Y-43910250D01*
X63972072Y-43346000D01*
X63959812Y-43221518D01*
X63923502Y-43101820D01*
X63906418Y-43069858D01*
X83261190Y-43069858D01*
X83261190Y-43292468D01*
X83304619Y-43510801D01*
X83389808Y-43716466D01*
X83513484Y-43901560D01*
X83670893Y-44058969D01*
X83855987Y-44182645D01*
X84061652Y-44267834D01*
X84279985Y-44311263D01*
X84502595Y-44311263D01*
X84720928Y-44267834D01*
X84926593Y-44182645D01*
X85111687Y-44058969D01*
X85269096Y-43901560D01*
X85392772Y-43716466D01*
X85477961Y-43510801D01*
X85521390Y-43292468D01*
X85521390Y-43069858D01*
X92478610Y-43069858D01*
X92478610Y-43292468D01*
X92522039Y-43510801D01*
X92607228Y-43716466D01*
X92730904Y-43901560D01*
X92888313Y-44058969D01*
X93073407Y-44182645D01*
X93279072Y-44267834D01*
X93497405Y-44311263D01*
X93720015Y-44311263D01*
X93938348Y-44267834D01*
X94144013Y-44182645D01*
X94329107Y-44058969D01*
X94486516Y-43901560D01*
X94610192Y-43716466D01*
X94695381Y-43510801D01*
X94738810Y-43292468D01*
X94738810Y-43069858D01*
X105261190Y-43069858D01*
X105261190Y-43292468D01*
X105304619Y-43510801D01*
X105389808Y-43716466D01*
X105513484Y-43901560D01*
X105670893Y-44058969D01*
X105855987Y-44182645D01*
X106061652Y-44267834D01*
X106279985Y-44311263D01*
X106502595Y-44311263D01*
X106720928Y-44267834D01*
X106926593Y-44182645D01*
X107111687Y-44058969D01*
X107269096Y-43901560D01*
X107392772Y-43716466D01*
X107477961Y-43510801D01*
X107521390Y-43292468D01*
X107521390Y-43069858D01*
X114478610Y-43069858D01*
X114478610Y-43292468D01*
X114522039Y-43510801D01*
X114607228Y-43716466D01*
X114730904Y-43901560D01*
X114888313Y-44058969D01*
X115073407Y-44182645D01*
X115279072Y-44267834D01*
X115497405Y-44311263D01*
X115720015Y-44311263D01*
X115938348Y-44267834D01*
X116144013Y-44182645D01*
X116329107Y-44058969D01*
X116486516Y-43901560D01*
X116610192Y-43716466D01*
X116695381Y-43510801D01*
X116738810Y-43292468D01*
X116738810Y-43069858D01*
X116695381Y-42851525D01*
X116610192Y-42645860D01*
X116486516Y-42460766D01*
X116329107Y-42303357D01*
X116144013Y-42179681D01*
X115938348Y-42094492D01*
X115720015Y-42051063D01*
X115497405Y-42051063D01*
X115279072Y-42094492D01*
X115073407Y-42179681D01*
X114888313Y-42303357D01*
X114730904Y-42460766D01*
X114607228Y-42645860D01*
X114522039Y-42851525D01*
X114478610Y-43069858D01*
X107521390Y-43069858D01*
X107477961Y-42851525D01*
X107392772Y-42645860D01*
X107269096Y-42460766D01*
X107111687Y-42303357D01*
X106926593Y-42179681D01*
X106720928Y-42094492D01*
X106502595Y-42051063D01*
X106279985Y-42051063D01*
X106061652Y-42094492D01*
X105855987Y-42179681D01*
X105670893Y-42303357D01*
X105513484Y-42460766D01*
X105389808Y-42645860D01*
X105304619Y-42851525D01*
X105261190Y-43069858D01*
X94738810Y-43069858D01*
X94695381Y-42851525D01*
X94610192Y-42645860D01*
X94486516Y-42460766D01*
X94329107Y-42303357D01*
X94144013Y-42179681D01*
X93938348Y-42094492D01*
X93720015Y-42051063D01*
X93497405Y-42051063D01*
X93279072Y-42094492D01*
X93073407Y-42179681D01*
X92888313Y-42303357D01*
X92730904Y-42460766D01*
X92607228Y-42645860D01*
X92522039Y-42851525D01*
X92478610Y-43069858D01*
X85521390Y-43069858D01*
X85477961Y-42851525D01*
X85392772Y-42645860D01*
X85269096Y-42460766D01*
X85111687Y-42303357D01*
X84926593Y-42179681D01*
X84720928Y-42094492D01*
X84502595Y-42051063D01*
X84279985Y-42051063D01*
X84061652Y-42094492D01*
X83855987Y-42179681D01*
X83670893Y-42303357D01*
X83513484Y-42460766D01*
X83389808Y-42645860D01*
X83304619Y-42851525D01*
X83261190Y-43069858D01*
X63906418Y-43069858D01*
X63864537Y-42991506D01*
X63785185Y-42894815D01*
X63688494Y-42815463D01*
X63578180Y-42756498D01*
X63458482Y-42720188D01*
X63334000Y-42707928D01*
X62769750Y-42711000D01*
X62611000Y-42869750D01*
X62357000Y-42869750D01*
X62198250Y-42711000D01*
X61634000Y-42707928D01*
X61509518Y-42720188D01*
X61389820Y-42756498D01*
X61279506Y-42815463D01*
X61182815Y-42894815D01*
X61103463Y-42991506D01*
X61044498Y-43101820D01*
X61008188Y-43221518D01*
X60995928Y-43346000D01*
X59682000Y-43346000D01*
X59682000Y-41182553D01*
X59697372Y-41167181D01*
X59787877Y-41031731D01*
X59850218Y-40881227D01*
X59882000Y-40721452D01*
X59882000Y-40558548D01*
X59850218Y-40398773D01*
X59787877Y-40248269D01*
X59697372Y-40112819D01*
X59582181Y-39997628D01*
X59446731Y-39907123D01*
X59343534Y-39864377D01*
X67353000Y-39864377D01*
X67353000Y-40135623D01*
X67405917Y-40401656D01*
X67509718Y-40652254D01*
X67660414Y-40877787D01*
X67852213Y-41069586D01*
X68077746Y-41220282D01*
X68328344Y-41324083D01*
X68594377Y-41377000D01*
X68865623Y-41377000D01*
X69131656Y-41324083D01*
X69382254Y-41220282D01*
X69607787Y-41069586D01*
X69799586Y-40877787D01*
X69950282Y-40652254D01*
X70054083Y-40401656D01*
X70086665Y-40237853D01*
X70109384Y-40352069D01*
X70200371Y-40571729D01*
X70332462Y-40769418D01*
X70500582Y-40937538D01*
X70698271Y-41069629D01*
X70917931Y-41160616D01*
X71151121Y-41207000D01*
X71388879Y-41207000D01*
X71622069Y-41160616D01*
X71841729Y-41069629D01*
X72039418Y-40937538D01*
X72207538Y-40769418D01*
X72339629Y-40571729D01*
X72342954Y-40563700D01*
X82310730Y-40563700D01*
X82310730Y-40786310D01*
X82354159Y-41004643D01*
X82439348Y-41210308D01*
X82563024Y-41395402D01*
X82720433Y-41552811D01*
X82905527Y-41676487D01*
X83111192Y-41761676D01*
X83329525Y-41805105D01*
X83552135Y-41805105D01*
X83770468Y-41761676D01*
X83976133Y-41676487D01*
X84161227Y-41552811D01*
X84318636Y-41395402D01*
X84442312Y-41210308D01*
X84527501Y-41004643D01*
X84570930Y-40786310D01*
X84570930Y-40563700D01*
X93429070Y-40563700D01*
X93429070Y-40786310D01*
X93472499Y-41004643D01*
X93557688Y-41210308D01*
X93681364Y-41395402D01*
X93838773Y-41552811D01*
X94023867Y-41676487D01*
X94229532Y-41761676D01*
X94447865Y-41805105D01*
X94670475Y-41805105D01*
X94888808Y-41761676D01*
X95094473Y-41676487D01*
X95279567Y-41552811D01*
X95436976Y-41395402D01*
X95560652Y-41210308D01*
X95645841Y-41004643D01*
X95689270Y-40786310D01*
X95689270Y-40563700D01*
X104310730Y-40563700D01*
X104310730Y-40786310D01*
X104354159Y-41004643D01*
X104439348Y-41210308D01*
X104563024Y-41395402D01*
X104720433Y-41552811D01*
X104905527Y-41676487D01*
X105111192Y-41761676D01*
X105329525Y-41805105D01*
X105552135Y-41805105D01*
X105770468Y-41761676D01*
X105976133Y-41676487D01*
X106161227Y-41552811D01*
X106318636Y-41395402D01*
X106442312Y-41210308D01*
X106527501Y-41004643D01*
X106570930Y-40786310D01*
X106570930Y-40563700D01*
X115429070Y-40563700D01*
X115429070Y-40786310D01*
X115472499Y-41004643D01*
X115557688Y-41210308D01*
X115681364Y-41395402D01*
X115838773Y-41552811D01*
X116023867Y-41676487D01*
X116229532Y-41761676D01*
X116447865Y-41805105D01*
X116670475Y-41805105D01*
X116888808Y-41761676D01*
X117094473Y-41676487D01*
X117279567Y-41552811D01*
X117436976Y-41395402D01*
X117560652Y-41210308D01*
X117645841Y-41004643D01*
X117689270Y-40786310D01*
X117689270Y-40563700D01*
X117645841Y-40345367D01*
X117560652Y-40139702D01*
X117436976Y-39954608D01*
X117279567Y-39797199D01*
X117094473Y-39673523D01*
X116888808Y-39588334D01*
X116670475Y-39544905D01*
X116447865Y-39544905D01*
X116229532Y-39588334D01*
X116023867Y-39673523D01*
X115838773Y-39797199D01*
X115681364Y-39954608D01*
X115557688Y-40139702D01*
X115472499Y-40345367D01*
X115429070Y-40563700D01*
X106570930Y-40563700D01*
X106527501Y-40345367D01*
X106442312Y-40139702D01*
X106318636Y-39954608D01*
X106161227Y-39797199D01*
X105976133Y-39673523D01*
X105770468Y-39588334D01*
X105552135Y-39544905D01*
X105329525Y-39544905D01*
X105111192Y-39588334D01*
X104905527Y-39673523D01*
X104720433Y-39797199D01*
X104563024Y-39954608D01*
X104439348Y-40139702D01*
X104354159Y-40345367D01*
X104310730Y-40563700D01*
X95689270Y-40563700D01*
X95645841Y-40345367D01*
X95560652Y-40139702D01*
X95436976Y-39954608D01*
X95279567Y-39797199D01*
X95094473Y-39673523D01*
X94888808Y-39588334D01*
X94670475Y-39544905D01*
X94447865Y-39544905D01*
X94229532Y-39588334D01*
X94023867Y-39673523D01*
X93838773Y-39797199D01*
X93681364Y-39954608D01*
X93557688Y-40139702D01*
X93472499Y-40345367D01*
X93429070Y-40563700D01*
X84570930Y-40563700D01*
X84527501Y-40345367D01*
X84442312Y-40139702D01*
X84318636Y-39954608D01*
X84161227Y-39797199D01*
X83976133Y-39673523D01*
X83770468Y-39588334D01*
X83552135Y-39544905D01*
X83329525Y-39544905D01*
X83111192Y-39588334D01*
X82905527Y-39673523D01*
X82720433Y-39797199D01*
X82563024Y-39954608D01*
X82439348Y-40139702D01*
X82354159Y-40345367D01*
X82310730Y-40563700D01*
X72342954Y-40563700D01*
X72430616Y-40352069D01*
X72477000Y-40118879D01*
X72477000Y-39881121D01*
X72430616Y-39647931D01*
X72339629Y-39428271D01*
X72207538Y-39230582D01*
X72039418Y-39062462D01*
X71841729Y-38930371D01*
X71622069Y-38839384D01*
X71388879Y-38793000D01*
X71151121Y-38793000D01*
X70917931Y-38839384D01*
X70698271Y-38930371D01*
X70500582Y-39062462D01*
X70332462Y-39230582D01*
X70200371Y-39428271D01*
X70109384Y-39647931D01*
X70086665Y-39762147D01*
X70054083Y-39598344D01*
X69950282Y-39347746D01*
X69799586Y-39122213D01*
X69607787Y-38930414D01*
X69382254Y-38779718D01*
X69131656Y-38675917D01*
X68865623Y-38623000D01*
X68594377Y-38623000D01*
X68328344Y-38675917D01*
X68077746Y-38779718D01*
X67852213Y-38930414D01*
X67660414Y-39122213D01*
X67509718Y-39347746D01*
X67405917Y-39598344D01*
X67353000Y-39864377D01*
X59343534Y-39864377D01*
X59296227Y-39844782D01*
X59136452Y-39813000D01*
X58973548Y-39813000D01*
X58813773Y-39844782D01*
X58663269Y-39907123D01*
X58527819Y-39997628D01*
X58412628Y-40112819D01*
X58322123Y-40248269D01*
X58259782Y-40398773D01*
X58228000Y-40558548D01*
X57688246Y-40558548D01*
X57645841Y-40345367D01*
X57560652Y-40139702D01*
X57436976Y-39954608D01*
X57279567Y-39797199D01*
X57094473Y-39673523D01*
X56888808Y-39588334D01*
X56670475Y-39544905D01*
X56447865Y-39544905D01*
X56229532Y-39588334D01*
X56023867Y-39673523D01*
X55838773Y-39797199D01*
X55681364Y-39954608D01*
X55557688Y-40139702D01*
X55472499Y-40345367D01*
X55429070Y-40563700D01*
X46570930Y-40563700D01*
X46527501Y-40345367D01*
X46442312Y-40139702D01*
X46318636Y-39954608D01*
X46161227Y-39797199D01*
X45976133Y-39673523D01*
X45770468Y-39588334D01*
X45552135Y-39544905D01*
X45329525Y-39544905D01*
X45111192Y-39588334D01*
X44905527Y-39673523D01*
X44720433Y-39797199D01*
X44563024Y-39954608D01*
X44439348Y-40139702D01*
X44354159Y-40345367D01*
X44310730Y-40563700D01*
X35689270Y-40563700D01*
X35645841Y-40345367D01*
X35560652Y-40139702D01*
X35436976Y-39954608D01*
X35279567Y-39797199D01*
X35094473Y-39673523D01*
X34888808Y-39588334D01*
X34670475Y-39544905D01*
X34447865Y-39544905D01*
X34229532Y-39588334D01*
X34023867Y-39673523D01*
X33838773Y-39797199D01*
X33681364Y-39954608D01*
X33557688Y-40139702D01*
X33472499Y-40345367D01*
X33429070Y-40563700D01*
X24570930Y-40563700D01*
X24527501Y-40345367D01*
X24442312Y-40139702D01*
X24318636Y-39954608D01*
X24161227Y-39797199D01*
X23976133Y-39673523D01*
X23770468Y-39588334D01*
X23552135Y-39544905D01*
X23329525Y-39544905D01*
X23111192Y-39588334D01*
X22905527Y-39673523D01*
X22720433Y-39797199D01*
X22563024Y-39954608D01*
X22439348Y-40139702D01*
X22354159Y-40345367D01*
X22310730Y-40563700D01*
X20452000Y-40563700D01*
X20452000Y-37902908D01*
X22633809Y-37902908D01*
X22633809Y-38125518D01*
X22677238Y-38343851D01*
X22762427Y-38549516D01*
X22886103Y-38734610D01*
X23043512Y-38892019D01*
X23228606Y-39015695D01*
X23434271Y-39100884D01*
X23652604Y-39144313D01*
X23875214Y-39144313D01*
X24093547Y-39100884D01*
X24299212Y-39015695D01*
X24484306Y-38892019D01*
X24641715Y-38734610D01*
X24765391Y-38549516D01*
X24850580Y-38343851D01*
X24894009Y-38125518D01*
X24894009Y-37902908D01*
X33105991Y-37902908D01*
X33105991Y-38125518D01*
X33149420Y-38343851D01*
X33234609Y-38549516D01*
X33358285Y-38734610D01*
X33515694Y-38892019D01*
X33700788Y-39015695D01*
X33906453Y-39100884D01*
X34124786Y-39144313D01*
X34347396Y-39144313D01*
X34565729Y-39100884D01*
X34771394Y-39015695D01*
X34956488Y-38892019D01*
X35113897Y-38734610D01*
X35237573Y-38549516D01*
X35322762Y-38343851D01*
X35366191Y-38125518D01*
X35366191Y-37902908D01*
X44633809Y-37902908D01*
X44633809Y-38125518D01*
X44677238Y-38343851D01*
X44762427Y-38549516D01*
X44886103Y-38734610D01*
X45043512Y-38892019D01*
X45228606Y-39015695D01*
X45434271Y-39100884D01*
X45652604Y-39144313D01*
X45875214Y-39144313D01*
X46093547Y-39100884D01*
X46299212Y-39015695D01*
X46484306Y-38892019D01*
X46641715Y-38734610D01*
X46765391Y-38549516D01*
X46850580Y-38343851D01*
X46894009Y-38125518D01*
X46894009Y-37902908D01*
X55105991Y-37902908D01*
X55105991Y-38125518D01*
X55149420Y-38343851D01*
X55234609Y-38549516D01*
X55358285Y-38734610D01*
X55515694Y-38892019D01*
X55700788Y-39015695D01*
X55906453Y-39100884D01*
X56124786Y-39144313D01*
X56347396Y-39144313D01*
X56565729Y-39100884D01*
X56771394Y-39015695D01*
X56956488Y-38892019D01*
X57113897Y-38734610D01*
X57237573Y-38549516D01*
X57322762Y-38343851D01*
X57366191Y-38125518D01*
X57366191Y-38018548D01*
X58863000Y-38018548D01*
X58863000Y-38181452D01*
X58894782Y-38341227D01*
X58957123Y-38491731D01*
X59047628Y-38627181D01*
X59162819Y-38742372D01*
X59298269Y-38832877D01*
X59448773Y-38895218D01*
X59608548Y-38927000D01*
X59771452Y-38927000D01*
X59931227Y-38895218D01*
X60081731Y-38832877D01*
X60217181Y-38742372D01*
X60332372Y-38627181D01*
X60422877Y-38491731D01*
X60485218Y-38341227D01*
X60517000Y-38181452D01*
X60517000Y-38159711D01*
X60531572Y-38145139D01*
X60555500Y-38125502D01*
X60633852Y-38030029D01*
X60692074Y-37921104D01*
X60697593Y-37902908D01*
X82633809Y-37902908D01*
X82633809Y-38125518D01*
X82677238Y-38343851D01*
X82762427Y-38549516D01*
X82886103Y-38734610D01*
X83043512Y-38892019D01*
X83228606Y-39015695D01*
X83434271Y-39100884D01*
X83652604Y-39144313D01*
X83875214Y-39144313D01*
X84093547Y-39100884D01*
X84299212Y-39015695D01*
X84484306Y-38892019D01*
X84641715Y-38734610D01*
X84765391Y-38549516D01*
X84850580Y-38343851D01*
X84894009Y-38125518D01*
X84894009Y-37902908D01*
X93105991Y-37902908D01*
X93105991Y-38125518D01*
X93149420Y-38343851D01*
X93234609Y-38549516D01*
X93358285Y-38734610D01*
X93515694Y-38892019D01*
X93700788Y-39015695D01*
X93906453Y-39100884D01*
X94124786Y-39144313D01*
X94347396Y-39144313D01*
X94565729Y-39100884D01*
X94771394Y-39015695D01*
X94956488Y-38892019D01*
X95113897Y-38734610D01*
X95237573Y-38549516D01*
X95322762Y-38343851D01*
X95366191Y-38125518D01*
X95366191Y-37902908D01*
X104633809Y-37902908D01*
X104633809Y-38125518D01*
X104677238Y-38343851D01*
X104762427Y-38549516D01*
X104886103Y-38734610D01*
X105043512Y-38892019D01*
X105228606Y-39015695D01*
X105434271Y-39100884D01*
X105652604Y-39144313D01*
X105875214Y-39144313D01*
X106093547Y-39100884D01*
X106299212Y-39015695D01*
X106484306Y-38892019D01*
X106641715Y-38734610D01*
X106765391Y-38549516D01*
X106850580Y-38343851D01*
X106894009Y-38125518D01*
X106894009Y-37902908D01*
X115105991Y-37902908D01*
X115105991Y-38125518D01*
X115149420Y-38343851D01*
X115234609Y-38549516D01*
X115358285Y-38734610D01*
X115515694Y-38892019D01*
X115700788Y-39015695D01*
X115906453Y-39100884D01*
X116124786Y-39144313D01*
X116347396Y-39144313D01*
X116565729Y-39100884D01*
X116771394Y-39015695D01*
X116956488Y-38892019D01*
X117113897Y-38734610D01*
X117237573Y-38549516D01*
X117322762Y-38343851D01*
X117366191Y-38125518D01*
X117366191Y-37902908D01*
X117322762Y-37684575D01*
X117237573Y-37478910D01*
X117113897Y-37293816D01*
X116956488Y-37136407D01*
X116771394Y-37012731D01*
X116565729Y-36927542D01*
X116347396Y-36884113D01*
X116124786Y-36884113D01*
X115906453Y-36927542D01*
X115700788Y-37012731D01*
X115515694Y-37136407D01*
X115358285Y-37293816D01*
X115234609Y-37478910D01*
X115149420Y-37684575D01*
X115105991Y-37902908D01*
X106894009Y-37902908D01*
X106850580Y-37684575D01*
X106765391Y-37478910D01*
X106641715Y-37293816D01*
X106484306Y-37136407D01*
X106299212Y-37012731D01*
X106093547Y-36927542D01*
X105875214Y-36884113D01*
X105652604Y-36884113D01*
X105434271Y-36927542D01*
X105228606Y-37012731D01*
X105043512Y-37136407D01*
X104886103Y-37293816D01*
X104762427Y-37478910D01*
X104677238Y-37684575D01*
X104633809Y-37902908D01*
X95366191Y-37902908D01*
X95322762Y-37684575D01*
X95237573Y-37478910D01*
X95113897Y-37293816D01*
X94956488Y-37136407D01*
X94771394Y-37012731D01*
X94565729Y-36927542D01*
X94347396Y-36884113D01*
X94124786Y-36884113D01*
X93906453Y-36927542D01*
X93700788Y-37012731D01*
X93515694Y-37136407D01*
X93358285Y-37293816D01*
X93234609Y-37478910D01*
X93149420Y-37684575D01*
X93105991Y-37902908D01*
X84894009Y-37902908D01*
X84850580Y-37684575D01*
X84765391Y-37478910D01*
X84641715Y-37293816D01*
X84484306Y-37136407D01*
X84299212Y-37012731D01*
X84093547Y-36927542D01*
X83875214Y-36884113D01*
X83652604Y-36884113D01*
X83434271Y-36927542D01*
X83228606Y-37012731D01*
X83043512Y-37136407D01*
X82886103Y-37293816D01*
X82762427Y-37478910D01*
X82677238Y-37684575D01*
X82633809Y-37902908D01*
X60697593Y-37902908D01*
X60727926Y-37802914D01*
X60736999Y-37710795D01*
X60736999Y-37710794D01*
X60740032Y-37680002D01*
X60736999Y-37649210D01*
X60736999Y-35596843D01*
X60878548Y-35625000D01*
X60902444Y-35625000D01*
X60961971Y-35673852D01*
X61070896Y-35732074D01*
X61189086Y-35767926D01*
X61311999Y-35780032D01*
X61342793Y-35776999D01*
X68001157Y-35776999D01*
X67973000Y-35918548D01*
X67973000Y-36081452D01*
X68004782Y-36241227D01*
X68067123Y-36391731D01*
X68157628Y-36527181D01*
X68272819Y-36642372D01*
X68408269Y-36732877D01*
X68558773Y-36795218D01*
X68718548Y-36827000D01*
X68881452Y-36827000D01*
X69041227Y-36795218D01*
X69191731Y-36732877D01*
X69327181Y-36642372D01*
X69342553Y-36627000D01*
X74870458Y-36627000D01*
X74901252Y-36630033D01*
X74932046Y-36627000D01*
X75024165Y-36617927D01*
X75142355Y-36582075D01*
X75251280Y-36523853D01*
X75346753Y-36445501D01*
X75366390Y-36421573D01*
X76090928Y-35697035D01*
X84156413Y-35697035D01*
X84156413Y-35919645D01*
X84199842Y-36137978D01*
X84285031Y-36343643D01*
X84408707Y-36528737D01*
X84566116Y-36686146D01*
X84751210Y-36809822D01*
X84956875Y-36895011D01*
X85175208Y-36938440D01*
X85397818Y-36938440D01*
X85616151Y-36895011D01*
X85821816Y-36809822D01*
X86006910Y-36686146D01*
X86164319Y-36528737D01*
X86287995Y-36343643D01*
X86373184Y-36137978D01*
X86416613Y-35919645D01*
X86416613Y-35697035D01*
X91583387Y-35697035D01*
X91583387Y-35919645D01*
X91626816Y-36137978D01*
X91712005Y-36343643D01*
X91835681Y-36528737D01*
X91993090Y-36686146D01*
X92178184Y-36809822D01*
X92383849Y-36895011D01*
X92602182Y-36938440D01*
X92824792Y-36938440D01*
X93043125Y-36895011D01*
X93248790Y-36809822D01*
X93433884Y-36686146D01*
X93591293Y-36528737D01*
X93714969Y-36343643D01*
X93800158Y-36137978D01*
X93843587Y-35919645D01*
X93843587Y-35697035D01*
X106156413Y-35697035D01*
X106156413Y-35919645D01*
X106199842Y-36137978D01*
X106285031Y-36343643D01*
X106408707Y-36528737D01*
X106566116Y-36686146D01*
X106751210Y-36809822D01*
X106956875Y-36895011D01*
X107175208Y-36938440D01*
X107397818Y-36938440D01*
X107616151Y-36895011D01*
X107821816Y-36809822D01*
X108006910Y-36686146D01*
X108164319Y-36528737D01*
X108287995Y-36343643D01*
X108373184Y-36137978D01*
X108416613Y-35919645D01*
X108416613Y-35697035D01*
X113583387Y-35697035D01*
X113583387Y-35919645D01*
X113626816Y-36137978D01*
X113712005Y-36343643D01*
X113835681Y-36528737D01*
X113993090Y-36686146D01*
X114178184Y-36809822D01*
X114383849Y-36895011D01*
X114602182Y-36938440D01*
X114824792Y-36938440D01*
X115043125Y-36895011D01*
X115248790Y-36809822D01*
X115433884Y-36686146D01*
X115591293Y-36528737D01*
X115714969Y-36343643D01*
X115800158Y-36137978D01*
X115843587Y-35919645D01*
X115843587Y-35697035D01*
X115800158Y-35478702D01*
X115714969Y-35273037D01*
X115591293Y-35087943D01*
X115433884Y-34930534D01*
X115248790Y-34806858D01*
X115043125Y-34721669D01*
X114824792Y-34678240D01*
X114602182Y-34678240D01*
X114383849Y-34721669D01*
X114178184Y-34806858D01*
X113993090Y-34930534D01*
X113835681Y-35087943D01*
X113712005Y-35273037D01*
X113626816Y-35478702D01*
X113583387Y-35697035D01*
X108416613Y-35697035D01*
X108373184Y-35478702D01*
X108287995Y-35273037D01*
X108164319Y-35087943D01*
X108006910Y-34930534D01*
X107821816Y-34806858D01*
X107616151Y-34721669D01*
X107397818Y-34678240D01*
X107175208Y-34678240D01*
X106956875Y-34721669D01*
X106751210Y-34806858D01*
X106566116Y-34930534D01*
X106408707Y-35087943D01*
X106285031Y-35273037D01*
X106199842Y-35478702D01*
X106156413Y-35697035D01*
X93843587Y-35697035D01*
X93800158Y-35478702D01*
X93714969Y-35273037D01*
X93591293Y-35087943D01*
X93433884Y-34930534D01*
X93248790Y-34806858D01*
X93043125Y-34721669D01*
X92824792Y-34678240D01*
X92602182Y-34678240D01*
X92383849Y-34721669D01*
X92178184Y-34806858D01*
X91993090Y-34930534D01*
X91835681Y-35087943D01*
X91712005Y-35273037D01*
X91626816Y-35478702D01*
X91583387Y-35697035D01*
X86416613Y-35697035D01*
X86373184Y-35478702D01*
X86287995Y-35273037D01*
X86164319Y-35087943D01*
X86006910Y-34930534D01*
X85821816Y-34806858D01*
X85616151Y-34721669D01*
X85397818Y-34678240D01*
X85175208Y-34678240D01*
X84956875Y-34721669D01*
X84751210Y-34806858D01*
X84566116Y-34930534D01*
X84408707Y-35087943D01*
X84285031Y-35273037D01*
X84199842Y-35478702D01*
X84156413Y-35697035D01*
X76090928Y-35697035D01*
X77505964Y-34282000D01*
X80229447Y-34282000D01*
X80244819Y-34297372D01*
X80380269Y-34387877D01*
X80530773Y-34450218D01*
X80690548Y-34482000D01*
X80853452Y-34482000D01*
X81007179Y-34451421D01*
X86529732Y-34451421D01*
X86529732Y-34674031D01*
X86573161Y-34892364D01*
X86658350Y-35098029D01*
X86782026Y-35283123D01*
X86939435Y-35440532D01*
X87124529Y-35564208D01*
X87330194Y-35649397D01*
X87548527Y-35692826D01*
X87771137Y-35692826D01*
X87989470Y-35649397D01*
X88195135Y-35564208D01*
X88380229Y-35440532D01*
X88537638Y-35283123D01*
X88661314Y-35098029D01*
X88746503Y-34892364D01*
X88789932Y-34674031D01*
X88789932Y-34451421D01*
X89210068Y-34451421D01*
X89210068Y-34674031D01*
X89253497Y-34892364D01*
X89338686Y-35098029D01*
X89462362Y-35283123D01*
X89619771Y-35440532D01*
X89804865Y-35564208D01*
X90010530Y-35649397D01*
X90228863Y-35692826D01*
X90451473Y-35692826D01*
X90669806Y-35649397D01*
X90875471Y-35564208D01*
X91060565Y-35440532D01*
X91217974Y-35283123D01*
X91341650Y-35098029D01*
X91426839Y-34892364D01*
X91470268Y-34674031D01*
X91470268Y-34451421D01*
X108529732Y-34451421D01*
X108529732Y-34674031D01*
X108573161Y-34892364D01*
X108658350Y-35098029D01*
X108782026Y-35283123D01*
X108939435Y-35440532D01*
X109124529Y-35564208D01*
X109330194Y-35649397D01*
X109548527Y-35692826D01*
X109771137Y-35692826D01*
X109989470Y-35649397D01*
X110195135Y-35564208D01*
X110380229Y-35440532D01*
X110537638Y-35283123D01*
X110661314Y-35098029D01*
X110746503Y-34892364D01*
X110789932Y-34674031D01*
X110789932Y-34451421D01*
X111210068Y-34451421D01*
X111210068Y-34674031D01*
X111253497Y-34892364D01*
X111338686Y-35098029D01*
X111462362Y-35283123D01*
X111619771Y-35440532D01*
X111804865Y-35564208D01*
X112010530Y-35649397D01*
X112228863Y-35692826D01*
X112451473Y-35692826D01*
X112669806Y-35649397D01*
X112875471Y-35564208D01*
X113060565Y-35440532D01*
X113217974Y-35283123D01*
X113341650Y-35098029D01*
X113426839Y-34892364D01*
X113470268Y-34674031D01*
X113470268Y-34451421D01*
X113426839Y-34233088D01*
X113341650Y-34027423D01*
X113217974Y-33842329D01*
X113060565Y-33684920D01*
X112875471Y-33561244D01*
X112669806Y-33476055D01*
X112451473Y-33432626D01*
X112228863Y-33432626D01*
X112010530Y-33476055D01*
X111804865Y-33561244D01*
X111619771Y-33684920D01*
X111462362Y-33842329D01*
X111338686Y-34027423D01*
X111253497Y-34233088D01*
X111210068Y-34451421D01*
X110789932Y-34451421D01*
X110746503Y-34233088D01*
X110661314Y-34027423D01*
X110537638Y-33842329D01*
X110380229Y-33684920D01*
X110195135Y-33561244D01*
X109989470Y-33476055D01*
X109771137Y-33432626D01*
X109548527Y-33432626D01*
X109330194Y-33476055D01*
X109124529Y-33561244D01*
X108939435Y-33684920D01*
X108782026Y-33842329D01*
X108658350Y-34027423D01*
X108573161Y-34233088D01*
X108529732Y-34451421D01*
X91470268Y-34451421D01*
X91426839Y-34233088D01*
X91341650Y-34027423D01*
X91217974Y-33842329D01*
X91060565Y-33684920D01*
X90875471Y-33561244D01*
X90669806Y-33476055D01*
X90451473Y-33432626D01*
X90228863Y-33432626D01*
X90010530Y-33476055D01*
X89804865Y-33561244D01*
X89619771Y-33684920D01*
X89462362Y-33842329D01*
X89338686Y-34027423D01*
X89253497Y-34233088D01*
X89210068Y-34451421D01*
X88789932Y-34451421D01*
X88746503Y-34233088D01*
X88661314Y-34027423D01*
X88537638Y-33842329D01*
X88380229Y-33684920D01*
X88195135Y-33561244D01*
X87989470Y-33476055D01*
X87771137Y-33432626D01*
X87548527Y-33432626D01*
X87330194Y-33476055D01*
X87124529Y-33561244D01*
X86939435Y-33684920D01*
X86782026Y-33842329D01*
X86658350Y-34027423D01*
X86573161Y-34233088D01*
X86529732Y-34451421D01*
X81007179Y-34451421D01*
X81013227Y-34450218D01*
X81163731Y-34387877D01*
X81299181Y-34297372D01*
X81414372Y-34182181D01*
X81504877Y-34046731D01*
X81567218Y-33896227D01*
X81599000Y-33736452D01*
X81599000Y-33573548D01*
X81567218Y-33413773D01*
X81504877Y-33263269D01*
X81414372Y-33127819D01*
X81299181Y-33012628D01*
X81163731Y-32922123D01*
X81013227Y-32859782D01*
X80853452Y-32828000D01*
X80690548Y-32828000D01*
X80530773Y-32859782D01*
X80380269Y-32922123D01*
X80244819Y-33012628D01*
X80229447Y-33028000D01*
X77840712Y-33028000D01*
X78399578Y-32469134D01*
X78423501Y-32449501D01*
X78501853Y-32354028D01*
X78560075Y-32245103D01*
X78595927Y-32126913D01*
X78605000Y-32034794D01*
X78605000Y-32034793D01*
X78608033Y-32004001D01*
X78605000Y-31973209D01*
X78605000Y-30768553D01*
X78620372Y-30753181D01*
X78710877Y-30617731D01*
X78773218Y-30467227D01*
X78805000Y-30307452D01*
X78805000Y-30144548D01*
X78788469Y-30061445D01*
X78911072Y-30184048D01*
X79062901Y-30285496D01*
X79231604Y-30355376D01*
X79410699Y-30391000D01*
X79593301Y-30391000D01*
X79772396Y-30355376D01*
X79941099Y-30285496D01*
X79973730Y-30263693D01*
X80029980Y-30322865D01*
X80211794Y-30451123D01*
X80415136Y-30541446D01*
X80470126Y-30558119D01*
X80645000Y-30431954D01*
X80645000Y-29591000D01*
X80625000Y-29591000D01*
X80625000Y-29337000D01*
X80645000Y-29337000D01*
X80645000Y-28496046D01*
X80899000Y-28496046D01*
X80899000Y-29337000D01*
X80919000Y-29337000D01*
X80919000Y-29591000D01*
X80899000Y-29591000D01*
X80899000Y-30431954D01*
X81073874Y-30558119D01*
X81128864Y-30541446D01*
X81332206Y-30451123D01*
X81514020Y-30322865D01*
X81570270Y-30263693D01*
X81602901Y-30285496D01*
X81771604Y-30355376D01*
X81950699Y-30391000D01*
X82133301Y-30391000D01*
X82312396Y-30355376D01*
X82481099Y-30285496D01*
X82632928Y-30184048D01*
X82677000Y-30139976D01*
X82721072Y-30184048D01*
X82872901Y-30285496D01*
X83041604Y-30355376D01*
X83220699Y-30391000D01*
X83403301Y-30391000D01*
X83582396Y-30355376D01*
X83751099Y-30285496D01*
X83902928Y-30184048D01*
X83947000Y-30139976D01*
X83991072Y-30184048D01*
X84142901Y-30285496D01*
X84311604Y-30355376D01*
X84490699Y-30391000D01*
X84673301Y-30391000D01*
X84852396Y-30355376D01*
X85021099Y-30285496D01*
X85048458Y-30267216D01*
X85048605Y-30267395D01*
X85113624Y-30320755D01*
X85187804Y-30360405D01*
X85268293Y-30384822D01*
X85352000Y-30393066D01*
X86352000Y-30393066D01*
X86435707Y-30384822D01*
X86516196Y-30360405D01*
X86590376Y-30320755D01*
X86655395Y-30267395D01*
X86708755Y-30202376D01*
X86748405Y-30128196D01*
X86772822Y-30047707D01*
X86781066Y-29964000D01*
X86781066Y-29128548D01*
X88073000Y-29128548D01*
X88073000Y-29291452D01*
X88104782Y-29451227D01*
X88167123Y-29601731D01*
X88257628Y-29737181D01*
X88372819Y-29852372D01*
X88508269Y-29942877D01*
X88658773Y-30005218D01*
X88818548Y-30037000D01*
X88981452Y-30037000D01*
X89141227Y-30005218D01*
X89291731Y-29942877D01*
X89427181Y-29852372D01*
X89542372Y-29737181D01*
X89586592Y-29671001D01*
X96147205Y-29671001D01*
X96177999Y-29674034D01*
X96208793Y-29671001D01*
X96300912Y-29661928D01*
X96419102Y-29626076D01*
X96528027Y-29567854D01*
X96623500Y-29489502D01*
X96698044Y-29398669D01*
X97964714Y-28132000D01*
X98125452Y-28132000D01*
X98285227Y-28100218D01*
X98435731Y-28037877D01*
X98571181Y-27947372D01*
X98686372Y-27832181D01*
X98776877Y-27696731D01*
X98839218Y-27546227D01*
X98871000Y-27386452D01*
X98871000Y-27223548D01*
X98839218Y-27063773D01*
X98776877Y-26913269D01*
X98686372Y-26777819D01*
X98571181Y-26662628D01*
X98487483Y-26606702D01*
X98522877Y-26553731D01*
X98585218Y-26403227D01*
X98617000Y-26243452D01*
X98617000Y-26080548D01*
X98585218Y-25920773D01*
X98522877Y-25770269D01*
X98432372Y-25634819D01*
X98342927Y-25545374D01*
X114634231Y-25545374D01*
X114934411Y-25983828D01*
X115513356Y-26294296D01*
X116141746Y-26485852D01*
X116795431Y-26551134D01*
X117449293Y-26487634D01*
X118078203Y-26297792D01*
X118657992Y-25988904D01*
X118665589Y-25983828D01*
X118965769Y-25545374D01*
X116800000Y-23379605D01*
X114634231Y-25545374D01*
X98342927Y-25545374D01*
X98317181Y-25519628D01*
X98181731Y-25429123D01*
X98031227Y-25366782D01*
X97871452Y-25335000D01*
X97708548Y-25335000D01*
X97548773Y-25366782D01*
X97398269Y-25429123D01*
X97262819Y-25519628D01*
X97147628Y-25634819D01*
X97057123Y-25770269D01*
X96994782Y-25920773D01*
X96963000Y-26080548D01*
X96963000Y-26102288D01*
X95698289Y-27367000D01*
X95676548Y-27367000D01*
X95516773Y-27398782D01*
X95366269Y-27461123D01*
X95230819Y-27551628D01*
X95115628Y-27666819D01*
X95025123Y-27802269D01*
X94962782Y-27952773D01*
X94931000Y-28112548D01*
X94931000Y-28275452D01*
X94959157Y-28417001D01*
X89146584Y-28417001D01*
X89141227Y-28414782D01*
X88981452Y-28383000D01*
X88818548Y-28383000D01*
X88658773Y-28414782D01*
X88508269Y-28477123D01*
X88372819Y-28567628D01*
X88257628Y-28682819D01*
X88167123Y-28818269D01*
X88104782Y-28968773D01*
X88073000Y-29128548D01*
X86781066Y-29128548D01*
X86781066Y-28964000D01*
X86772822Y-28880293D01*
X86748405Y-28799804D01*
X86708755Y-28725624D01*
X86655395Y-28660605D01*
X86590376Y-28607245D01*
X86516196Y-28567595D01*
X86435707Y-28543178D01*
X86352000Y-28534934D01*
X85352000Y-28534934D01*
X85268293Y-28543178D01*
X85187804Y-28567595D01*
X85113624Y-28607245D01*
X85048605Y-28660605D01*
X85048458Y-28660784D01*
X85021099Y-28642504D01*
X84852396Y-28572624D01*
X84673301Y-28537000D01*
X84490699Y-28537000D01*
X84311604Y-28572624D01*
X84142901Y-28642504D01*
X83991072Y-28743952D01*
X83947000Y-28788024D01*
X83902928Y-28743952D01*
X83751099Y-28642504D01*
X83582396Y-28572624D01*
X83403301Y-28537000D01*
X83220699Y-28537000D01*
X83041604Y-28572624D01*
X82872901Y-28642504D01*
X82721072Y-28743952D01*
X82677000Y-28788024D01*
X82632928Y-28743952D01*
X82481099Y-28642504D01*
X82312396Y-28572624D01*
X82133301Y-28537000D01*
X81950699Y-28537000D01*
X81771604Y-28572624D01*
X81602901Y-28642504D01*
X81570270Y-28664307D01*
X81514020Y-28605135D01*
X81332206Y-28476877D01*
X81128864Y-28386554D01*
X81073874Y-28369881D01*
X80899000Y-28496046D01*
X80645000Y-28496046D01*
X80470126Y-28369881D01*
X80415136Y-28386554D01*
X80211794Y-28476877D01*
X80029980Y-28605135D01*
X79973730Y-28664307D01*
X79941099Y-28642504D01*
X79772396Y-28572624D01*
X79593301Y-28537000D01*
X79410699Y-28537000D01*
X79231604Y-28572624D01*
X79062901Y-28642504D01*
X78911072Y-28743952D01*
X78781952Y-28873072D01*
X78680504Y-29024901D01*
X78610624Y-29193604D01*
X78575000Y-29372699D01*
X78575000Y-29555301D01*
X78599370Y-29677817D01*
X78505181Y-29583628D01*
X78369731Y-29493123D01*
X78219227Y-29430782D01*
X78059452Y-29399000D01*
X77896548Y-29399000D01*
X77736773Y-29430782D01*
X77586269Y-29493123D01*
X77450819Y-29583628D01*
X77335628Y-29698819D01*
X77245123Y-29834269D01*
X77182782Y-29984773D01*
X77151000Y-30144548D01*
X77151000Y-30307452D01*
X77182782Y-30467227D01*
X77245123Y-30617731D01*
X77335628Y-30753181D01*
X77351000Y-30768553D01*
X77351001Y-31744287D01*
X74572290Y-34522999D01*
X72408712Y-34522999D01*
X72449712Y-34482000D01*
X72471452Y-34482000D01*
X72631227Y-34450218D01*
X72781731Y-34387877D01*
X72917181Y-34297372D01*
X73032372Y-34182181D01*
X73122877Y-34046731D01*
X73185218Y-33896227D01*
X73217000Y-33736452D01*
X73217000Y-33573548D01*
X73185218Y-33413773D01*
X73122877Y-33263269D01*
X73032372Y-33127819D01*
X72917181Y-33012628D01*
X72781731Y-32922123D01*
X72631227Y-32859782D01*
X72471452Y-32828000D01*
X72308548Y-32828000D01*
X72148773Y-32859782D01*
X71998269Y-32922123D01*
X71862819Y-33012628D01*
X71747628Y-33127819D01*
X71657123Y-33263269D01*
X71594782Y-33413773D01*
X71563000Y-33573548D01*
X71563000Y-33595288D01*
X71285300Y-33872989D01*
X70518722Y-33872989D01*
X71179712Y-33212000D01*
X71201452Y-33212000D01*
X71361227Y-33180218D01*
X71511731Y-33117877D01*
X71647181Y-33027372D01*
X71762372Y-32912181D01*
X71852877Y-32776731D01*
X71915218Y-32626227D01*
X71947000Y-32466452D01*
X71947000Y-32303548D01*
X71915218Y-32143773D01*
X71852877Y-31993269D01*
X71762372Y-31857819D01*
X71647181Y-31742628D01*
X71511731Y-31652123D01*
X71361227Y-31589782D01*
X71201452Y-31558000D01*
X71038548Y-31558000D01*
X70878773Y-31589782D01*
X70728269Y-31652123D01*
X70592819Y-31742628D01*
X70477628Y-31857819D01*
X70387123Y-31993269D01*
X70324782Y-32143773D01*
X70293000Y-32303548D01*
X70293000Y-32325288D01*
X69395310Y-33222979D01*
X63954690Y-33222979D01*
X63692000Y-32960289D01*
X63692000Y-32938548D01*
X63660218Y-32778773D01*
X63597877Y-32628269D01*
X63507372Y-32492819D01*
X63392181Y-32377628D01*
X63256731Y-32287123D01*
X63106227Y-32224782D01*
X62946452Y-32193000D01*
X62783548Y-32193000D01*
X62623773Y-32224782D01*
X62473269Y-32287123D01*
X62337819Y-32377628D01*
X62222628Y-32492819D01*
X62132123Y-32628269D01*
X62069782Y-32778773D01*
X62038000Y-32938548D01*
X62038000Y-33101452D01*
X62069782Y-33261227D01*
X62132123Y-33411731D01*
X62222628Y-33547181D01*
X62337819Y-33662372D01*
X62473269Y-33752877D01*
X62623773Y-33815218D01*
X62783548Y-33847000D01*
X62805289Y-33847000D01*
X62831278Y-33872989D01*
X62489712Y-33872989D01*
X62143148Y-33526426D01*
X62123511Y-33502498D01*
X62028038Y-33424146D01*
X61919113Y-33365924D01*
X61800923Y-33330072D01*
X61708804Y-33320999D01*
X61678010Y-33317966D01*
X61647216Y-33320999D01*
X60582790Y-33320999D01*
X60551998Y-33317966D01*
X60521206Y-33320999D01*
X60521205Y-33320999D01*
X60429086Y-33330072D01*
X60310896Y-33365924D01*
X60201971Y-33424146D01*
X60106498Y-33502498D01*
X60086865Y-33526421D01*
X59688426Y-33924861D01*
X59664498Y-33944498D01*
X59586146Y-34039972D01*
X59527924Y-34148897D01*
X59501176Y-34237075D01*
X59492072Y-34267087D01*
X59479966Y-34389999D01*
X59482999Y-34420793D01*
X59483000Y-37297974D01*
X59448773Y-37304782D01*
X59298269Y-37367123D01*
X59162819Y-37457628D01*
X59047628Y-37572819D01*
X58957123Y-37708269D01*
X58894782Y-37858773D01*
X58863000Y-38018548D01*
X57366191Y-38018548D01*
X57366191Y-37902908D01*
X57322762Y-37684575D01*
X57237573Y-37478910D01*
X57113897Y-37293816D01*
X56956488Y-37136407D01*
X56771394Y-37012731D01*
X56565729Y-36927542D01*
X56347396Y-36884113D01*
X56124786Y-36884113D01*
X55906453Y-36927542D01*
X55700788Y-37012731D01*
X55515694Y-37136407D01*
X55358285Y-37293816D01*
X55234609Y-37478910D01*
X55149420Y-37684575D01*
X55105991Y-37902908D01*
X46894009Y-37902908D01*
X46850580Y-37684575D01*
X46765391Y-37478910D01*
X46641715Y-37293816D01*
X46484306Y-37136407D01*
X46299212Y-37012731D01*
X46093547Y-36927542D01*
X45875214Y-36884113D01*
X45652604Y-36884113D01*
X45434271Y-36927542D01*
X45228606Y-37012731D01*
X45043512Y-37136407D01*
X44886103Y-37293816D01*
X44762427Y-37478910D01*
X44677238Y-37684575D01*
X44633809Y-37902908D01*
X35366191Y-37902908D01*
X35322762Y-37684575D01*
X35237573Y-37478910D01*
X35113897Y-37293816D01*
X34956488Y-37136407D01*
X34771394Y-37012731D01*
X34565729Y-36927542D01*
X34347396Y-36884113D01*
X34124786Y-36884113D01*
X33906453Y-36927542D01*
X33700788Y-37012731D01*
X33515694Y-37136407D01*
X33358285Y-37293816D01*
X33234609Y-37478910D01*
X33149420Y-37684575D01*
X33105991Y-37902908D01*
X24894009Y-37902908D01*
X24850580Y-37684575D01*
X24765391Y-37478910D01*
X24641715Y-37293816D01*
X24484306Y-37136407D01*
X24299212Y-37012731D01*
X24093547Y-36927542D01*
X23875214Y-36884113D01*
X23652604Y-36884113D01*
X23434271Y-36927542D01*
X23228606Y-37012731D01*
X23043512Y-37136407D01*
X22886103Y-37293816D01*
X22762427Y-37478910D01*
X22677238Y-37684575D01*
X22633809Y-37902908D01*
X20452000Y-37902908D01*
X20452000Y-35697035D01*
X24156413Y-35697035D01*
X24156413Y-35919645D01*
X24199842Y-36137978D01*
X24285031Y-36343643D01*
X24408707Y-36528737D01*
X24566116Y-36686146D01*
X24751210Y-36809822D01*
X24956875Y-36895011D01*
X25175208Y-36938440D01*
X25397818Y-36938440D01*
X25616151Y-36895011D01*
X25821816Y-36809822D01*
X26006910Y-36686146D01*
X26164319Y-36528737D01*
X26287995Y-36343643D01*
X26373184Y-36137978D01*
X26416613Y-35919645D01*
X26416613Y-35697035D01*
X31583387Y-35697035D01*
X31583387Y-35919645D01*
X31626816Y-36137978D01*
X31712005Y-36343643D01*
X31835681Y-36528737D01*
X31993090Y-36686146D01*
X32178184Y-36809822D01*
X32383849Y-36895011D01*
X32602182Y-36938440D01*
X32824792Y-36938440D01*
X33043125Y-36895011D01*
X33248790Y-36809822D01*
X33433884Y-36686146D01*
X33591293Y-36528737D01*
X33714969Y-36343643D01*
X33800158Y-36137978D01*
X33843587Y-35919645D01*
X33843587Y-35697035D01*
X46156413Y-35697035D01*
X46156413Y-35919645D01*
X46199842Y-36137978D01*
X46285031Y-36343643D01*
X46408707Y-36528737D01*
X46566116Y-36686146D01*
X46751210Y-36809822D01*
X46956875Y-36895011D01*
X47175208Y-36938440D01*
X47397818Y-36938440D01*
X47616151Y-36895011D01*
X47821816Y-36809822D01*
X48006910Y-36686146D01*
X48164319Y-36528737D01*
X48287995Y-36343643D01*
X48373184Y-36137978D01*
X48416613Y-35919645D01*
X48416613Y-35697035D01*
X53583387Y-35697035D01*
X53583387Y-35919645D01*
X53626816Y-36137978D01*
X53712005Y-36343643D01*
X53835681Y-36528737D01*
X53993090Y-36686146D01*
X54178184Y-36809822D01*
X54383849Y-36895011D01*
X54602182Y-36938440D01*
X54824792Y-36938440D01*
X55043125Y-36895011D01*
X55248790Y-36809822D01*
X55433884Y-36686146D01*
X55591293Y-36528737D01*
X55714969Y-36343643D01*
X55800158Y-36137978D01*
X55843587Y-35919645D01*
X55843587Y-35697035D01*
X55800158Y-35478702D01*
X55714969Y-35273037D01*
X55591293Y-35087943D01*
X55433884Y-34930534D01*
X55248790Y-34806858D01*
X55043125Y-34721669D01*
X54824792Y-34678240D01*
X54602182Y-34678240D01*
X54383849Y-34721669D01*
X54178184Y-34806858D01*
X53993090Y-34930534D01*
X53835681Y-35087943D01*
X53712005Y-35273037D01*
X53626816Y-35478702D01*
X53583387Y-35697035D01*
X48416613Y-35697035D01*
X48373184Y-35478702D01*
X48287995Y-35273037D01*
X48164319Y-35087943D01*
X48006910Y-34930534D01*
X47821816Y-34806858D01*
X47616151Y-34721669D01*
X47397818Y-34678240D01*
X47175208Y-34678240D01*
X46956875Y-34721669D01*
X46751210Y-34806858D01*
X46566116Y-34930534D01*
X46408707Y-35087943D01*
X46285031Y-35273037D01*
X46199842Y-35478702D01*
X46156413Y-35697035D01*
X33843587Y-35697035D01*
X33800158Y-35478702D01*
X33714969Y-35273037D01*
X33591293Y-35087943D01*
X33433884Y-34930534D01*
X33248790Y-34806858D01*
X33043125Y-34721669D01*
X32824792Y-34678240D01*
X32602182Y-34678240D01*
X32383849Y-34721669D01*
X32178184Y-34806858D01*
X31993090Y-34930534D01*
X31835681Y-35087943D01*
X31712005Y-35273037D01*
X31626816Y-35478702D01*
X31583387Y-35697035D01*
X26416613Y-35697035D01*
X26373184Y-35478702D01*
X26287995Y-35273037D01*
X26164319Y-35087943D01*
X26006910Y-34930534D01*
X25821816Y-34806858D01*
X25616151Y-34721669D01*
X25397818Y-34678240D01*
X25175208Y-34678240D01*
X24956875Y-34721669D01*
X24751210Y-34806858D01*
X24566116Y-34930534D01*
X24408707Y-35087943D01*
X24285031Y-35273037D01*
X24199842Y-35478702D01*
X24156413Y-35697035D01*
X20452000Y-35697035D01*
X20452000Y-34451421D01*
X26529732Y-34451421D01*
X26529732Y-34674031D01*
X26573161Y-34892364D01*
X26658350Y-35098029D01*
X26782026Y-35283123D01*
X26939435Y-35440532D01*
X27124529Y-35564208D01*
X27330194Y-35649397D01*
X27548527Y-35692826D01*
X27771137Y-35692826D01*
X27989470Y-35649397D01*
X28195135Y-35564208D01*
X28380229Y-35440532D01*
X28537638Y-35283123D01*
X28661314Y-35098029D01*
X28746503Y-34892364D01*
X28789932Y-34674031D01*
X28789932Y-34451421D01*
X29210068Y-34451421D01*
X29210068Y-34674031D01*
X29253497Y-34892364D01*
X29338686Y-35098029D01*
X29462362Y-35283123D01*
X29619771Y-35440532D01*
X29804865Y-35564208D01*
X30010530Y-35649397D01*
X30228863Y-35692826D01*
X30451473Y-35692826D01*
X30669806Y-35649397D01*
X30875471Y-35564208D01*
X31060565Y-35440532D01*
X31217974Y-35283123D01*
X31341650Y-35098029D01*
X31426839Y-34892364D01*
X31470268Y-34674031D01*
X31470268Y-34451421D01*
X48529732Y-34451421D01*
X48529732Y-34674031D01*
X48573161Y-34892364D01*
X48658350Y-35098029D01*
X48782026Y-35283123D01*
X48939435Y-35440532D01*
X49124529Y-35564208D01*
X49330194Y-35649397D01*
X49548527Y-35692826D01*
X49771137Y-35692826D01*
X49989470Y-35649397D01*
X50195135Y-35564208D01*
X50380229Y-35440532D01*
X50537638Y-35283123D01*
X50661314Y-35098029D01*
X50746503Y-34892364D01*
X50789932Y-34674031D01*
X50789932Y-34451421D01*
X51210068Y-34451421D01*
X51210068Y-34674031D01*
X51253497Y-34892364D01*
X51338686Y-35098029D01*
X51462362Y-35283123D01*
X51619771Y-35440532D01*
X51804865Y-35564208D01*
X52010530Y-35649397D01*
X52228863Y-35692826D01*
X52451473Y-35692826D01*
X52669806Y-35649397D01*
X52875471Y-35564208D01*
X53060565Y-35440532D01*
X53217974Y-35283123D01*
X53341650Y-35098029D01*
X53426839Y-34892364D01*
X53470268Y-34674031D01*
X53470268Y-34451421D01*
X53426839Y-34233088D01*
X53341650Y-34027423D01*
X53217974Y-33842329D01*
X53060565Y-33684920D01*
X52875471Y-33561244D01*
X52669806Y-33476055D01*
X52451473Y-33432626D01*
X52228863Y-33432626D01*
X52010530Y-33476055D01*
X51804865Y-33561244D01*
X51619771Y-33684920D01*
X51462362Y-33842329D01*
X51338686Y-34027423D01*
X51253497Y-34233088D01*
X51210068Y-34451421D01*
X50789932Y-34451421D01*
X50746503Y-34233088D01*
X50661314Y-34027423D01*
X50537638Y-33842329D01*
X50380229Y-33684920D01*
X50195135Y-33561244D01*
X49989470Y-33476055D01*
X49771137Y-33432626D01*
X49548527Y-33432626D01*
X49330194Y-33476055D01*
X49124529Y-33561244D01*
X48939435Y-33684920D01*
X48782026Y-33842329D01*
X48658350Y-34027423D01*
X48573161Y-34233088D01*
X48529732Y-34451421D01*
X31470268Y-34451421D01*
X31426839Y-34233088D01*
X31341650Y-34027423D01*
X31217974Y-33842329D01*
X31060565Y-33684920D01*
X30875471Y-33561244D01*
X30669806Y-33476055D01*
X30451473Y-33432626D01*
X30228863Y-33432626D01*
X30010530Y-33476055D01*
X29804865Y-33561244D01*
X29619771Y-33684920D01*
X29462362Y-33842329D01*
X29338686Y-34027423D01*
X29253497Y-34233088D01*
X29210068Y-34451421D01*
X28789932Y-34451421D01*
X28746503Y-34233088D01*
X28661314Y-34027423D01*
X28537638Y-33842329D01*
X28380229Y-33684920D01*
X28195135Y-33561244D01*
X27989470Y-33476055D01*
X27771137Y-33432626D01*
X27548527Y-33432626D01*
X27330194Y-33476055D01*
X27124529Y-33561244D01*
X26939435Y-33684920D01*
X26782026Y-33842329D01*
X26658350Y-34027423D01*
X26573161Y-34233088D01*
X26529732Y-34451421D01*
X20452000Y-34451421D01*
X20452000Y-29636548D01*
X71055000Y-29636548D01*
X71055000Y-29799452D01*
X71086782Y-29959227D01*
X71149123Y-30109731D01*
X71239628Y-30245181D01*
X71354819Y-30360372D01*
X71490269Y-30450877D01*
X71640773Y-30513218D01*
X71800548Y-30545000D01*
X71963452Y-30545000D01*
X72123227Y-30513218D01*
X72273731Y-30450877D01*
X72409181Y-30360372D01*
X72424553Y-30345000D01*
X74899206Y-30345000D01*
X74930000Y-30348033D01*
X74960794Y-30345000D01*
X75052913Y-30335927D01*
X75171103Y-30300075D01*
X75280028Y-30241853D01*
X75375501Y-30163501D01*
X75395138Y-30139573D01*
X77021712Y-28513000D01*
X77043452Y-28513000D01*
X77203227Y-28481218D01*
X77353731Y-28418877D01*
X77489181Y-28328372D01*
X77604372Y-28213181D01*
X77694877Y-28077731D01*
X77757218Y-27927227D01*
X77789000Y-27767452D01*
X77789000Y-27604548D01*
X77757218Y-27444773D01*
X77694877Y-27294269D01*
X77604372Y-27158819D01*
X77489181Y-27043628D01*
X77353731Y-26953123D01*
X77203227Y-26890782D01*
X77043452Y-26859000D01*
X76880548Y-26859000D01*
X76720773Y-26890782D01*
X76570269Y-26953123D01*
X76434819Y-27043628D01*
X76319628Y-27158819D01*
X76229123Y-27294269D01*
X76166782Y-27444773D01*
X76135000Y-27604548D01*
X76135000Y-27626288D01*
X74670289Y-29091000D01*
X72424553Y-29091000D01*
X72409181Y-29075628D01*
X72273731Y-28985123D01*
X72123227Y-28922782D01*
X71963452Y-28891000D01*
X71800548Y-28891000D01*
X71640773Y-28922782D01*
X71490269Y-28985123D01*
X71354819Y-29075628D01*
X71239628Y-29190819D01*
X71149123Y-29326269D01*
X71086782Y-29476773D01*
X71055000Y-29636548D01*
X20452000Y-29636548D01*
X20452000Y-25545374D01*
X21034231Y-25545374D01*
X21334411Y-25983828D01*
X21913356Y-26294296D01*
X22541746Y-26485852D01*
X23195431Y-26551134D01*
X23849293Y-26487634D01*
X24478203Y-26297792D01*
X25057992Y-25988904D01*
X25065589Y-25983828D01*
X25365769Y-25545374D01*
X23200000Y-23379605D01*
X21034231Y-25545374D01*
X20452000Y-25545374D01*
X20452000Y-25090118D01*
X20854626Y-25365769D01*
X23020395Y-23200000D01*
X23379605Y-23200000D01*
X25545374Y-25365769D01*
X25983828Y-25065589D01*
X26120597Y-24810548D01*
X40067000Y-24810548D01*
X40067000Y-24973452D01*
X40098782Y-25133227D01*
X40161123Y-25283731D01*
X40251628Y-25419181D01*
X40267001Y-25434554D01*
X40267001Y-25865198D01*
X40263967Y-25896002D01*
X40276073Y-26018914D01*
X40282193Y-26039088D01*
X40311926Y-26137105D01*
X40370148Y-26246030D01*
X40448500Y-26341503D01*
X40472423Y-26361136D01*
X42814865Y-28703579D01*
X42834498Y-28727502D01*
X42929971Y-28805854D01*
X43038896Y-28864076D01*
X43127654Y-28891000D01*
X43157086Y-28899928D01*
X43279998Y-28912034D01*
X43310792Y-28909001D01*
X44065207Y-28909001D01*
X44096001Y-28912034D01*
X44126795Y-28909001D01*
X44218914Y-28899928D01*
X44337104Y-28864076D01*
X44446029Y-28805854D01*
X44541502Y-28727502D01*
X44561139Y-28703574D01*
X45713714Y-27551000D01*
X47971447Y-27551000D01*
X47986819Y-27566372D01*
X48122269Y-27656877D01*
X48272773Y-27719218D01*
X48432548Y-27751000D01*
X48595452Y-27751000D01*
X48755227Y-27719218D01*
X48905731Y-27656877D01*
X49041181Y-27566372D01*
X49156372Y-27451181D01*
X49246877Y-27315731D01*
X49309218Y-27165227D01*
X49341000Y-27005452D01*
X49341000Y-26842548D01*
X49309218Y-26682773D01*
X49246877Y-26532269D01*
X49156372Y-26396819D01*
X49041181Y-26281628D01*
X48905731Y-26191123D01*
X48755227Y-26128782D01*
X48595452Y-26097000D01*
X48432548Y-26097000D01*
X48272773Y-26128782D01*
X48122269Y-26191123D01*
X47986819Y-26281628D01*
X47971447Y-26297000D01*
X45484793Y-26297000D01*
X45454001Y-26293967D01*
X45423209Y-26297000D01*
X45423208Y-26297000D01*
X45331089Y-26306073D01*
X45212899Y-26341925D01*
X45103974Y-26400147D01*
X45008501Y-26478499D01*
X44988868Y-26502422D01*
X44429706Y-27061584D01*
X44420877Y-27040269D01*
X44330372Y-26904819D01*
X44215181Y-26789628D01*
X44079731Y-26699123D01*
X43929227Y-26636782D01*
X43769452Y-26605000D01*
X43747712Y-26605000D01*
X42899602Y-25756890D01*
X51898524Y-25756890D01*
X51943175Y-25904099D01*
X52068359Y-26166920D01*
X52242412Y-26400269D01*
X52458645Y-26595178D01*
X52708748Y-26744157D01*
X52983109Y-26841481D01*
X53213000Y-26720814D01*
X53213000Y-25527000D01*
X53467000Y-25527000D01*
X53467000Y-26720814D01*
X53696891Y-26841481D01*
X53971252Y-26744157D01*
X54221355Y-26595178D01*
X54437588Y-26400269D01*
X54611641Y-26166920D01*
X54736825Y-25904099D01*
X54781476Y-25756890D01*
X56343524Y-25756890D01*
X56388175Y-25904099D01*
X56513359Y-26166920D01*
X56687412Y-26400269D01*
X56903645Y-26595178D01*
X57153748Y-26744157D01*
X57428109Y-26841481D01*
X57658000Y-26720814D01*
X57658000Y-25527000D01*
X57912000Y-25527000D01*
X57912000Y-26720814D01*
X58141891Y-26841481D01*
X58416252Y-26744157D01*
X58666355Y-26595178D01*
X58882588Y-26400269D01*
X59056641Y-26166920D01*
X59181825Y-25904099D01*
X59226476Y-25756890D01*
X59105155Y-25527000D01*
X57912000Y-25527000D01*
X57658000Y-25527000D01*
X56464845Y-25527000D01*
X56343524Y-25756890D01*
X54781476Y-25756890D01*
X54660155Y-25527000D01*
X53467000Y-25527000D01*
X53213000Y-25527000D01*
X52019845Y-25527000D01*
X51898524Y-25756890D01*
X42899602Y-25756890D01*
X42737000Y-25594289D01*
X42737000Y-25572548D01*
X42705218Y-25412773D01*
X42642877Y-25262269D01*
X42552372Y-25126819D01*
X42437181Y-25011628D01*
X42301731Y-24921123D01*
X42151227Y-24858782D01*
X41991452Y-24827000D01*
X41828548Y-24827000D01*
X41721000Y-24848393D01*
X41721000Y-24810548D01*
X41689218Y-24650773D01*
X41626877Y-24500269D01*
X41536372Y-24364819D01*
X41421181Y-24249628D01*
X41285731Y-24159123D01*
X41135227Y-24096782D01*
X40975452Y-24065000D01*
X40812548Y-24065000D01*
X40652773Y-24096782D01*
X40502269Y-24159123D01*
X40366819Y-24249628D01*
X40251628Y-24364819D01*
X40161123Y-24500269D01*
X40098782Y-24650773D01*
X40067000Y-24810548D01*
X26120597Y-24810548D01*
X26294296Y-24486644D01*
X26485852Y-23858254D01*
X26551134Y-23204569D01*
X26487634Y-22550707D01*
X26297792Y-21921797D01*
X25988904Y-21342008D01*
X25983828Y-21334411D01*
X25545374Y-21034231D01*
X23379605Y-23200000D01*
X23020395Y-23200000D01*
X23006253Y-23185858D01*
X23185858Y-23006253D01*
X23200000Y-23020395D01*
X25365769Y-20854626D01*
X25090118Y-20452000D01*
X42948607Y-20452000D01*
X42892782Y-20586773D01*
G37*
G04 #@! TD.AperFunction*
M02*
