G04 #@! TF.GenerationSoftware,KiCad,Pcbnew,(5.1.8)-1*
G04 #@! TF.CreationDate,2020-11-08T19:12:23+01:00*
G04 #@! TF.ProjectId,MainBoard,4d61696e-426f-4617-9264-2e6b69636164,rev?*
G04 #@! TF.SameCoordinates,Original*
G04 #@! TF.FileFunction,Legend,Top*
G04 #@! TF.FilePolarity,Positive*
%FSLAX46Y46*%
G04 Gerber Fmt 4.6, Leading zero omitted, Abs format (unit mm)*
G04 Created by KiCad (PCBNEW (5.1.8)-1) date 2020-11-08 19:12:23*
%MOMM*%
%LPD*%
G01*
G04 APERTURE LIST*
%ADD10C,0.100000*%
%ADD11C,0.150000*%
%ADD12C,0.250000*%
%ADD13C,0.120000*%
G04 APERTURE END LIST*
D10*
X85902000Y-31199000D02*
X85868666Y-31299000D01*
X85835333Y-31332333D01*
X85768666Y-31365666D01*
X85668666Y-31365666D01*
X85602000Y-31332333D01*
X85568666Y-31299000D01*
X85535333Y-31232333D01*
X85535333Y-30965666D01*
X86235333Y-30965666D01*
X86235333Y-31199000D01*
X86202000Y-31265666D01*
X86168666Y-31299000D01*
X86102000Y-31332333D01*
X86035333Y-31332333D01*
X85968666Y-31299000D01*
X85935333Y-31265666D01*
X85902000Y-31199000D01*
X85902000Y-30965666D01*
X86235333Y-31799000D02*
X86235333Y-31932333D01*
X86202000Y-31999000D01*
X86135333Y-32065666D01*
X86002000Y-32099000D01*
X85768666Y-32099000D01*
X85635333Y-32065666D01*
X85568666Y-31999000D01*
X85535333Y-31932333D01*
X85535333Y-31799000D01*
X85568666Y-31732333D01*
X85635333Y-31665666D01*
X85768666Y-31632333D01*
X86002000Y-31632333D01*
X86135333Y-31665666D01*
X86202000Y-31732333D01*
X86235333Y-31799000D01*
X86235333Y-32532333D02*
X86235333Y-32665666D01*
X86202000Y-32732333D01*
X86135333Y-32799000D01*
X86002000Y-32832333D01*
X85768666Y-32832333D01*
X85635333Y-32799000D01*
X85568666Y-32732333D01*
X85535333Y-32665666D01*
X85535333Y-32532333D01*
X85568666Y-32465666D01*
X85635333Y-32399000D01*
X85768666Y-32365666D01*
X86002000Y-32365666D01*
X86135333Y-32399000D01*
X86202000Y-32465666D01*
X86235333Y-32532333D01*
X86235333Y-33032333D02*
X86235333Y-33432333D01*
X85535333Y-33232333D02*
X86235333Y-33232333D01*
X79218666Y-30932333D02*
X79185333Y-31032333D01*
X79185333Y-31199000D01*
X79218666Y-31265666D01*
X79252000Y-31299000D01*
X79318666Y-31332333D01*
X79385333Y-31332333D01*
X79452000Y-31299000D01*
X79485333Y-31265666D01*
X79518666Y-31199000D01*
X79552000Y-31065666D01*
X79585333Y-30999000D01*
X79618666Y-30965666D01*
X79685333Y-30932333D01*
X79752000Y-30932333D01*
X79818666Y-30965666D01*
X79852000Y-30999000D01*
X79885333Y-31065666D01*
X79885333Y-31232333D01*
X79852000Y-31332333D01*
X79518666Y-31765666D02*
X79185333Y-31765666D01*
X79885333Y-31532333D02*
X79518666Y-31765666D01*
X79885333Y-31999000D01*
X79185333Y-32232333D02*
X79885333Y-32232333D01*
X79185333Y-32632333D01*
X79885333Y-32632333D01*
X79252000Y-33365666D02*
X79218666Y-33332333D01*
X79185333Y-33232333D01*
X79185333Y-33165666D01*
X79218666Y-33065666D01*
X79285333Y-32999000D01*
X79352000Y-32965666D01*
X79485333Y-32932333D01*
X79585333Y-32932333D01*
X79718666Y-32965666D01*
X79785333Y-32999000D01*
X79852000Y-33065666D01*
X79885333Y-33165666D01*
X79885333Y-33232333D01*
X79852000Y-33332333D01*
X79818666Y-33365666D01*
X81122000Y-31332333D02*
X81155333Y-31265666D01*
X81155333Y-31165666D01*
X81122000Y-31065666D01*
X81055333Y-30999000D01*
X80988666Y-30965666D01*
X80855333Y-30932333D01*
X80755333Y-30932333D01*
X80622000Y-30965666D01*
X80555333Y-30999000D01*
X80488666Y-31065666D01*
X80455333Y-31165666D01*
X80455333Y-31232333D01*
X80488666Y-31332333D01*
X80522000Y-31365666D01*
X80755333Y-31365666D01*
X80755333Y-31232333D01*
X80455333Y-31665666D02*
X81155333Y-31665666D01*
X80455333Y-32065666D01*
X81155333Y-32065666D01*
X80455333Y-32399000D02*
X81155333Y-32399000D01*
X81155333Y-32565666D01*
X81122000Y-32665666D01*
X81055333Y-32732333D01*
X80988666Y-32765666D01*
X80855333Y-32799000D01*
X80755333Y-32799000D01*
X80622000Y-32765666D01*
X80555333Y-32732333D01*
X80488666Y-32665666D01*
X80455333Y-32565666D01*
X80455333Y-32399000D01*
X81725333Y-31365666D02*
X82058666Y-31132333D01*
X81725333Y-30965666D02*
X82425333Y-30965666D01*
X82425333Y-31232333D01*
X82392000Y-31299000D01*
X82358666Y-31332333D01*
X82292000Y-31365666D01*
X82192000Y-31365666D01*
X82125333Y-31332333D01*
X82092000Y-31299000D01*
X82058666Y-31232333D01*
X82058666Y-30965666D01*
X81725333Y-31599000D02*
X82192000Y-31965666D01*
X82192000Y-31599000D02*
X81725333Y-31965666D01*
X81725333Y-32232333D02*
X82425333Y-32232333D01*
X82425333Y-32399000D01*
X82392000Y-32499000D01*
X82325333Y-32565666D01*
X82258666Y-32599000D01*
X82125333Y-32632333D01*
X82025333Y-32632333D01*
X81892000Y-32599000D01*
X81825333Y-32565666D01*
X81758666Y-32499000D01*
X81725333Y-32399000D01*
X81725333Y-32232333D01*
X83695333Y-30865666D02*
X83695333Y-31265666D01*
X82995333Y-31065666D02*
X83695333Y-31065666D01*
X82995333Y-31432333D02*
X83462000Y-31799000D01*
X83462000Y-31432333D02*
X82995333Y-31799000D01*
X82995333Y-32065666D02*
X83695333Y-32065666D01*
X83695333Y-32232333D01*
X83662000Y-32332333D01*
X83595333Y-32399000D01*
X83528666Y-32432333D01*
X83395333Y-32465666D01*
X83295333Y-32465666D01*
X83162000Y-32432333D01*
X83095333Y-32399000D01*
X83028666Y-32332333D01*
X82995333Y-32232333D01*
X82995333Y-32065666D01*
X84965333Y-31299000D02*
X84965333Y-30965666D01*
X84632000Y-30932333D01*
X84665333Y-30965666D01*
X84698666Y-31032333D01*
X84698666Y-31199000D01*
X84665333Y-31265666D01*
X84632000Y-31299000D01*
X84565333Y-31332333D01*
X84398666Y-31332333D01*
X84332000Y-31299000D01*
X84298666Y-31265666D01*
X84265333Y-31199000D01*
X84265333Y-31032333D01*
X84298666Y-30965666D01*
X84332000Y-30932333D01*
X84965333Y-31532333D02*
X84265333Y-31765666D01*
X84965333Y-31999000D01*
D11*
X57158000Y-48670595D02*
X57110380Y-48765833D01*
X57110380Y-48908690D01*
X57158000Y-49051547D01*
X57253238Y-49146785D01*
X57348476Y-49194404D01*
X57538952Y-49242023D01*
X57681809Y-49242023D01*
X57872285Y-49194404D01*
X57967523Y-49146785D01*
X58062761Y-49051547D01*
X58110380Y-48908690D01*
X58110380Y-48813452D01*
X58062761Y-48670595D01*
X58015142Y-48622976D01*
X57681809Y-48622976D01*
X57681809Y-48813452D01*
X58110380Y-48194404D02*
X57110380Y-48194404D01*
X58110380Y-47622976D01*
X57110380Y-47622976D01*
X58110380Y-47146785D02*
X57110380Y-47146785D01*
X57110380Y-46908690D01*
X57158000Y-46765833D01*
X57253238Y-46670595D01*
X57348476Y-46622976D01*
X57538952Y-46575357D01*
X57681809Y-46575357D01*
X57872285Y-46622976D01*
X57967523Y-46670595D01*
X58062761Y-46765833D01*
X58110380Y-46908690D01*
X58110380Y-47146785D01*
X54570380Y-49337261D02*
X54570380Y-48765833D01*
X55570380Y-49051547D02*
X54570380Y-49051547D01*
X54570380Y-48527738D02*
X54570380Y-47861071D01*
X55570380Y-48527738D01*
X55570380Y-47861071D01*
X84336000Y-54258595D02*
X84288380Y-54353833D01*
X84288380Y-54496690D01*
X84336000Y-54639547D01*
X84431238Y-54734785D01*
X84526476Y-54782404D01*
X84716952Y-54830023D01*
X84859809Y-54830023D01*
X85050285Y-54782404D01*
X85145523Y-54734785D01*
X85240761Y-54639547D01*
X85288380Y-54496690D01*
X85288380Y-54401452D01*
X85240761Y-54258595D01*
X85193142Y-54210976D01*
X84859809Y-54210976D01*
X84859809Y-54401452D01*
X85288380Y-53782404D02*
X84288380Y-53782404D01*
X85288380Y-53210976D01*
X84288380Y-53210976D01*
X85288380Y-52734785D02*
X84288380Y-52734785D01*
X84288380Y-52496690D01*
X84336000Y-52353833D01*
X84431238Y-52258595D01*
X84526476Y-52210976D01*
X84716952Y-52163357D01*
X84859809Y-52163357D01*
X85050285Y-52210976D01*
X85145523Y-52258595D01*
X85240761Y-52353833D01*
X85288380Y-52496690D01*
X85288380Y-52734785D01*
X82748380Y-54258595D02*
X82748380Y-54830023D01*
X82748380Y-54544309D02*
X81748380Y-54544309D01*
X81891238Y-54639547D01*
X81986476Y-54734785D01*
X82034095Y-54830023D01*
X81843619Y-53877642D02*
X81796000Y-53830023D01*
X81748380Y-53734785D01*
X81748380Y-53496690D01*
X81796000Y-53401452D01*
X81843619Y-53353833D01*
X81938857Y-53306214D01*
X82034095Y-53306214D01*
X82176952Y-53353833D01*
X82748380Y-53925261D01*
X82748380Y-53306214D01*
X81748380Y-53020500D02*
X82748380Y-52687166D01*
X81748380Y-52353833D01*
X48051785Y-22312380D02*
X48051785Y-23121904D01*
X48099404Y-23217142D01*
X48147023Y-23264761D01*
X48242261Y-23312380D01*
X48432738Y-23312380D01*
X48527976Y-23264761D01*
X48575595Y-23217142D01*
X48623214Y-23121904D01*
X48623214Y-22312380D01*
X49099404Y-23312380D02*
X49099404Y-22312380D01*
X49480357Y-22312380D01*
X49575595Y-22360000D01*
X49623214Y-22407619D01*
X49670833Y-22502857D01*
X49670833Y-22645714D01*
X49623214Y-22740952D01*
X49575595Y-22788571D01*
X49480357Y-22836190D01*
X49099404Y-22836190D01*
X50099404Y-23312380D02*
X50099404Y-22312380D01*
X50337500Y-22312380D01*
X50480357Y-22360000D01*
X50575595Y-22455238D01*
X50623214Y-22550476D01*
X50670833Y-22740952D01*
X50670833Y-22883809D01*
X50623214Y-23074285D01*
X50575595Y-23169523D01*
X50480357Y-23264761D01*
X50337500Y-23312380D01*
X50099404Y-23312380D01*
X51099404Y-23312380D02*
X51099404Y-22312380D01*
X49051785Y-24900000D02*
X48956547Y-24852380D01*
X48813690Y-24852380D01*
X48670833Y-24900000D01*
X48575595Y-24995238D01*
X48527976Y-25090476D01*
X48480357Y-25280952D01*
X48480357Y-25423809D01*
X48527976Y-25614285D01*
X48575595Y-25709523D01*
X48670833Y-25804761D01*
X48813690Y-25852380D01*
X48908928Y-25852380D01*
X49051785Y-25804761D01*
X49099404Y-25757142D01*
X49099404Y-25423809D01*
X48908928Y-25423809D01*
X49527976Y-25852380D02*
X49527976Y-24852380D01*
X50099404Y-25852380D01*
X50099404Y-24852380D01*
X50575595Y-25852380D02*
X50575595Y-24852380D01*
X50813690Y-24852380D01*
X50956547Y-24900000D01*
X51051785Y-24995238D01*
X51099404Y-25090476D01*
X51147023Y-25280952D01*
X51147023Y-25423809D01*
X51099404Y-25614285D01*
X51051785Y-25709523D01*
X50956547Y-25804761D01*
X50813690Y-25852380D01*
X50575595Y-25852380D01*
X60549404Y-24900000D02*
X60454166Y-24852380D01*
X60311309Y-24852380D01*
X60168452Y-24900000D01*
X60073214Y-24995238D01*
X60025595Y-25090476D01*
X59977976Y-25280952D01*
X59977976Y-25423809D01*
X60025595Y-25614285D01*
X60073214Y-25709523D01*
X60168452Y-25804761D01*
X60311309Y-25852380D01*
X60406547Y-25852380D01*
X60549404Y-25804761D01*
X60597023Y-25757142D01*
X60597023Y-25423809D01*
X60406547Y-25423809D01*
X61025595Y-25852380D02*
X61025595Y-24852380D01*
X61597023Y-25852380D01*
X61597023Y-24852380D01*
X62073214Y-25852380D02*
X62073214Y-24852380D01*
X62311309Y-24852380D01*
X62454166Y-24900000D01*
X62549404Y-24995238D01*
X62597023Y-25090476D01*
X62644642Y-25280952D01*
X62644642Y-25423809D01*
X62597023Y-25614285D01*
X62549404Y-25709523D01*
X62454166Y-25804761D01*
X62311309Y-25852380D01*
X62073214Y-25852380D01*
X59882738Y-22312380D02*
X60454166Y-22312380D01*
X60168452Y-23312380D02*
X60168452Y-22312380D01*
X60692261Y-23312380D02*
X61216071Y-22645714D01*
X60692261Y-22645714D02*
X61216071Y-23312380D01*
X61597023Y-23312380D02*
X61597023Y-22312380D01*
X61835119Y-22312380D01*
X61977976Y-22360000D01*
X62073214Y-22455238D01*
X62120833Y-22550476D01*
X62168452Y-22740952D01*
X62168452Y-22883809D01*
X62120833Y-23074285D01*
X62073214Y-23169523D01*
X61977976Y-23264761D01*
X61835119Y-23312380D01*
X61597023Y-23312380D01*
D12*
X28044285Y-57828571D02*
X28044285Y-56328571D01*
X28901428Y-57828571D01*
X28901428Y-56328571D01*
X29615714Y-57828571D02*
X29615714Y-56828571D01*
X29615714Y-56328571D02*
X29544285Y-56400000D01*
X29615714Y-56471428D01*
X29687142Y-56400000D01*
X29615714Y-56328571D01*
X29615714Y-56471428D01*
X30187142Y-57828571D02*
X30972857Y-56828571D01*
X30187142Y-56828571D02*
X30972857Y-57828571D01*
X31544285Y-57828571D02*
X31544285Y-56828571D01*
X31544285Y-56328571D02*
X31472857Y-56400000D01*
X31544285Y-56471428D01*
X31615714Y-56400000D01*
X31544285Y-56328571D01*
X31544285Y-56471428D01*
X32830000Y-57757142D02*
X32687142Y-57828571D01*
X32401428Y-57828571D01*
X32258571Y-57757142D01*
X32187142Y-57614285D01*
X32187142Y-57042857D01*
X32258571Y-56900000D01*
X32401428Y-56828571D01*
X32687142Y-56828571D01*
X32830000Y-56900000D01*
X32901428Y-57042857D01*
X32901428Y-57185714D01*
X32187142Y-57328571D01*
X34401428Y-57685714D02*
X34330000Y-57757142D01*
X34115714Y-57828571D01*
X33972857Y-57828571D01*
X33758571Y-57757142D01*
X33615714Y-57614285D01*
X33544285Y-57471428D01*
X33472857Y-57185714D01*
X33472857Y-56971428D01*
X33544285Y-56685714D01*
X33615714Y-56542857D01*
X33758571Y-56400000D01*
X33972857Y-56328571D01*
X34115714Y-56328571D01*
X34330000Y-56400000D01*
X34401428Y-56471428D01*
X35258571Y-57828571D02*
X35115714Y-57757142D01*
X35044285Y-57614285D01*
X35044285Y-56328571D01*
X36044285Y-57828571D02*
X35901428Y-57757142D01*
X35830000Y-57685714D01*
X35758571Y-57542857D01*
X35758571Y-57114285D01*
X35830000Y-56971428D01*
X35901428Y-56900000D01*
X36044285Y-56828571D01*
X36258571Y-56828571D01*
X36401428Y-56900000D01*
X36472857Y-56971428D01*
X36544285Y-57114285D01*
X36544285Y-57542857D01*
X36472857Y-57685714D01*
X36401428Y-57757142D01*
X36258571Y-57828571D01*
X36044285Y-57828571D01*
X37830000Y-57757142D02*
X37687142Y-57828571D01*
X37401428Y-57828571D01*
X37258571Y-57757142D01*
X37187142Y-57685714D01*
X37115714Y-57542857D01*
X37115714Y-57114285D01*
X37187142Y-56971428D01*
X37258571Y-56900000D01*
X37401428Y-56828571D01*
X37687142Y-56828571D01*
X37830000Y-56900000D01*
X38472857Y-57828571D02*
X38472857Y-56328571D01*
X38615714Y-57257142D02*
X39044285Y-57828571D01*
X39044285Y-56828571D02*
X38472857Y-57400000D01*
X40830000Y-57828571D02*
X40830000Y-56828571D01*
X40830000Y-57114285D02*
X40901428Y-56971428D01*
X40972857Y-56900000D01*
X41115714Y-56828571D01*
X41258571Y-56828571D01*
X42330000Y-57757142D02*
X42187142Y-57828571D01*
X41901428Y-57828571D01*
X41758571Y-57757142D01*
X41687142Y-57614285D01*
X41687142Y-57042857D01*
X41758571Y-56900000D01*
X41901428Y-56828571D01*
X42187142Y-56828571D01*
X42330000Y-56900000D01*
X42401428Y-57042857D01*
X42401428Y-57185714D01*
X41687142Y-57328571D01*
X42901428Y-56828571D02*
X43258571Y-57828571D01*
X43615714Y-56828571D01*
X44187142Y-57685714D02*
X44258571Y-57757142D01*
X44187142Y-57828571D01*
X44115714Y-57757142D01*
X44187142Y-57685714D01*
X44187142Y-57828571D01*
X44830000Y-56471428D02*
X44901428Y-56400000D01*
X45044285Y-56328571D01*
X45401428Y-56328571D01*
X45544285Y-56400000D01*
X45615714Y-56471428D01*
X45687142Y-56614285D01*
X45687142Y-56757142D01*
X45615714Y-56971428D01*
X44758571Y-57828571D01*
X45687142Y-57828571D01*
D11*
X105270761Y-58235904D02*
X105270761Y-58807333D01*
X105232666Y-58921619D01*
X105156476Y-58997809D01*
X105042190Y-59035904D01*
X104966000Y-59035904D01*
X106032666Y-59035904D02*
X105651714Y-59035904D01*
X105651714Y-58235904D01*
X106756476Y-58959714D02*
X106718380Y-58997809D01*
X106604095Y-59035904D01*
X106527904Y-59035904D01*
X106413619Y-58997809D01*
X106337428Y-58921619D01*
X106299333Y-58845428D01*
X106261238Y-58693047D01*
X106261238Y-58578761D01*
X106299333Y-58426380D01*
X106337428Y-58350190D01*
X106413619Y-58274000D01*
X106527904Y-58235904D01*
X106604095Y-58235904D01*
X106718380Y-58274000D01*
X106756476Y-58312095D01*
X107327904Y-58235904D02*
X107327904Y-58807333D01*
X107289809Y-58921619D01*
X107213619Y-58997809D01*
X107099333Y-59035904D01*
X107023142Y-59035904D01*
X108089809Y-59035904D02*
X107708857Y-59035904D01*
X107708857Y-58235904D01*
X108813619Y-58959714D02*
X108775523Y-58997809D01*
X108661238Y-59035904D01*
X108585047Y-59035904D01*
X108470761Y-58997809D01*
X108394571Y-58921619D01*
X108356476Y-58845428D01*
X108318380Y-58693047D01*
X108318380Y-58578761D01*
X108356476Y-58426380D01*
X108394571Y-58350190D01*
X108470761Y-58274000D01*
X108585047Y-58235904D01*
X108661238Y-58235904D01*
X108775523Y-58274000D01*
X108813619Y-58312095D01*
X109385047Y-58235904D02*
X109385047Y-58807333D01*
X109346952Y-58921619D01*
X109270761Y-58997809D01*
X109156476Y-59035904D01*
X109080285Y-59035904D01*
X110146952Y-59035904D02*
X109766000Y-59035904D01*
X109766000Y-58235904D01*
X110870761Y-58959714D02*
X110832666Y-58997809D01*
X110718380Y-59035904D01*
X110642190Y-59035904D01*
X110527904Y-58997809D01*
X110451714Y-58921619D01*
X110413619Y-58845428D01*
X110375523Y-58693047D01*
X110375523Y-58578761D01*
X110413619Y-58426380D01*
X110451714Y-58350190D01*
X110527904Y-58274000D01*
X110642190Y-58235904D01*
X110718380Y-58235904D01*
X110832666Y-58274000D01*
X110870761Y-58312095D01*
X111442190Y-58235904D02*
X111442190Y-58807333D01*
X111404095Y-58921619D01*
X111327904Y-58997809D01*
X111213619Y-59035904D01*
X111137428Y-59035904D01*
X112204095Y-59035904D02*
X111823142Y-59035904D01*
X111823142Y-58235904D01*
X112927904Y-58959714D02*
X112889809Y-58997809D01*
X112775523Y-59035904D01*
X112699333Y-59035904D01*
X112585047Y-58997809D01*
X112508857Y-58921619D01*
X112470761Y-58845428D01*
X112432666Y-58693047D01*
X112432666Y-58578761D01*
X112470761Y-58426380D01*
X112508857Y-58350190D01*
X112585047Y-58274000D01*
X112699333Y-58235904D01*
X112775523Y-58235904D01*
X112889809Y-58274000D01*
X112927904Y-58312095D01*
D13*
X84756258Y-23099500D02*
X84281742Y-23099500D01*
X84756258Y-24144500D02*
X84281742Y-24144500D01*
X78865000Y-52389721D02*
X78865000Y-52715279D01*
X79885000Y-52389721D02*
X79885000Y-52715279D01*
X53788000Y-52638000D02*
X53788000Y-51308000D01*
X55118000Y-52638000D02*
X53788000Y-52638000D01*
X56388000Y-52638000D02*
X56388000Y-49978000D01*
X56388000Y-49978000D02*
X58988000Y-49978000D01*
X56388000Y-52638000D02*
X58988000Y-52638000D01*
X58988000Y-52638000D02*
X58988000Y-49978000D01*
X76947500Y-34497742D02*
X76947500Y-34972258D01*
X77992500Y-34497742D02*
X77992500Y-34972258D01*
X57737742Y-28462500D02*
X58212258Y-28462500D01*
X57737742Y-27417500D02*
X58212258Y-27417500D01*
X72110000Y-46985000D02*
X73210000Y-46985000D01*
X72110000Y-46715000D02*
X72110000Y-46985000D01*
X70610000Y-46715000D02*
X72110000Y-46715000D01*
X72110000Y-53345000D02*
X74940000Y-53345000D01*
X72110000Y-53615000D02*
X72110000Y-53345000D01*
X70610000Y-53615000D02*
X72110000Y-53615000D01*
X74321580Y-54100000D02*
X74040420Y-54100000D01*
X74321580Y-55120000D02*
X74040420Y-55120000D01*
X63785436Y-40910000D02*
X65239564Y-40910000D01*
X63785436Y-39090000D02*
X65239564Y-39090000D01*
X84819258Y-26401500D02*
X84344742Y-26401500D01*
X84819258Y-27446500D02*
X84344742Y-27446500D01*
X111910000Y-50227064D02*
X111910000Y-48772936D01*
X110090000Y-50227064D02*
X110090000Y-48772936D01*
X89910000Y-50227064D02*
X89910000Y-48772936D01*
X88090000Y-50227064D02*
X88090000Y-48772936D01*
X51910000Y-50227064D02*
X51910000Y-48772936D01*
X50090000Y-50227064D02*
X50090000Y-48772936D01*
X29910000Y-50214564D02*
X29910000Y-48760436D01*
X28090000Y-50214564D02*
X28090000Y-48760436D01*
X74175252Y-43080000D02*
X73652748Y-43080000D01*
X74175252Y-44550000D02*
X73652748Y-44550000D01*
X74321580Y-45210000D02*
X74040420Y-45210000D01*
X74321580Y-46230000D02*
X74040420Y-46230000D01*
X45084420Y-23310000D02*
X45365580Y-23310000D01*
X45084420Y-22290000D02*
X45365580Y-22290000D01*
X94684420Y-23310000D02*
X94965580Y-23310000D01*
X94684420Y-22290000D02*
X94965580Y-22290000D01*
X73765580Y-35490000D02*
X73484420Y-35490000D01*
X73765580Y-36510000D02*
X73484420Y-36510000D01*
X86612000Y-28354000D02*
X86612000Y-29464000D01*
X85852000Y-28354000D02*
X86612000Y-28354000D01*
X85092000Y-30027471D02*
X85092000Y-30574000D01*
X85092000Y-28354000D02*
X85092000Y-28900529D01*
X85092000Y-30574000D02*
X78807000Y-30574000D01*
X85092000Y-28354000D02*
X78807000Y-28354000D01*
X78807000Y-29771530D02*
X78807000Y-30574000D01*
X78807000Y-28354000D02*
X78807000Y-29156470D01*
X81009258Y-26401500D02*
X80534742Y-26401500D01*
X81009258Y-27446500D02*
X80534742Y-27446500D01*
X81590000Y-23116000D02*
X81590000Y-24576000D01*
X78430000Y-23116000D02*
X78430000Y-25276000D01*
X78430000Y-23116000D02*
X79360000Y-23116000D01*
X81590000Y-23116000D02*
X80660000Y-23116000D01*
X78974000Y-48026000D02*
X76474000Y-48026000D01*
X76474000Y-48026000D02*
X76474000Y-50526000D01*
X78974000Y-50526000D02*
X76474000Y-50526000D01*
X78974000Y-48026000D02*
X78974000Y-50526000D01*
X63734000Y-45446000D02*
X61234000Y-45446000D01*
X63734000Y-42946000D02*
X61234000Y-42946000D01*
X61234000Y-42946000D02*
X61234000Y-45446000D01*
X63734000Y-42946000D02*
X63734000Y-45446000D01*
X63734000Y-58146000D02*
X61234000Y-58146000D01*
X61234000Y-55646000D02*
X61234000Y-58146000D01*
X63734000Y-55646000D02*
X63734000Y-58146000D01*
X63734000Y-55646000D02*
X61234000Y-55646000D01*
X76474000Y-55646000D02*
X76474000Y-58146000D01*
X78974000Y-55646000D02*
X78974000Y-58146000D01*
X78974000Y-55646000D02*
X76474000Y-55646000D01*
X78974000Y-58146000D02*
X76474000Y-58146000D01*
X73860000Y-34775000D02*
X75675000Y-34775000D01*
X73860000Y-35010000D02*
X73860000Y-34775000D01*
X70000000Y-35010000D02*
X73860000Y-35010000D01*
X66140000Y-35010000D02*
X66140000Y-34775000D01*
X70000000Y-35010000D02*
X66140000Y-35010000D01*
X73860000Y-21990000D02*
X73860000Y-22225000D01*
X70000000Y-21990000D02*
X73860000Y-21990000D01*
X66140000Y-21990000D02*
X66140000Y-22225000D01*
X70000000Y-21990000D02*
X66140000Y-21990000D01*
X80966000Y-58226000D02*
X80966000Y-56896000D01*
X82296000Y-58226000D02*
X80966000Y-58226000D01*
X83566000Y-58226000D02*
X83566000Y-55566000D01*
X83566000Y-55566000D02*
X86166000Y-55566000D01*
X83566000Y-58226000D02*
X86166000Y-58226000D01*
X86166000Y-58226000D02*
X86166000Y-55566000D01*
X56455000Y-21530000D02*
X57785000Y-21530000D01*
X56455000Y-22860000D02*
X56455000Y-21530000D01*
X56455000Y-24130000D02*
X59115000Y-24130000D01*
X59115000Y-24130000D02*
X59115000Y-26730000D01*
X56455000Y-24130000D02*
X56455000Y-26730000D01*
X56455000Y-26730000D02*
X59115000Y-26730000D01*
X52010000Y-21530000D02*
X53340000Y-21530000D01*
X52010000Y-22860000D02*
X52010000Y-21530000D01*
X52010000Y-24130000D02*
X54670000Y-24130000D01*
X54670000Y-24130000D02*
X54670000Y-26730000D01*
X52010000Y-24130000D02*
X52010000Y-26730000D01*
X52010000Y-26730000D02*
X54670000Y-26730000D01*
X95800000Y-40000000D02*
G75*
G03*
X95800000Y-40000000I-6800000J0D01*
G01*
X89000000Y-41270000D02*
X89000000Y-38730000D01*
X89000000Y-38730000D02*
X88365000Y-39365000D01*
X89000000Y-38730000D02*
X89635000Y-39365000D01*
X35800000Y-40000000D02*
G75*
G03*
X35800000Y-40000000I-6800000J0D01*
G01*
X29000000Y-41270000D02*
X29000000Y-38730000D01*
X29000000Y-38730000D02*
X28365000Y-39365000D01*
X29000000Y-38730000D02*
X29635000Y-39365000D01*
X117800000Y-40000000D02*
G75*
G03*
X117800000Y-40000000I-6800000J0D01*
G01*
X111000000Y-41270000D02*
X111000000Y-38730000D01*
X111000000Y-38730000D02*
X110365000Y-39365000D01*
X111000000Y-38730000D02*
X111635000Y-39365000D01*
X57800000Y-40000000D02*
G75*
G03*
X57800000Y-40000000I-6800000J0D01*
G01*
X51000000Y-41270000D02*
X51000000Y-38730000D01*
X51000000Y-38730000D02*
X50365000Y-39365000D01*
X51000000Y-38730000D02*
X51635000Y-39365000D01*
D11*
X100406586Y-36911969D02*
X101308148Y-37813530D01*
X92681445Y-30000000D02*
X93158742Y-30477297D01*
X100000000Y-22681445D02*
X100477297Y-23158742D01*
X107318555Y-30000000D02*
X106841258Y-29522703D01*
X100000000Y-37318555D02*
X99522703Y-36841258D01*
X107318555Y-30000000D02*
X106841258Y-30477297D01*
X100000000Y-22681445D02*
X99522703Y-23158742D01*
X92681445Y-30000000D02*
X93158742Y-29522703D01*
X100000000Y-37318555D02*
X100406586Y-36911969D01*
X33088031Y-30406586D02*
X32186470Y-31308148D01*
X40000000Y-22681445D02*
X39522703Y-23158742D01*
X47318555Y-30000000D02*
X46841258Y-30477297D01*
X40000000Y-37318555D02*
X40477297Y-36841258D01*
X32681445Y-30000000D02*
X33158742Y-29522703D01*
X40000000Y-37318555D02*
X39522703Y-36841258D01*
X47318555Y-30000000D02*
X46841258Y-29522703D01*
X40000000Y-22681445D02*
X40477297Y-23158742D01*
X32681445Y-30000000D02*
X33088031Y-30406586D01*
D13*
X73000000Y-40000000D02*
G75*
G03*
X73000000Y-40000000I-3000000J0D01*
G01*
D11*
X86955333Y-24074380D02*
X86622000Y-23598190D01*
X86383904Y-24074380D02*
X86383904Y-23074380D01*
X86764857Y-23074380D01*
X86860095Y-23122000D01*
X86907714Y-23169619D01*
X86955333Y-23264857D01*
X86955333Y-23407714D01*
X86907714Y-23502952D01*
X86860095Y-23550571D01*
X86764857Y-23598190D01*
X86383904Y-23598190D01*
X87812476Y-23074380D02*
X87622000Y-23074380D01*
X87526761Y-23122000D01*
X87479142Y-23169619D01*
X87383904Y-23312476D01*
X87336285Y-23502952D01*
X87336285Y-23883904D01*
X87383904Y-23979142D01*
X87431523Y-24026761D01*
X87526761Y-24074380D01*
X87717238Y-24074380D01*
X87812476Y-24026761D01*
X87860095Y-23979142D01*
X87907714Y-23883904D01*
X87907714Y-23645809D01*
X87860095Y-23550571D01*
X87812476Y-23502952D01*
X87717238Y-23455333D01*
X87526761Y-23455333D01*
X87431523Y-23502952D01*
X87383904Y-23550571D01*
X87336285Y-23645809D01*
X77906571Y-52860333D02*
X77906571Y-53193666D01*
X78430380Y-53193666D02*
X77430380Y-53193666D01*
X77430380Y-52717476D01*
X77525619Y-52384142D02*
X77478000Y-52336523D01*
X77430380Y-52241285D01*
X77430380Y-52003190D01*
X77478000Y-51907952D01*
X77525619Y-51860333D01*
X77620857Y-51812714D01*
X77716095Y-51812714D01*
X77858952Y-51860333D01*
X78430380Y-52431761D01*
X78430380Y-51812714D01*
X77922380Y-37504666D02*
X77446190Y-37838000D01*
X77922380Y-38076095D02*
X76922380Y-38076095D01*
X76922380Y-37695142D01*
X76970000Y-37599904D01*
X77017619Y-37552285D01*
X77112857Y-37504666D01*
X77255714Y-37504666D01*
X77350952Y-37552285D01*
X77398571Y-37599904D01*
X77446190Y-37695142D01*
X77446190Y-38076095D01*
X77922380Y-37028476D02*
X77922380Y-36838000D01*
X77874761Y-36742761D01*
X77827142Y-36695142D01*
X77684285Y-36599904D01*
X77493809Y-36552285D01*
X77112857Y-36552285D01*
X77017619Y-36599904D01*
X76970000Y-36647523D01*
X76922380Y-36742761D01*
X76922380Y-36933238D01*
X76970000Y-37028476D01*
X77017619Y-37076095D01*
X77112857Y-37123714D01*
X77350952Y-37123714D01*
X77446190Y-37076095D01*
X77493809Y-37028476D01*
X77541428Y-36933238D01*
X77541428Y-36742761D01*
X77493809Y-36647523D01*
X77446190Y-36599904D01*
X77350952Y-36552285D01*
X57808333Y-29662380D02*
X57475000Y-29186190D01*
X57236904Y-29662380D02*
X57236904Y-28662380D01*
X57617857Y-28662380D01*
X57713095Y-28710000D01*
X57760714Y-28757619D01*
X57808333Y-28852857D01*
X57808333Y-28995714D01*
X57760714Y-29090952D01*
X57713095Y-29138571D01*
X57617857Y-29186190D01*
X57236904Y-29186190D01*
X58713095Y-28662380D02*
X58236904Y-28662380D01*
X58189285Y-29138571D01*
X58236904Y-29090952D01*
X58332142Y-29043333D01*
X58570238Y-29043333D01*
X58665476Y-29090952D01*
X58713095Y-29138571D01*
X58760714Y-29233809D01*
X58760714Y-29471904D01*
X58713095Y-29567142D01*
X58665476Y-29614761D01*
X58570238Y-29662380D01*
X58332142Y-29662380D01*
X58236904Y-29614761D01*
X58189285Y-29567142D01*
X62103095Y-49617380D02*
X62103095Y-50426904D01*
X62150714Y-50522142D01*
X62198333Y-50569761D01*
X62293571Y-50617380D01*
X62484047Y-50617380D01*
X62579285Y-50569761D01*
X62626904Y-50522142D01*
X62674523Y-50426904D01*
X62674523Y-49617380D01*
X63579285Y-49950714D02*
X63579285Y-50617380D01*
X63341190Y-49569761D02*
X63103095Y-50284047D01*
X63722142Y-50284047D01*
X76694333Y-54967142D02*
X76646714Y-55014761D01*
X76503857Y-55062380D01*
X76408619Y-55062380D01*
X76265761Y-55014761D01*
X76170523Y-54919523D01*
X76122904Y-54824285D01*
X76075285Y-54633809D01*
X76075285Y-54490952D01*
X76122904Y-54300476D01*
X76170523Y-54205238D01*
X76265761Y-54110000D01*
X76408619Y-54062380D01*
X76503857Y-54062380D01*
X76646714Y-54110000D01*
X76694333Y-54157619D01*
X77551476Y-54062380D02*
X77361000Y-54062380D01*
X77265761Y-54110000D01*
X77218142Y-54157619D01*
X77122904Y-54300476D01*
X77075285Y-54490952D01*
X77075285Y-54871904D01*
X77122904Y-54967142D01*
X77170523Y-55014761D01*
X77265761Y-55062380D01*
X77456238Y-55062380D01*
X77551476Y-55014761D01*
X77599095Y-54967142D01*
X77646714Y-54871904D01*
X77646714Y-54633809D01*
X77599095Y-54538571D01*
X77551476Y-54490952D01*
X77456238Y-54443333D01*
X77265761Y-54443333D01*
X77170523Y-54490952D01*
X77122904Y-54538571D01*
X77075285Y-54633809D01*
X63869642Y-38632380D02*
X63536309Y-38156190D01*
X63298214Y-38632380D02*
X63298214Y-37632380D01*
X63679166Y-37632380D01*
X63774404Y-37680000D01*
X63822023Y-37727619D01*
X63869642Y-37822857D01*
X63869642Y-37965714D01*
X63822023Y-38060952D01*
X63774404Y-38108571D01*
X63679166Y-38156190D01*
X63298214Y-38156190D01*
X64822023Y-38632380D02*
X64250595Y-38632380D01*
X64536309Y-38632380D02*
X64536309Y-37632380D01*
X64441071Y-37775238D01*
X64345833Y-37870476D01*
X64250595Y-37918095D01*
X65441071Y-37632380D02*
X65536309Y-37632380D01*
X65631547Y-37680000D01*
X65679166Y-37727619D01*
X65726785Y-37822857D01*
X65774404Y-38013333D01*
X65774404Y-38251428D01*
X65726785Y-38441904D01*
X65679166Y-38537142D01*
X65631547Y-38584761D01*
X65536309Y-38632380D01*
X65441071Y-38632380D01*
X65345833Y-38584761D01*
X65298214Y-38537142D01*
X65250595Y-38441904D01*
X65202976Y-38251428D01*
X65202976Y-38013333D01*
X65250595Y-37822857D01*
X65298214Y-37727619D01*
X65345833Y-37680000D01*
X65441071Y-37632380D01*
X86955333Y-27376380D02*
X86622000Y-26900190D01*
X86383904Y-27376380D02*
X86383904Y-26376380D01*
X86764857Y-26376380D01*
X86860095Y-26424000D01*
X86907714Y-26471619D01*
X86955333Y-26566857D01*
X86955333Y-26709714D01*
X86907714Y-26804952D01*
X86860095Y-26852571D01*
X86764857Y-26900190D01*
X86383904Y-26900190D01*
X87288666Y-26376380D02*
X87955333Y-26376380D01*
X87526761Y-27376380D01*
X109632380Y-49666666D02*
X109156190Y-50000000D01*
X109632380Y-50238095D02*
X108632380Y-50238095D01*
X108632380Y-49857142D01*
X108680000Y-49761904D01*
X108727619Y-49714285D01*
X108822857Y-49666666D01*
X108965714Y-49666666D01*
X109060952Y-49714285D01*
X109108571Y-49761904D01*
X109156190Y-49857142D01*
X109156190Y-50238095D01*
X108965714Y-48809523D02*
X109632380Y-48809523D01*
X108584761Y-49047619D02*
X109299047Y-49285714D01*
X109299047Y-48666666D01*
X87632380Y-49666666D02*
X87156190Y-50000000D01*
X87632380Y-50238095D02*
X86632380Y-50238095D01*
X86632380Y-49857142D01*
X86680000Y-49761904D01*
X86727619Y-49714285D01*
X86822857Y-49666666D01*
X86965714Y-49666666D01*
X87060952Y-49714285D01*
X87108571Y-49761904D01*
X87156190Y-49857142D01*
X87156190Y-50238095D01*
X86632380Y-49333333D02*
X86632380Y-48714285D01*
X87013333Y-49047619D01*
X87013333Y-48904761D01*
X87060952Y-48809523D01*
X87108571Y-48761904D01*
X87203809Y-48714285D01*
X87441904Y-48714285D01*
X87537142Y-48761904D01*
X87584761Y-48809523D01*
X87632380Y-48904761D01*
X87632380Y-49190476D01*
X87584761Y-49285714D01*
X87537142Y-49333333D01*
X49632380Y-49666666D02*
X49156190Y-50000000D01*
X49632380Y-50238095D02*
X48632380Y-50238095D01*
X48632380Y-49857142D01*
X48680000Y-49761904D01*
X48727619Y-49714285D01*
X48822857Y-49666666D01*
X48965714Y-49666666D01*
X49060952Y-49714285D01*
X49108571Y-49761904D01*
X49156190Y-49857142D01*
X49156190Y-50238095D01*
X48727619Y-49285714D02*
X48680000Y-49238095D01*
X48632380Y-49142857D01*
X48632380Y-48904761D01*
X48680000Y-48809523D01*
X48727619Y-48761904D01*
X48822857Y-48714285D01*
X48918095Y-48714285D01*
X49060952Y-48761904D01*
X49632380Y-49333333D01*
X49632380Y-48714285D01*
X27632380Y-49654166D02*
X27156190Y-49987500D01*
X27632380Y-50225595D02*
X26632380Y-50225595D01*
X26632380Y-49844642D01*
X26680000Y-49749404D01*
X26727619Y-49701785D01*
X26822857Y-49654166D01*
X26965714Y-49654166D01*
X27060952Y-49701785D01*
X27108571Y-49749404D01*
X27156190Y-49844642D01*
X27156190Y-50225595D01*
X27632380Y-48701785D02*
X27632380Y-49273214D01*
X27632380Y-48987500D02*
X26632380Y-48987500D01*
X26775238Y-49082738D01*
X26870476Y-49177976D01*
X26918095Y-49273214D01*
X76541333Y-44172142D02*
X76493714Y-44219761D01*
X76350857Y-44267380D01*
X76255619Y-44267380D01*
X76112761Y-44219761D01*
X76017523Y-44124523D01*
X75969904Y-44029285D01*
X75922285Y-43838809D01*
X75922285Y-43695952D01*
X75969904Y-43505476D01*
X76017523Y-43410238D01*
X76112761Y-43315000D01*
X76255619Y-43267380D01*
X76350857Y-43267380D01*
X76493714Y-43315000D01*
X76541333Y-43362619D01*
X77112761Y-43695952D02*
X77017523Y-43648333D01*
X76969904Y-43600714D01*
X76922285Y-43505476D01*
X76922285Y-43457857D01*
X76969904Y-43362619D01*
X77017523Y-43315000D01*
X77112761Y-43267380D01*
X77303238Y-43267380D01*
X77398476Y-43315000D01*
X77446095Y-43362619D01*
X77493714Y-43457857D01*
X77493714Y-43505476D01*
X77446095Y-43600714D01*
X77398476Y-43648333D01*
X77303238Y-43695952D01*
X77112761Y-43695952D01*
X77017523Y-43743571D01*
X76969904Y-43791190D01*
X76922285Y-43886428D01*
X76922285Y-44076904D01*
X76969904Y-44172142D01*
X77017523Y-44219761D01*
X77112761Y-44267380D01*
X77303238Y-44267380D01*
X77398476Y-44219761D01*
X77446095Y-44172142D01*
X77493714Y-44076904D01*
X77493714Y-43886428D01*
X77446095Y-43791190D01*
X77398476Y-43743571D01*
X77303238Y-43695952D01*
X76554333Y-46077142D02*
X76506714Y-46124761D01*
X76363857Y-46172380D01*
X76268619Y-46172380D01*
X76125761Y-46124761D01*
X76030523Y-46029523D01*
X75982904Y-45934285D01*
X75935285Y-45743809D01*
X75935285Y-45600952D01*
X75982904Y-45410476D01*
X76030523Y-45315238D01*
X76125761Y-45220000D01*
X76268619Y-45172380D01*
X76363857Y-45172380D01*
X76506714Y-45220000D01*
X76554333Y-45267619D01*
X76887666Y-45172380D02*
X77554333Y-45172380D01*
X77125761Y-46172380D01*
X45058333Y-21727142D02*
X45010714Y-21774761D01*
X44867857Y-21822380D01*
X44772619Y-21822380D01*
X44629761Y-21774761D01*
X44534523Y-21679523D01*
X44486904Y-21584285D01*
X44439285Y-21393809D01*
X44439285Y-21250952D01*
X44486904Y-21060476D01*
X44534523Y-20965238D01*
X44629761Y-20870000D01*
X44772619Y-20822380D01*
X44867857Y-20822380D01*
X45010714Y-20870000D01*
X45058333Y-20917619D01*
X45391666Y-20822380D02*
X46010714Y-20822380D01*
X45677380Y-21203333D01*
X45820238Y-21203333D01*
X45915476Y-21250952D01*
X45963095Y-21298571D01*
X46010714Y-21393809D01*
X46010714Y-21631904D01*
X45963095Y-21727142D01*
X45915476Y-21774761D01*
X45820238Y-21822380D01*
X45534523Y-21822380D01*
X45439285Y-21774761D01*
X45391666Y-21727142D01*
X94658333Y-21727142D02*
X94610714Y-21774761D01*
X94467857Y-21822380D01*
X94372619Y-21822380D01*
X94229761Y-21774761D01*
X94134523Y-21679523D01*
X94086904Y-21584285D01*
X94039285Y-21393809D01*
X94039285Y-21250952D01*
X94086904Y-21060476D01*
X94134523Y-20965238D01*
X94229761Y-20870000D01*
X94372619Y-20822380D01*
X94467857Y-20822380D01*
X94610714Y-20870000D01*
X94658333Y-20917619D01*
X95039285Y-20917619D02*
X95086904Y-20870000D01*
X95182142Y-20822380D01*
X95420238Y-20822380D01*
X95515476Y-20870000D01*
X95563095Y-20917619D01*
X95610714Y-21012857D01*
X95610714Y-21108095D01*
X95563095Y-21250952D01*
X94991666Y-21822380D01*
X95610714Y-21822380D01*
X73458333Y-37787142D02*
X73410714Y-37834761D01*
X73267857Y-37882380D01*
X73172619Y-37882380D01*
X73029761Y-37834761D01*
X72934523Y-37739523D01*
X72886904Y-37644285D01*
X72839285Y-37453809D01*
X72839285Y-37310952D01*
X72886904Y-37120476D01*
X72934523Y-37025238D01*
X73029761Y-36930000D01*
X73172619Y-36882380D01*
X73267857Y-36882380D01*
X73410714Y-36930000D01*
X73458333Y-36977619D01*
X74410714Y-37882380D02*
X73839285Y-37882380D01*
X74125000Y-37882380D02*
X74125000Y-36882380D01*
X74029761Y-37025238D01*
X73934523Y-37120476D01*
X73839285Y-37168095D01*
X86999380Y-29797333D02*
X87713666Y-29797333D01*
X87856523Y-29844952D01*
X87951761Y-29940190D01*
X87999380Y-30083047D01*
X87999380Y-30178285D01*
X86999380Y-29416380D02*
X86999380Y-28797333D01*
X87380333Y-29130666D01*
X87380333Y-28987809D01*
X87427952Y-28892571D01*
X87475571Y-28844952D01*
X87570809Y-28797333D01*
X87808904Y-28797333D01*
X87904142Y-28844952D01*
X87951761Y-28892571D01*
X87999380Y-28987809D01*
X87999380Y-29273523D01*
X87951761Y-29368761D01*
X87904142Y-29416380D01*
X78065333Y-27376380D02*
X77732000Y-26900190D01*
X77493904Y-27376380D02*
X77493904Y-26376380D01*
X77874857Y-26376380D01*
X77970095Y-26424000D01*
X78017714Y-26471619D01*
X78065333Y-26566857D01*
X78065333Y-26709714D01*
X78017714Y-26804952D01*
X77970095Y-26852571D01*
X77874857Y-26900190D01*
X77493904Y-26900190D01*
X78636761Y-26804952D02*
X78541523Y-26757333D01*
X78493904Y-26709714D01*
X78446285Y-26614476D01*
X78446285Y-26566857D01*
X78493904Y-26471619D01*
X78541523Y-26424000D01*
X78636761Y-26376380D01*
X78827238Y-26376380D01*
X78922476Y-26424000D01*
X78970095Y-26471619D01*
X79017714Y-26566857D01*
X79017714Y-26614476D01*
X78970095Y-26709714D01*
X78922476Y-26757333D01*
X78827238Y-26804952D01*
X78636761Y-26804952D01*
X78541523Y-26852571D01*
X78493904Y-26900190D01*
X78446285Y-26995428D01*
X78446285Y-27185904D01*
X78493904Y-27281142D01*
X78541523Y-27328761D01*
X78636761Y-27376380D01*
X78827238Y-27376380D01*
X78922476Y-27328761D01*
X78970095Y-27281142D01*
X79017714Y-27185904D01*
X79017714Y-26995428D01*
X78970095Y-26900190D01*
X78922476Y-26852571D01*
X78827238Y-26804952D01*
X78057619Y-23971238D02*
X78010000Y-24066476D01*
X77914761Y-24161714D01*
X77771904Y-24304571D01*
X77724285Y-24399809D01*
X77724285Y-24495047D01*
X77962380Y-24447428D02*
X77914761Y-24542666D01*
X77819523Y-24637904D01*
X77629047Y-24685523D01*
X77295714Y-24685523D01*
X77105238Y-24637904D01*
X77010000Y-24542666D01*
X76962380Y-24447428D01*
X76962380Y-24256952D01*
X77010000Y-24161714D01*
X77105238Y-24066476D01*
X77295714Y-24018857D01*
X77629047Y-24018857D01*
X77819523Y-24066476D01*
X77914761Y-24161714D01*
X77962380Y-24256952D01*
X77962380Y-24447428D01*
X77962380Y-23066476D02*
X77962380Y-23637904D01*
X77962380Y-23352190D02*
X76962380Y-23352190D01*
X77105238Y-23447428D01*
X77200476Y-23542666D01*
X77248095Y-23637904D01*
X61237952Y-55189380D02*
X60904619Y-54713190D01*
X60666523Y-55189380D02*
X60666523Y-54189380D01*
X61047476Y-54189380D01*
X61142714Y-54237000D01*
X61190333Y-54284619D01*
X61237952Y-54379857D01*
X61237952Y-54522714D01*
X61190333Y-54617952D01*
X61142714Y-54665571D01*
X61047476Y-54713190D01*
X60666523Y-54713190D01*
X61666523Y-54665571D02*
X61999857Y-54665571D01*
X62142714Y-55189380D02*
X61666523Y-55189380D01*
X61666523Y-54189380D01*
X62142714Y-54189380D01*
X63095095Y-54237000D02*
X62999857Y-54189380D01*
X62857000Y-54189380D01*
X62714142Y-54237000D01*
X62618904Y-54332238D01*
X62571285Y-54427476D01*
X62523666Y-54617952D01*
X62523666Y-54760809D01*
X62571285Y-54951285D01*
X62618904Y-55046523D01*
X62714142Y-55141761D01*
X62857000Y-55189380D01*
X62952238Y-55189380D01*
X63095095Y-55141761D01*
X63142714Y-55094142D01*
X63142714Y-54760809D01*
X62952238Y-54760809D01*
X64095095Y-55189380D02*
X63523666Y-55189380D01*
X63809380Y-55189380D02*
X63809380Y-54189380D01*
X63714142Y-54332238D01*
X63618904Y-54427476D01*
X63523666Y-54475095D01*
X69238095Y-20452380D02*
X69238095Y-21261904D01*
X69285714Y-21357142D01*
X69333333Y-21404761D01*
X69428571Y-21452380D01*
X69619047Y-21452380D01*
X69714285Y-21404761D01*
X69761904Y-21357142D01*
X69809523Y-21261904D01*
X69809523Y-20452380D01*
X70190476Y-20452380D02*
X70809523Y-20452380D01*
X70476190Y-20833333D01*
X70619047Y-20833333D01*
X70714285Y-20880952D01*
X70761904Y-20928571D01*
X70809523Y-21023809D01*
X70809523Y-21261904D01*
X70761904Y-21357142D01*
X70714285Y-21404761D01*
X70619047Y-21452380D01*
X70333333Y-21452380D01*
X70238095Y-21404761D01*
X70190476Y-21357142D01*
X88238095Y-43627380D02*
X88238095Y-42627380D01*
X88809523Y-43627380D01*
X88809523Y-42627380D01*
X89190476Y-42627380D02*
X89809523Y-42627380D01*
X89476190Y-43008333D01*
X89619047Y-43008333D01*
X89714285Y-43055952D01*
X89761904Y-43103571D01*
X89809523Y-43198809D01*
X89809523Y-43436904D01*
X89761904Y-43532142D01*
X89714285Y-43579761D01*
X89619047Y-43627380D01*
X89333333Y-43627380D01*
X89238095Y-43579761D01*
X89190476Y-43532142D01*
X28238095Y-43627380D02*
X28238095Y-42627380D01*
X28809523Y-43627380D01*
X28809523Y-42627380D01*
X29809523Y-43627380D02*
X29238095Y-43627380D01*
X29523809Y-43627380D02*
X29523809Y-42627380D01*
X29428571Y-42770238D01*
X29333333Y-42865476D01*
X29238095Y-42913095D01*
X110238095Y-43627380D02*
X110238095Y-42627380D01*
X110809523Y-43627380D01*
X110809523Y-42627380D01*
X111714285Y-42960714D02*
X111714285Y-43627380D01*
X111476190Y-42579761D02*
X111238095Y-43294047D01*
X111857142Y-43294047D01*
X50238095Y-43627380D02*
X50238095Y-42627380D01*
X50809523Y-43627380D01*
X50809523Y-42627380D01*
X51238095Y-42722619D02*
X51285714Y-42675000D01*
X51380952Y-42627380D01*
X51619047Y-42627380D01*
X51714285Y-42675000D01*
X51761904Y-42722619D01*
X51809523Y-42817857D01*
X51809523Y-42913095D01*
X51761904Y-43055952D01*
X51190476Y-43627380D01*
X51809523Y-43627380D01*
X105385477Y-23585026D02*
X104813057Y-24157446D01*
X104779385Y-24258461D01*
X104779385Y-24325805D01*
X104813057Y-24426820D01*
X104947744Y-24561507D01*
X105048759Y-24595179D01*
X105116103Y-24595179D01*
X105217118Y-24561507D01*
X105789538Y-23989087D01*
X106025240Y-24359477D02*
X106092583Y-24359477D01*
X106193599Y-24393148D01*
X106361957Y-24561507D01*
X106395629Y-24662522D01*
X106395629Y-24729866D01*
X106361957Y-24830881D01*
X106294614Y-24898225D01*
X106159927Y-24965568D01*
X105351805Y-24965568D01*
X105789538Y-25403301D01*
X33558593Y-24636089D02*
X34131013Y-25208509D01*
X34232028Y-25242181D01*
X34299372Y-25242181D01*
X34400387Y-25208509D01*
X34535074Y-25073822D01*
X34568746Y-24972807D01*
X34568746Y-24905463D01*
X34535074Y-24804448D01*
X33962654Y-24232028D01*
X35376868Y-24232028D02*
X34972807Y-24636089D01*
X35174837Y-24434059D02*
X34467731Y-23726952D01*
X34501402Y-23895311D01*
X34501402Y-24029998D01*
X34467731Y-24131013D01*
X68785714Y-44394380D02*
X68785714Y-43394380D01*
X69357142Y-44394380D01*
X69357142Y-43394380D01*
X69833333Y-43870571D02*
X70166666Y-43870571D01*
X70309523Y-44394380D02*
X69833333Y-44394380D01*
X69833333Y-43394380D01*
X70309523Y-43394380D01*
X71261904Y-44394380D02*
X70690476Y-44394380D01*
X70976190Y-44394380D02*
X70976190Y-43394380D01*
X70880952Y-43537238D01*
X70785714Y-43632476D01*
X70690476Y-43680095D01*
M02*
