G04 #@! TF.GenerationSoftware,KiCad,Pcbnew,(5.1.8)-1*
G04 #@! TF.CreationDate,2020-11-08T19:12:23+01:00*
G04 #@! TF.ProjectId,MainBoard,4d61696e-426f-4617-9264-2e6b69636164,rev?*
G04 #@! TF.SameCoordinates,Original*
G04 #@! TF.FileFunction,Soldermask,Bot*
G04 #@! TF.FilePolarity,Negative*
%FSLAX46Y46*%
G04 Gerber Fmt 4.6, Leading zero omitted, Abs format (unit mm)*
G04 Created by KiCad (PCBNEW (5.1.8)-1) date 2020-11-08 19:12:23*
%MOMM*%
%LPD*%
G01*
G04 APERTURE LIST*
%ADD10O,1.700000X1.700000*%
%ADD11R,1.700000X1.700000*%
%ADD12C,0.800000*%
%ADD13C,5.400000*%
%ADD14O,1.000000X1.000000*%
%ADD15R,1.000000X1.000000*%
%ADD16C,1.346200*%
%ADD17C,1.500000*%
G04 APERTURE END LIST*
D10*
X57658000Y-51308000D03*
D11*
X55118000Y-51308000D03*
D12*
X118231891Y-55368109D03*
X116800000Y-54775000D03*
X115368109Y-55368109D03*
X114775000Y-56800000D03*
X115368109Y-58231891D03*
X116800000Y-58825000D03*
X118231891Y-58231891D03*
X118825000Y-56800000D03*
D13*
X116800000Y-56800000D03*
D12*
X118231891Y-21768109D03*
X116800000Y-21175000D03*
X115368109Y-21768109D03*
X114775000Y-23200000D03*
X115368109Y-24631891D03*
X116800000Y-25225000D03*
X118231891Y-24631891D03*
X118825000Y-23200000D03*
D13*
X116800000Y-23200000D03*
D12*
X24631891Y-55368109D03*
X23200000Y-54775000D03*
X21768109Y-55368109D03*
X21175000Y-56800000D03*
X21768109Y-58231891D03*
X23200000Y-58825000D03*
X24631891Y-58231891D03*
X25225000Y-56800000D03*
D13*
X23200000Y-56800000D03*
D12*
X24631891Y-21768109D03*
X23200000Y-21175000D03*
X21768109Y-21768109D03*
X21175000Y-23200000D03*
X21768109Y-24631891D03*
X23200000Y-25225000D03*
X24631891Y-24631891D03*
X25225000Y-23200000D03*
D13*
X23200000Y-23200000D03*
D14*
X79502000Y-29464000D03*
X80772000Y-29464000D03*
X82042000Y-29464000D03*
X83312000Y-29464000D03*
X84582000Y-29464000D03*
D15*
X85852000Y-29464000D03*
D11*
X77724000Y-49276000D03*
X62484000Y-44196000D03*
X62484000Y-56896000D03*
X77724000Y-56896000D03*
D10*
X84836000Y-56896000D03*
D11*
X82296000Y-56896000D03*
D10*
X57785000Y-25400000D03*
D11*
X57785000Y-22860000D03*
D10*
X53340000Y-25400000D03*
D11*
X53340000Y-22860000D03*
D16*
X91602450Y-44958554D03*
X93608710Y-43181163D03*
X94559170Y-40675005D03*
X94236091Y-38014213D03*
X92713487Y-35808340D03*
X90340168Y-34562726D03*
X87659832Y-34562726D03*
X85286513Y-35808340D03*
X83763909Y-38014213D03*
X83440830Y-40675005D03*
X84391290Y-43181163D03*
X86397550Y-44958554D03*
X89000000Y-45600000D03*
X31602450Y-44958554D03*
X33608710Y-43181163D03*
X34559170Y-40675005D03*
X34236091Y-38014213D03*
X32713487Y-35808340D03*
X30340168Y-34562726D03*
X27659832Y-34562726D03*
X25286513Y-35808340D03*
X23763909Y-38014213D03*
X23440830Y-40675005D03*
X24391290Y-43181163D03*
X26397550Y-44958554D03*
X29000000Y-45600000D03*
X113602450Y-44958554D03*
X115608710Y-43181163D03*
X116559170Y-40675005D03*
X116236091Y-38014213D03*
X114713487Y-35808340D03*
X112340168Y-34562726D03*
X109659832Y-34562726D03*
X107286513Y-35808340D03*
X105763909Y-38014213D03*
X105440830Y-40675005D03*
X106391290Y-43181163D03*
X108397550Y-44958554D03*
X111000000Y-45600000D03*
X53602450Y-44958554D03*
X55608710Y-43181163D03*
X56559170Y-40675005D03*
X56236091Y-38014213D03*
X54713487Y-35808340D03*
X52340168Y-34562726D03*
X49659832Y-34562726D03*
X47286513Y-35808340D03*
X45763909Y-38014213D03*
X45440830Y-40675005D03*
X46391290Y-43181163D03*
X48397550Y-44958554D03*
X51000000Y-45600000D03*
D17*
X68730000Y-40000000D03*
X71270000Y-40000000D03*
M02*
