M48
; DRILL file {KiCad (5.1.8)-1} date 11/08/20 19:12:25
; FORMAT={-:-/ absolute / inch / decimal}
; #@! TF.CreationDate,2020-11-08T19:12:25+01:00
; #@! TF.GenerationSoftware,Kicad,Pcbnew,(5.1.8)-1
; #@! TF.FileFunction,Plated,1,2,PTH
FMAT,2
INCH
T1C0.0157
T2C0.0197
T3C0.0236
T4C0.0256
T5C0.0315
T6C0.0394
T7C0.1063
%
G90
G05
T1
X1.2Y-1.625
X1.5Y-1.175
X1.55Y-1.825
X1.6Y-0.85
X1.61Y-0.98
X1.65Y-1.01
X1.65Y-1.225
X1.68Y-0.86
X1.72Y-0.82
X1.72Y-1.08
X1.9Y-0.9
X1.91Y-1.06
X1.95Y-0.95
X2.1Y-1.6
X2.225Y-1.2
X2.325Y-1.6
X2.325Y-1.825
X2.35Y-1.5
X2.4Y-0.95
X2.4Y-1.37
X2.425Y-1.25
X2.475Y-1.3
X2.49Y-0.9
X2.55Y-1.8
X2.55Y-2.15
X2.6Y-1.8
X2.6Y-2.15
X2.65Y-1.8
X2.65Y-2.15
X2.7Y-1.8
X2.7Y-2.15
X2.7087Y-1.4173
X2.72Y-0.9
X2.725Y-1.025
X2.725Y-1.175
X2.75Y-1.8
X2.75Y-2.15
X2.78Y-0.94
X2.8Y-1.275
X2.82Y-1.03
X2.83Y-1.17
X2.85Y-1.325
X2.86Y-0.99
X3.02Y-0.86
X3.03Y-1.09
X3.04Y-1.02
X3.07Y-1.19
X3.075Y-1.55
X3.18Y-1.325
X3.26Y-1.95
X3.27Y-0.99
X3.425Y-1.6
X3.5Y-1.15
X3.58Y-0.93
X3.77Y-1.11
X3.825Y-0.85
X3.85Y-1.03
X3.86Y-1.075
X3.875Y-1.2
X3.925Y-0.85
X3.975Y-1.825
X4.05Y-1.15
X4.325Y-1.625
T2
X0.8337Y-0.9134
X0.857Y-0.857
X0.857Y-0.9698
X0.9134Y-0.8337
X0.9134Y-0.9931
X0.9698Y-0.857
X0.9698Y-0.9698
X0.9931Y-0.9134
X4.5187Y-0.9134
X4.5421Y-0.857
X4.5421Y-0.9698
X4.5984Y-0.8337
X4.5984Y-0.9931
X4.6548Y-0.857
X4.6548Y-0.9698
X4.6781Y-0.9134
X0.8337Y-2.2362
X0.857Y-2.1798
X0.857Y-2.2926
X0.9134Y-2.1565
X0.9134Y-2.3159
X0.9698Y-2.1798
X0.9698Y-2.2926
X0.9931Y-2.2362
X4.5187Y-2.2362
X4.5421Y-2.1798
X4.5421Y-2.2926
X4.5984Y-2.1565
X4.5984Y-2.3159
X4.6548Y-2.1798
X4.6548Y-2.2926
X4.6781Y-2.2362
T3
X2.7059Y-1.5748
X2.8059Y-1.5748
T4
X3.13Y-1.16
X3.18Y-1.16
X3.23Y-1.16
X3.28Y-1.16
X3.33Y-1.16
X3.38Y-1.16
T5
X1.789Y-1.6014
X1.8017Y-1.4966
X1.8264Y-1.7
X1.8617Y-1.4098
X1.9054Y-1.77
X1.9551Y-1.3607
X2.0079Y-1.7953
X2.0606Y-1.3607
X2.1103Y-1.77
X2.1541Y-1.4098
X2.1893Y-1.7
X2.214Y-1.4966
X2.2267Y-1.6014
X0.9229Y-1.6014
X0.9356Y-1.4966
X0.9603Y-1.7
X0.9955Y-1.4098
X1.0393Y-1.77
X1.089Y-1.3607
X1.1417Y-1.7953
X1.1945Y-1.3607
X1.2442Y-1.77
X1.2879Y-1.4098
X1.3232Y-1.7
X1.3479Y-1.4966
X1.3606Y-1.6014
X4.1512Y-1.6014
X4.1639Y-1.4966
X4.1886Y-1.7
X4.2239Y-1.4098
X4.2676Y-1.77
X4.3173Y-1.3607
X4.3701Y-1.7953
X4.4228Y-1.3607
X4.4725Y-1.77
X4.5163Y-1.4098
X4.5515Y-1.7
X4.5762Y-1.4966
X4.5889Y-1.6014
X3.2851Y-1.6014
X3.2978Y-1.4966
X3.3225Y-1.7
X3.3577Y-1.4098
X3.4015Y-1.77
X3.4512Y-1.3607
X3.5039Y-1.7953
X3.5567Y-1.3607
X3.6064Y-1.77
X3.6501Y-1.4098
X3.6854Y-1.7
X3.7101Y-1.4966
X3.7228Y-1.6014
T6
X3.24Y-2.24
X3.34Y-2.24
X2.17Y-2.02
X2.27Y-2.02
X2.275Y-0.9
X2.275Y-1.0
X2.46Y-1.74
X2.46Y-2.24
X3.06Y-1.94
X3.06Y-2.24
X2.1Y-0.9
X2.1Y-1.0
T7
X4.5984Y-2.2362
X0.9134Y-0.9134
X4.5984Y-0.9134
X0.9134Y-2.2362
T0
M30
